<?xml version="1.0" standalone="no"?><!DOCTYPE svg PUBLIC "-//W3C//DTD SVG 1.1//EN" "http://www.w3.org/Graphics/SVG/1.1/DTD/svg11.dtd"><svg class="icon" width="200px" height="200.00px" viewBox="0 0 1024 1024" version="1.1" xmlns="http://www.w3.org/2000/svg"><path d="M160 32c-12 0-24.8 4.8-33.6 14.4S112 68 112 80v864c0 12 4.8 24.8 14.4 33.6C136 987.2 148 992 160 992h704c12 0 24.8-4.8 33.6-14.4C907.2 968 912 956 912 944V304L640 32H160z" fill="#E5E5E5" /><path d="M912 304H688c-12 0-24.8-4.8-33.6-14.4-9.6-8.8-14.4-21.6-14.4-33.6V32l272 272z" fill="#CCCCCC" /><path d="M264 376h208c13.6 0 24-10.4 24-24s-10.4-24-24-24H264c-13.6 0-24 10.4-24 24s10.4 24 24 24z m0 160h496c13.6 0 24-10.4 24-24s-10.4-24-24-24H264c-13.6 0-24 10.4-24 24s10.4 24 24 24z m496 112H264c-13.6 0-24 10.4-24 24s10.4 24 24 24h496c13.6 0 24-10.4 24-24s-10.4-24-24-24z" fill="#FFFFFF" /></svg>