<?xml version="1.0" standalone="no"?><!DOCTYPE svg PUBLIC "-//W3C//DTD SVG 1.1//EN" "http://www.w3.org/Graphics/SVG/1.1/DTD/svg11.dtd"><svg t="1563756217006" class="icon" viewBox="0 0 1024 1024" version="1.1" xmlns="http://www.w3.org/2000/svg" p-id="5921" xmlns:xlink="http://www.w3.org/1999/xlink" width="200" height="200"><defs><style type="text/css"></style></defs><path d="M597.333 85.333v85.334h341.334v682.666H597.333v85.334H1024V85.333H597.333z" fill="#217346" p-id="5922"></path><path d="M597.333 256h85.334v85.333h-85.334z m128 0h128v85.333h-128z m-128 128h85.334v85.333h-85.334z m128 0h128v85.333h-128z m-128 128h85.334v85.333h-85.334z m128 0h128v85.333h-128z m-128 128h85.334v85.333h-85.334z m128 0h128v85.333h-128z" fill="#217346" p-id="5923"></path><path d="M597.333 1024L0 884.053V139.947L597.333 0zM362.667 725.333l98.133 5.974-113.493-214.614L457.813 303.36l-92.586 5.547-56.32 126.72a64 64 0 0 0-6.4 17.92c0 5.973-2.987 11.946-4.694 17.92h0.854a117.333 117.333 0 0 0-4.694-17.494 151.04 151.04 0 0 0-5.973-16.64l-50.347-119.04-89.6 4.694L243.627 518.4 139.52 713.387l87.467 4.693 58.026-128 2.134-5.547 2.56-8.533a82.773 82.773 0 0 0 0-8.533 19.2 19.2 0 0 0 0-5.547c0 2.987 0 5.973 2.133 8.533a60.587 60.587 0 0 0 0 8.534 30.72 30.72 0 0 0 3.84 10.24z" fill="#217346" p-id="5924"></path></svg>