<svg t="1566430446312" class="icon" viewBox="0 0 1024 1024" version="1.1" xmlns="http://www.w3.org/2000/svg" p-id="12078" xmlns:xlink="http://www.w3.org/1999/xlink" width="200" height="200"><defs><style type="text/css"></style></defs><path d="M928 768h-64a28.8 28.8 0 0 1-31.968-32.16v0.128-288-1.312c0-164.832-125.888-300.256-286.752-315.392L544 131.168v-35.2a32 32 0 0 0-64 0v35.2c-162.144 15.232-288 150.656-288 315.488v1.376-0.064 288a28.8 28.8 0 0 1-32.16 31.968h0.128-64a32 32 0 0 0 0 64h288a128 128 0 0 0 256 0h288a32 32 0 0 0 0-64z m-416 128a64 64 0 0 1-64-64h128a64 64 0 0 1-64 64z m256-160a28.8 28.8 0 0 1-32.16 31.968h0.128-448A28.8 28.8 0 0 1 256 735.808v0.128-288a256 256 0 0 1 512 0z" p-id="12079"></path></svg>