<svg id="图层_1" data-name="图层 1" xmlns="http://www.w3.org/2000/svg" viewBox="0 0 500 500"><title>水平展开</title><path d="M4.33,130.87C4.33,116.57,13,107,21.64,107h247c10.82,0,17.31,9.53,17.31,23.83,0,11.91-8.66,23.83-17.31,23.83h-247c-10.82,0-17.31-11.91-17.31-23.83ZM281.59,250c0,14.3-10.82,23.83-23.81,23.83h-234C10.82,273.83,0,264.3,0,250c0-11.91,10.82-23.83,23.81-23.83h234c13,0,23.81,9.53,23.81,23.83ZM26,393c-13,0-23.81-9.53-23.81-23.83S13,345.3,26,345.3h234c13,0,23.81,9.53,23.81,23.83,0,11.91-10.82,23.83-23.81,23.83Z"/><path d="M342.22,364.75,448.77,250,342.22,135.25c-8.2-8.2-8.2-24.59,0-32.79s22.54-8.2,30.74,0l120.9,131.14c8.2,8.2,8.2,24.59,0,32.79L373,397.53c-8.2,8.2-22.54,8.2-30.74,0s-8.2-22.54,0-32.79Zm0,0"/></svg>