<svg id="图层_1" data-name="图层 1" xmlns="http://www.w3.org/2000/svg" viewBox="0 0 500 500"><title>水平收起</title><path d="M495.67,130.87c0,11.91-6.49,23.83-17.31,23.83h-247c-8.66,0-17.31-11.91-17.31-23.83,0-14.3,6.49-23.83,17.31-23.83h247c8.66,0,17.31,9.53,17.31,23.83ZM218.41,250c0-14.3,10.82-23.83,23.81-23.83h234c13,0,23.81,11.91,23.81,23.83,0,14.3-10.82,23.83-23.81,23.83h-234c-13,0-23.81-9.53-23.81-23.83Zm21.64,143c-13,0-23.81-11.91-23.81-23.83,0-14.3,10.82-23.83,23.81-23.83H474c13,0,23.81,9.53,23.81,23.83S487,393,474,393Z"/><path d="M157.78,364.75c8.2,10.24,8.2,24.59,0,32.79s-22.54,8.2-30.74,0L6.15,266.39c-8.2-8.2-8.2-24.59,0-32.79L127,102.47c8.2-8.2,22.54-8.2,30.74,0s8.2,24.59,0,32.79L51.23,250,157.78,364.75Zm0,0"/></svg>