<?xml version="1.0" standalone="no"?><!DOCTYPE svg PUBLIC "-//W3C//DTD SVG 1.1//EN" "http://www.w3.org/Graphics/SVG/1.1/DTD/svg11.dtd"><svg class="icon" width="200px" height="200.00px" viewBox="0 0 1024 1024" version="1.1" xmlns="http://www.w3.org/2000/svg"><path d="M930.133333 66.56h-494.933333c-51.2 0-93.866667 42.666667-93.866667 93.866667V392.533333H93.866667c-51.2 0-93.866667 42.666667-93.866667 93.866667v375.466667c0 51.2 42.666667 93.866667 93.866667 93.866666h494.933333c51.2 0 93.866667-42.666667 93.866667-93.866666V631.466667h247.466666c51.2 0 93.866667-42.666667 93.866667-93.866667V160.426667c0-51.2-42.666667-93.866667-93.866667-93.866667zM631.466667 861.866667c0 23.893333-18.773333 42.666667-42.666667 42.666666h-494.933333C69.973333 904.533333 51.2 885.76 51.2 861.866667v-375.466667C51.2 462.506667 69.973333 443.733333 93.866667 443.733333h494.933333c23.893333 0 42.666667 18.773333 42.666667 42.666667v375.466667z m341.333333-324.266667c0 23.893333-18.773333 42.666667-42.666667 42.666667H682.666667v-93.866667c0-51.2-42.666667-93.866667-93.866667-93.866667H392.533333V160.426667c0-23.893333 18.773333-42.666667 42.666667-42.666667h494.933333C954.026667 117.76 972.8 136.533333 972.8 160.426667v377.173333z" /></svg>