<?xml version="1.0" standalone="no"?><!DOCTYPE svg PUBLIC "-//W3C//DTD SVG 1.1//EN" "http://www.w3.org/Graphics/SVG/1.1/DTD/svg11.dtd"><svg class="icon" width="200px" height="200.00px" viewBox="0 0 1024 1024" version="1.1" xmlns="http://www.w3.org/2000/svg"><path d="M930.133333 119.466667C954.026667 119.466667 972.8 138.24 972.8 162.133333v699.733334c0 23.893333-18.773333 42.666667-42.666667 42.666666h-836.266666C69.973333 904.533333 51.2 885.76 51.2 861.866667v-699.733334C51.2 138.24 69.973333 119.466667 93.866667 119.466667h836.266666m0-51.2h-836.266666C42.666667 68.266667 0 110.933333 0 162.133333v699.733334c0 51.2 42.666667 93.866667 93.866667 93.866666h836.266666c51.2 0 93.866667-42.666667 93.866667-93.866666v-699.733334c0-51.2-42.666667-93.866667-93.866667-93.866666z" /></svg>