<?xml version="1.0" standalone="no"?><!DOCTYPE svg PUBLIC "-//W3C//DTD SVG 1.1//EN" "http://www.w3.org/Graphics/SVG/1.1/DTD/svg11.dtd"><svg t="1563204980965" class="icon" viewBox="0 0 1059 1024" version="1.1" xmlns="http://www.w3.org/2000/svg" p-id="13218" xmlns:xlink="http://www.w3.org/1999/xlink" width="206.8359375" height="200"><defs><style type="text/css"></style></defs><path d="M692.596364 837.818182a21.876364 21.876364 0 0 0-20.48-23.272727h-286.254546a21.876364 21.876364 0 0 0-20.48 23.272727v116.363636H195.258182a34.443636 34.443636 0 0 0-34.443637 34.443637A34.443636 34.443636 0 0 0 195.258182 1024h667.461818a34.443636 34.443636 0 0 0 34.443636-34.443636A34.443636 34.443636 0 0 0 862.72 954.181818h-170.123636zM988.858182 0H69.818182a69.818182 69.818182 0 0 0-69.818182 69.818182v643.025454a69.818182 69.818182 0 0 0 69.818182 69.818182h919.04a69.818182 69.818182 0 0 0 69.818182-69.818182V69.818182a69.818182 69.818182 0 0 0-69.818182-69.818182z m0 689.803636a23.272727 23.272727 0 0 1-23.272727 23.272728H93.090909a23.272727 23.272727 0 0 1-23.272727-23.272728V93.090909a23.272727 23.272727 0 0 1 23.272727-23.272727h872.727273a23.272727 23.272727 0 0 1 23.272727 23.272727z m-837.818182-323.956363" p-id="13219"></path><path d="M696.552727 204.567273a34.443636 34.443636 0 0 0-8.378182 47.941818l17.687273 25.134545H254.138182a34.443636 34.443636 0 0 0-34.443637 34.443637 34.443636 34.443636 0 0 0 34.443637 34.443636h544.814545a20.247273 20.247273 0 0 0 15.592728-32.116364l-69.818182-101.46909a34.443636 34.443636 0 0 0-48.174546-8.378182z m-358.4 352.116363a34.443636 34.443636 0 0 0 15.592728-46.545454l-13.265455-26.996364h463.36A34.443636 34.443636 0 0 0 837.818182 449.396364a34.443636 34.443636 0 0 0-34.443637-34.443637H262.283636a20.247273 20.247273 0 0 0-18.152727 29.323637l47.941818 96.814545a34.443636 34.443636 0 0 0 46.08 15.592727z m-30.72 15.127273" p-id="13220"></path></svg>