<svg id="图层_1" data-name="图层 1" xmlns="http://www.w3.org/2000/svg" viewBox="0 0 500 500"><title>垂直展开</title><path d="M38.49,194.54c0-16.21,8.83-32.42,23.56-32.42H443.84c11.78,0,23.56,16.21,23.56,32.42,0,19.45-8.84,32.42-23.56,32.42H62.06c-11.78,0-23.56-13-23.56-32.42Zm423-162.12c0,19.45-14.73,32.42-32.4,32.42H65c-17.67,0-32.4-16.21-32.4-32.42C32.6,13,47.33,0,65,0H429.11c17.67,0,32.4,13,32.4,32.42Z"/><path d="M406.15,285.29c13.94-11.15,33.46-11.15,44.61,0s11.15,30.67,0,41.83L272.31,491.64c-11.15,11.15-33.46,11.15-44.61,0L49.24,327.12c-11.15-11.16-11.15-30.67,0-41.83s33.46-11.15,44.61,0L250,430.29l156.15-145Zm0,0"/></svg>