<svg id="图层_1" data-name="图层 1" xmlns="http://www.w3.org/2000/svg" viewBox="0 0 500 500"><title>垂直收起</title><path d="M38.49,305.46C38.49,286,50.28,273,62.06,273H443.84c14.73,0,23.56,13,23.56,32.42,0,16.21-11.78,32.42-23.56,32.42H62.06c-14.73,0-23.56-16.21-23.56-32.42Zm423,162.12c0,19.45-14.73,32.42-32.4,32.42H65c-17.67,0-32.4-13-32.4-32.42,0-16.21,14.73-32.42,32.4-32.42H429.11c17.67,0,32.4,13,32.4,32.42Z"/><path d="M406.15,214.71,250,69.71l-156.15,145c-11.15,11.15-33.46,11.15-44.61,0s-11.15-30.67,0-41.83L227.69,8.36c11.15-11.15,33.46-11.15,44.61,0L450.76,172.88c11.15,11.16,11.15,30.67,0,41.83s-30.67,11.15-44.61,0Zm0,0"/></svg>