<?xml version="1.0" standalone="no"?><!DOCTYPE svg PUBLIC "-//W3C//DTD SVG 1.1//EN" "http://www.w3.org/Graphics/SVG/1.1/DTD/svg11.dtd"><svg t="1563204009137" class="icon" viewBox="0 0 1035 1024" version="1.1" xmlns="http://www.w3.org/2000/svg" p-id="2873" xmlns:xlink="http://www.w3.org/1999/xlink" width="202.1484375" height="200"><defs><style type="text/css"></style></defs><path d="M823.12192 364.81536c1.13152 0 2.05312 0.9216 2.05312 2.05312v593.6384c0 1.13152-0.9216 2.05312-2.05312 2.05312H48.98816a2.05824 2.05824 0 0 1-2.05312-2.05312V366.86848c0-1.13152 0.9216-2.05312 2.05312-2.05312h774.13376m0-46.08H48.98816a48.13312 48.13312 0 0 0-48.13312 48.13312v593.6384A48.13312 48.13312 0 0 0 48.98816 1008.64h774.13376a48.13312 48.13312 0 0 0 48.13312-48.13312V366.86848a48.13312 48.13312 0 0 0-48.13312-48.13312z" fill="" p-id="2874"></path><path d="M992.62464 128.9984H309.56544a42.4704 42.4704 0 0 0-42.4704 42.4704v177.98656h46.08V175.0784h675.84v516.57728H857.6v46.08h135.02464a42.4704 42.4704 0 0 0 42.4704-42.4704V171.4688a42.4704 42.4704 0 0 0-42.4704-42.4704z" fill="" p-id="2875"></path></svg>