<?xml version="1.0" standalone="no"?><!DOCTYPE svg PUBLIC "-//W3C//DTD SVG 1.1//EN" "http://www.w3.org/Graphics/SVG/1.1/DTD/svg11.dtd"><svg t="1592293896782" class="icon" viewBox="0 0 1024 1024" version="1.1" xmlns="http://www.w3.org/2000/svg" p-id="19216" xmlns:xlink="http://www.w3.org/1999/xlink" width="200" height="200"><defs><style type="text/css"></style></defs><path d="M0 0h1024v1024H0z" fill="#27ABFF" p-id="19217"></path><path d="M244.107 710.02l68.228-379.26a33.185 33.185 0 0 1 65.031 0.073l67.687 379.268a25.11 25.11 0 0 1-49.606 7.82l-20.589-79.442h-66.743l-14.168 79.726a25 25 0 0 1-24.868 20.48h-0.278a24.59 24.59 0 0 1-24.693-28.65v-0.015z m64.007-138.387h66.743l-29.549-161.301-3.818-5.851-33.375 167.153z m174.629 137.852V336.457c-1.894-37.793 39.22-32.183 58.975-32.183 38.21 0 76.069 13.07 98.67 34.333s32.526 62.948 32.526 100.25c0 38.093-9.128 55.589-29.945 77.531s-65.549 54.126-101.713 54.126v138.972a29.257 29.257 0 1 1-58.514 0z m58.514-204.8c43.454 0 73.143-16.37 73.143-65.829 0-44.375-23.457-74.4-73.143-73.142v138.972z m168.228 204.8V336.457c0-14.321 11.242-29.257 36.572-29.257a31.627 31.627 0 0 1 29.257 29.257s-0.38 369.197 0 373.028a31.35 31.35 0 0 1-29.257 29.257c-14.739-0.073-36.572-14.936-36.572-29.257z" fill="#FFFFFF" p-id="19218"></path></svg>