<svg t="1588150344492" class="icon" viewBox="0 0 1024 1024" version="1.1" xmlns="http://www.w3.org/2000/svg" p-id="9311" data-spm-anchor-id="a313x.7781069.0.i8" xmlns:xlink="http://www.w3.org/1999/xlink" width="200" height="200"><defs><style type="text/css"></style></defs><path d="M983.615853 312.916583A511.92897 511.92897 0 1 0 1023.93026 511.92897a511.92897 511.92897 0 0 0-40.314407-199.012387z m-479.933409-136.941a217.569812 217.569812 0 1 1-220.769368 217.569813 219.489546 219.489546 0 0 1 220.769368-217.569813zM512.00129 980.343977a467.775096 467.775096 0 0 1-348.751611-156.138336 279.001289 279.001289 0 0 1 266.203064-191.973363h165.097093a279.001289 279.001289 0 0 1 266.203065 191.973363A467.775096 467.775096 0 0 1 512.00129 980.343977z m0 0" p-id="9312"></path></svg>