<?xml version="1.0" standalone="no"?><!DOCTYPE svg PUBLIC "-//W3C//DTD SVG 1.1//EN" "http://www.w3.org/Graphics/SVG/1.1/DTD/svg11.dtd"><svg t="1593740170444" class="icon" viewBox="0 0 1024 1024" version="1.1" xmlns="http://www.w3.org/2000/svg" p-id="14640" xmlns:xlink="http://www.w3.org/1999/xlink" width="200" height="200"><defs><style type="text/css"></style></defs><path d="M915.2 0H108.8C46.4 0 0 46.4 0 108.8V912c0 62.4 49.6 108.8 108.8 108.8h806.4c62.4 0 108.8-49.6 108.8-108.8V108.8C1024 46.4 974.4 0 915.2 0z m-129.6 144h73.6v73.6h-73.6V144zM200 144h476.8c20.8 0 35.2 17.6 35.2 35.2s-14.4 35.2-35.2 35.2H200c-17.6 0-35.2-14.4-35.2-35.2 0-17.6 14.4-35.2 35.2-35.2z m750.4 768c0 20.8-17.6 35.2-35.2 35.2H108.8c-20.8 0-35.2-17.6-35.2-35.2V364.8h876.8V912z" fill="#F2BC17" p-id="14641"></path><path d="M691.2 540.8c-11.2-11.2-28.8-11.2-41.6 0L483.2 708.8 400 627.2c-11.2-11.2-28.8-11.2-41.6 0-11.2 11.2-11.2 28.8 0 41.6l102.4 102.4c11.2 11.2 28.8 11.2 41.6 0l188.8-188.8c9.6-11.2 9.6-28.8 0-41.6z" fill="#F2BC17" p-id="14642"></path></svg>