<svg t="1588587901896" class="icon" viewBox="0 0 1024 1024" version="1.1" xmlns="http://www.w3.org/2000/svg" p-id="15248" xmlns:xlink="http://www.w3.org/1999/xlink" width="200" height="200"><defs><style type="text/css"></style></defs><path d="M734.208 749.056c-8.192 0-16.896-3.072-23.04-9.728-12.8-12.8-12.8-33.28 0-46.592L894.976 506.88 709.12 323.072c-12.8-12.8-12.8-33.28 0-46.592 12.8-12.8 33.28-12.8 46.592 0L965.12 483.328c12.8 12.8 12.8 33.28 0 46.592L758.272 739.328c-7.168 6.656-15.872 9.728-24.064 9.728z m-456.192 0c-8.192 0-16.896-3.072-23.04-9.728L48.128 529.92c-12.8-12.8-12.8-33.792 0-46.592L257.536 276.48c12.8-12.8 33.792-12.8 46.592 0s12.8 33.792 0 46.592L117.76 507.392l183.808 185.856c12.8 12.8 12.8 33.792 0 46.592-6.656 6.144-14.848 9.216-23.552 9.216z m141.312 112.128l-1.024-0.512c-17.408-4.608-27.648-22.528-23.04-39.936l169.472-632.32c4.608-17.408 22.528-27.648 39.936-23.04l1.024 0.512c17.408 4.608 27.648 22.528 23.04 39.936l-169.472 632.32c-4.608 17.408-22.528 27.648-39.936 23.04z" p-id="15249"></path></svg>