<?xml version="1.0" standalone="no"?><!DOCTYPE svg PUBLIC "-//W3C//DTD SVG 1.1//EN" "http://www.w3.org/Graphics/SVG/1.1/DTD/svg11.dtd"><svg t="1593740284584" class="icon" viewBox="0 0 1024 1024" version="1.1" xmlns="http://www.w3.org/2000/svg" p-id="16226" xmlns:xlink="http://www.w3.org/1999/xlink" width="200" height="200"><defs><style type="text/css"></style></defs><path d="M967.68 161.792v-10.24c-1.024-23.552-9.728-44.544-25.6-61.952-20.992-23.04-47.616-33.792-78.848-33.28H163.84c-16.384 0-32.256 1.536-47.104 8.704-39.936 19.968-59.904 51.712-59.904 96.256v703.488c0 14.848 2.56 29.184 9.216 42.496 19.456 39.936 51.712 59.392 95.744 59.392h710.144c19.968-1.024 38.4-7.168 54.272-18.944 28.672-21.504 41.984-50.176 41.984-86.016-1.024-232.448-0.512-466.432-0.512-699.904z m-192 321.536a215.04 215.04 0 0 1 0 57.344c-0.512 4.096 0.512 6.656 3.584 9.216 23.04 17.408 45.568 35.328 68.096 53.248 9.728 7.68 11.776 16.384 5.632 27.136l-67.584 116.736c-7.168 12.288-15.36 14.848-28.672 9.216-26.112-10.752-52.224-20.992-77.824-31.744-3.584-1.536-6.144-2.048-9.728 1.024-15.36 11.776-32.256 22.016-50.176 29.696-3.584 1.536-5.12 3.584-6.144 7.68-4.096 28.672-8.192 57.344-12.288 85.504-2.048 12.288-8.704 17.92-20.992 17.92h-135.68c-12.8 0-19.456-6.144-20.992-18.944-4.096-28.16-7.68-56.32-11.776-84.48-0.512-4.096-2.048-6.144-6.144-7.68-17.92-7.68-34.816-17.408-50.176-29.184-3.584-2.56-6.144-2.56-9.728-1.024-25.6 10.752-51.712 20.992-77.312 31.232-14.336 5.632-21.504 3.072-29.184-9.728-22.016-37.888-44.032-76.288-66.048-114.176-7.68-13.312-6.144-20.992 6.144-30.208 22.016-16.896 44.032-34.304 66.048-51.712 3.584-2.56 4.608-5.632 4.096-9.728-2.56-19.456-2.56-38.912 0-58.368 0.512-3.584-0.512-6.144-3.584-8.704-22.528-17.408-45.056-35.328-67.584-52.736-10.752-8.704-12.288-16.384-5.632-28.16 22.528-38.912 45.568-78.336 68.096-117.248 3.584-6.656 8.704-10.752 16.384-10.752 4.096 0 8.192 1.536 11.776 3.072 25.6 10.24 51.2 20.48 76.8 31.232 4.096 1.536 7.168 1.536 11.264-1.536 15.36-11.776 32.256-21.504 50.176-29.696 3.584-1.536 5.12-4.096 5.12-7.68 3.584-28.16 7.68-56.32 11.776-84.48 1.536-12.8 8.192-18.432 20.992-18.432h135.68c13.312 0 19.456 4.608 21.504 18.432 4.096 28.16 8.192 56.32 12.288 84.992 0.512 4.096 2.048 5.632 5.632 7.168 17.92 7.68 34.816 17.408 50.176 29.696 3.072 2.56 5.632 3.072 9.728 1.536 26.112-10.752 52.224-20.992 77.824-31.744 13.824-5.632 22.016-3.072 29.696 10.24 22.528 38.912 44.544 77.312 67.072 116.224 6.144 10.24 4.096 18.944-5.12 26.624-22.528 17.92-45.056 35.84-68.096 53.248-4.608 2.56-5.632 5.12-5.12 9.728z" fill="#01AF63" p-id="16227"></path><path d="M512 612.864c-55.808 0-100.864-45.056-100.864-100.864 0-55.808 45.568-101.376 101.376-101.376s101.376 46.08 100.864 101.888c-0.512 55.296-46.08 100.864-101.376 100.352z" fill="#01AF63" p-id="16228"></path></svg>