<?xml version="1.0" standalone="no"?><!DOCTYPE svg PUBLIC "-//W3C//DTD SVG 1.1//EN" "http://www.w3.org/Graphics/SVG/1.1/DTD/svg11.dtd"><svg t="1586759374445" class="icon" viewBox="0 0 1024 1024" version="1.1" xmlns="http://www.w3.org/2000/svg" p-id="5109" xmlns:xlink="http://www.w3.org/1999/xlink" width="200" height="200"><defs><style type="text/css"></style></defs><path d="M535.968 0a406.272 406.272 0 0 1 43.776 191.104c0 153.216-70.784 277.632-158.144 277.632-68.032 0-125.568-75.904-147.968-181.952A698.624 698.624 0 0 0 127.968 666.752a385.024 385.024 0 0 0 768 0C895.968 308.544 550.048 12.032 535.968 0zM515.168 938.688a144.64 144.64 0 0 1-161.344-142.464c13.248-81.536 92.736-94.912 152.896-94.912 142.912 0 200.32-150.848 203.904-189.824-0.256-0.128 51.392 427.2-195.456 427.2z" p-id="5110"></path></svg>