<svg t="1586105204842" class="icon" viewBox="0 0 1024 1024" version="1.1" xmlns="http://www.w3.org/2000/svg" p-id="2188" xmlns:xlink="http://www.w3.org/1999/xlink" ><defs><style type="text/css"></style></defs><path d="M462.5 953c-11.25 0-18-2.25-24.75-9.00000001-18-11.25-22.5-36-6.75-49.49999999L856.25 507.50000001 437.75 129.5c-13.5-15.75-13.5-38.25 4.5-49.49999999 18-11.25 42.75-11.25 60.75 2.24999999L944 482.75c13.5 11.25 13.5 31.5 0 45L496.25 939.5c-9 9-18 13.5-33.75 13.5z m0 0" p-id="2189"></path><path d="M113.75 953c-11.25 0-18-2.25-24.75-9-18-11.25-22.5-36-6.75-49.5L505.25 507.5 86.75 129.5c-13.5-15.75-13.5-38.25 4.5-49.5 18-11.25 42.75-11.25 63 2.25000001L597.5 482.75c13.5 11.25 13.5 31.5-1e-8 45L149.75000001 941.75c-11.25 6.75-22.5 11.25-36.00000001 11.25z m0 0" p-id="2190"></path></svg>