<svg t="1586105197115" class="icon" viewBox="0 0 1024 1024" version="1.1" xmlns="http://www.w3.org/2000/svg" p-id="1917" xmlns:xlink="http://www.w3.org/1999/xlink" ><defs><style type="text/css"></style></defs><path d="M561.5 71c11.25 0 18 2.25 24.75 9 18 11.25 22.5 36 6.75 49.5L167.75 516.5 586.25 894.5c13.5 15.75 13.5 38.25-4.5 49.5-18 11.25-42.75 11.25-60.75-2.25L80 541.25c-13.5-11.25-13.5-31.5 0-45L527.75 84.5c9-9 18-13.5 33.75-13.5z m0 0" p-id="1918"></path><path d="M910.25 71c11.25 0 18 2.25 24.75 9 18 11.25 22.5 36 6.75 49.5L518.75 516.5 937.25 894.5c13.5 15.75 13.5 38.25-4.5 49.5-18 11.25-42.75 11.25-63-2.25L426.5 541.25c-13.5-11.25-13.5-31.5 0-45L874.25 82.25c11.25-6.75 22.5-11.25 36-11.25z m0 0" p-id="1919"></path></svg>