<svg t="1586442952970" class="icon" viewBox="0 0 1024 1024" version="1.1" xmlns="http://www.w3.org/2000/svg" p-id="7270" xmlns:xlink="http://www.w3.org/1999/xlink"><defs><style type="text/css"></style></defs><path d="M512 1004.8c-64 0-121.6-12.8-179.2-38.4-57.6-25.6-102.4-57.6-147.2-102.4C83.2 774.4 32 640 44.8 505.6s83.2-262.4 192-339.2c19.2-12.8 38.4-6.4 51.2 6.4 12.8 19.2 6.4 38.4-6.4 51.2C230.4 256 192 307.2 160 358.4c-25.6 57.6-44.8 121.6-44.8 179.2 0 102.4 38.4 204.8 115.2 275.2 70.4 76.8 172.8 115.2 275.2 115.2 102.4 0 204.8-38.4 275.2-115.2C857.6 742.4 896 640 896 537.6c0-64-12.8-128-44.8-179.2-25.6-51.2-70.4-102.4-121.6-134.4-19.2-12.8-19.2-32-6.4-51.2s32-19.2 51.2-6.4c108.8 76.8 179.2 204.8 192 339.2s-38.4 268.8-134.4 364.8c-83.2 83.2-198.4 134.4-320 134.4z m6.4-505.6c-6.4 0-19.2 0-25.6-6.4-6.4-6.4-6.4-19.2-6.4-25.6V32c0-19.2 12.8-32 32-32s38.4 12.8 38.4 32v428.8c0 25.6-19.2 38.4-38.4 38.4z" p-id="7271"></path></svg>