<svg t="1587362651709" class="icon" viewBox="0 0 1024 1024" version="1.1" xmlns="http://www.w3.org/2000/svg" p-id="9557" xmlns:xlink="http://www.w3.org/1999/xlink" width="200" height="200"><defs><style type="text/css"></style></defs><path d="M311.2 792.8c0 73.6-60 133.6-133.6 133.6S44 866.4 44 792.8 104 659.2 177.6 659.2s133.6 60 133.6 133.6z m-200 0c0 40 26.4 67.2 67.2 67.2s67.2-26.4 67.2-67.2c0-40.8-26.4-67.2-67.2-67.2s-67.2 27.2-67.2 67.2z" p-id="9558"></path><path d="M980 792.8c0 20-13.6 33.6-33.6 33.6H278.4c-20 0-33.6-13.6-33.6-33.6s13.6-33.6 33.6-33.6h668.8c19.2 0 32.8 13.6 32.8 33.6z m0-561.6c0 73.6-60 133.6-133.6 133.6s-133.6-60-133.6-133.6 60-133.6 133.6-133.6 133.6 60 133.6 133.6z m-200.8 0c0 40 26.4 67.2 67.2 67.2s67.2-26.4 67.2-67.2-26.4-67.2-67.2-67.2-67.2 27.2-67.2 67.2z" p-id="9559"></path><path d="M779.2 231.2c0 20-13.6 33.6-33.6 33.6H77.6c-20 0-33.6-13.6-33.6-33.6s13.6-33.6 33.6-33.6h668.8c20 0 32.8 13.6 32.8 33.6z m200.8 267.2c0 20-13.6 33.6-33.6 33.6h-368c-20 0-33.6-13.6-33.6-33.6s13.6-33.6 33.6-33.6h368c20 0.8 33.6 13.6 33.6 33.6z m-601.6 0c0 20-13.6 33.6-33.6 33.6H77.6c-20 0-33.6-13.6-33.6-33.6s13.6-33.6 33.6-33.6h267.2c20 0.8 33.6 13.6 33.6 33.6z" p-id="9560"></path><path d="M612 498.4C612 572 552 632 478.4 632s-133.6-60-133.6-133.6 60-133.6 133.6-133.6 133.6 60 133.6 133.6z m-200 0c0 40 26.4 67.2 67.2 67.2 40 0 67.2-26.4 67.2-67.2 0-40-26.4-67.2-67.2-67.2s-67.2 27.2-67.2 67.2z" p-id="9561"></path></svg>
