<?xml version="1.0" standalone="no"?><!DOCTYPE svg PUBLIC "-//W3C//DTD SVG 1.1//EN" "http://www.w3.org/Graphics/SVG/1.1/DTD/svg11.dtd"><svg t="1591856388833" class="icon" viewBox="0 0 1024 1024" version="1.1" xmlns="http://www.w3.org/2000/svg" p-id="1182" xmlns:xlink="http://www.w3.org/1999/xlink" width="200" height="200"><defs><style type="text/css"></style></defs><path d="M467.007024 1023.99457c-63.359664 0-123.839343-12.351935-181.503038-36.991804A473.27749 473.27749 0 0 1 136.512776 887.995291a463.037545 463.037545 0 0 1-99.519472-148.479212A455.549584 455.549584 0 0 1 0.0015 558.525038c0-63.039666 12.351935-123.199347 36.991804-180.479043a470.397506 470.397506 0 0 1 99.519472-148.543212 462.269549 462.269549 0 0 1 148.92721-99.007475 462.141549 462.141549 0 0 1 181.503038-36.479807v464.957535l329.98225 327.998261a468.541515 468.541515 0 0 1-150.015204 101.055464A456.765578 456.765578 0 0 1 467.007024 1023.99457z m63.99966-532.029179V0c66.687646 0 130.495308 12.991931 191.486985 39.039793A493.821381 493.821381 0 0 1 879.996834 143.999236a495.229374 495.229374 0 0 1 104.959443 156.991168c26.047862 60.671678 39.039793 124.351341 39.039793 190.974987H531.006684z m25.983862 65.023655H1023.99607c0 62.719667-11.839937 122.175352-35.519812 178.559054a459.709562 459.709562 0 0 1-99.455472 148.479212l-332.03024-327.038266z" p-id="1183"></path></svg>