<svg t="1588139393365" class="icon" viewBox="0 0 1024 1024" version="1.1" xmlns="http://www.w3.org/2000/svg" p-id="5841" xmlns:xlink="http://www.w3.org/1999/xlink" width="200" height="200"><defs><style type="text/css"></style></defs><path d="M1011.2 332.8c-19.2-25.6-38.4-54.4-59.2-83.2-20.8-28.8-43.2-62.4-68.8-97.6-25.6-35.2-44.8-64-59.2-84.8-6.4-9.6-14.4-14.4-25.6-14.4H201.6c-8 0-16 3.2-20.8 9.6l-1.6 1.6-3.2 3.2C158.4 96 132.8 139.2 96 198.4S32 302.4 12.8 332.8c-8 11.2-6.4 24 3.2 35.2h1.6v1.6c51.2 65.6 129.6 164.8 232 296S428.8 894.4 480 960c6.4 8 14.4 12.8 22.4 11.2 3.2 0 6.4-1.6 9.6-3.2 3.2-1.6 6.4-4.8 9.6-8 38.4-48 89.6-110.4 153.6-187.2s121.6-148.8 177.6-216c54.4-67.2 105.6-129.6 153.6-187.2l1.6-3.2c9.6-12.8 11.2-24 3.2-33.6z m-83.2-14.4H744c4.8-14.4 11.2-32 19.2-54.4s16-41.6 22.4-62.4 14.4-38.4 19.2-54.4c12.8 19.2 33.6 48 60.8 86.4s48 65.6 62.4 84.8z m-427.2-192c12.8 19.2 27.2 38.4 41.6 59.2 14.4 20.8 30.4 44.8 49.6 72 19.2 28.8 33.6 48 41.6 59.2H366.4c70.4-99.2 115.2-163.2 134.4-190.4z m156.8 251.2c-24 67.2-43.2 116.8-54.4 148.8-11.2 32-27.2 75.2-48 129.6-20.8 54.4-38.4 104-54.4 147.2-62.4-177.6-115.2-320-155.2-425.6h312z m32-83.2C672 270.4 630.4 209.6 563.2 112h192c-8 22.4-19.2 52.8-33.6 94.4-14.4 41.6-25.6 70.4-32 88zM315.2 288c-24-60.8-46.4-120-68.8-176h192c-43.2 60.8-84.8 120-123.2 176z m-118.4-139.2c20.8 54.4 43.2 110.4 65.6 169.6H92.8c32-52.8 67.2-110.4 104-169.6z m88 228.8c41.6 110.4 94.4 257.6 158.4 440-128-164.8-243.2-312-344-440h185.6z m436.8 0h200C864 449.6 742.4 596.8 558.4 822.4c8-24 17.6-48 27.2-75.2 9.6-27.2 19.2-51.2 25.6-72 8-20.8 16-46.4 28.8-76.8 11.2-30.4 20.8-54.4 25.6-70.4 6.4-16 16-41.6 27.2-76.8 14.4-36.8 24-60.8 28.8-73.6z" p-id="5842"></path></svg>
