<svg t="1588151416094" class="icon" viewBox="0 0 1025 1024" version="1.1" xmlns="http://www.w3.org/2000/svg" p-id="7120" xmlns:xlink="http://www.w3.org/1999/xlink" width="200.1953125" height="200"><defs><style type="text/css"></style></defs><path d="M933.084978 90.981799a154.614706 154.614706 0 0 1 0 218.3005c-2.310999 2.310999-4.888651 4.133132-7.421862 6.088593l-6.133035 4.66644-38.442576 30.842945 34.798309 34.798308 95.195372 95.15093a44.086746 44.086746 0 0 1 0 62.352525L543.19282 1011.070406a44.042303 44.042303 0 0 1-62.352525 0L12.996371 543.18204a44.042303 44.042303 0 0 1 0-62.352525l94.484296-94.484296a198.745894 198.745894 0 0 0 295.363419 16.488088 198.65701 198.65701 0 0 0-16.488087-295.36342L480.840295 12.985591a44.131188 44.131188 0 0 1 62.352525 0l95.195372 95.106488 34.842751 34.887193 30.75406-38.487018 4.621998-5.955266c1.95546-2.577652 3.777594-5.288632 6.133035-7.555189a154.525822 154.525822 0 0 1 218.344942 0z" p-id="7121"></path></svg>
