<svg t="1586263341929" class="icon" viewBox="0 0 1024 1024" version="1.1" xmlns="http://www.w3.org/2000/svg" p-id="3058" xmlns:xlink="http://www.w3.org/1999/xlink"><defs><style type="text/css"></style></defs><path d="M497.777778 28.444444C756.992 28.444444 967.111111 238.563556 967.111111 497.777778S756.992 967.111111 497.777778 967.111111 28.444444 756.992 28.444444 497.777778 238.563556 28.444444 497.777778 28.444444z m0 85.333334C285.696 113.777778 113.777778 285.696 113.777778 497.777778S285.696 881.777778 497.777778 881.777778 881.777778 709.859556 881.777778 497.777778 709.859556 113.777778 497.777778 113.777778z m-13.880889 564.167111c16.782222 0 31.288889 5.404444 42.609778 16.725333 10.951111 10.979556 16.725333 25.031111 16.725333 41.130667 0 17.123556-5.973333 31.345778-17.92 42.296889a59.534222 59.534222 0 0 1-41.415111 16.298666c-15.872 0-29.696-5.575111-41.870222-16.725333-11.377778-11.377778-16.725333-25.258667-16.725334-41.870222 0-16.839111 5.489778-30.833778 16.725334-41.130667 11.377778-11.377778 25.258667-16.725333 41.870222-16.725333zM494.990222 227.555556c51.171556 0 92.16 13.994667 123.505778 42.951111 30.577778 28.103111 46.023111 66.787556 46.023111 114.744889 0 36.067556-10.439111 67.982222-31.402667 95.630222l-4.039111 4.551111c-7.850667 8.533333-21.333333 21.447111-39.68 38.087111l-17.806222 15.957333c-14.677333 12.686222-24.888889 24.718222-31.829333 37.148445a86.869333 86.869333 0 0 0-11.889778 40.220444l-0.170667 6.542222v31.232h-87.608889v-31.232c0-26.453333 4.864-50.005333 14.648889-70.343111 11.377778-24.462222 36.977778-53.816889 77.511111-89.856l16.611556-16.839111c3.640889-3.84 5.774222-6.314667 7.509333-8.590222 12.913778-16.156444 19.057778-32.312889 19.057778-49.550222 0-25.486222-7.224889-44.970667-21.191111-58.936889-13.738667-14.336-34.133333-21.504-62.208-21.504-32.910222 0-55.808 10.069333-70.912 30.805333-12.970667 16.497778-20.110222 38.968889-21.219556 68.124445l-0.142222 8.135111v14.222222H312.888889v-14.222222c0-55.751111 15.559111-100.465778 47.331555-133.802667C392.647111 245.333333 437.930667 227.555556 494.990222 227.555556z" p-id="3059"></path></svg>