<svg t="1586907720993" class="icon" viewBox="0 0 1113 1024" version="1.1" xmlns="http://www.w3.org/2000/svg" p-id="2138" xmlns:xlink="http://www.w3.org/1999/xlink" width="217.3828125" height="200"><defs><style type="text/css"></style></defs><path d="M933.264696 750.770087L1113.043478 478.163478h-127.109565C969.015652 211.344696 755.222261 0 493.478957 0 220.605217 0 0 229.197913 0 512.089043 0 794.713043 221.184 1024 494.013217 1024c122.390261 0 234.095304-46.391652 320.422957-122.88l-66.070261-88.153043c-67.984696 61.662609-156.850087 99.461565-254.352696 99.461565-213.437217 0-386.448696-179.378087-386.448695-400.339479 0-221.317565 173.100522-400.606609 386.448695-400.606608 202.351304 0 367.660522 161.391304 384.222609 366.636522h-124.705391l179.734261 272.65113z" p-id="2139"></path></svg>
