<svg xmlns="http://www.w3.org/2000/svg" class="icon" viewBox="0 0 1024 1024" id="icon-guanlian"><path d="M928 896H416c-35.344 0-64-28.656-64-64V448c0-35.344 28.656-64 64-64h96c17.68 0 32 14.336 32 32 0 17.68-14.32 32-32 32h-96v384h512V448H768c-17.68 0-32-14.32-32-32 0-17.664 14.32-32 32-32h160c35.344 0 64 28.656 64 64v384c0 35.344-28.656 64-64 64zM608 640h-96c-17.664 0-32-14.32-32-32s14.336-32 32-32h96V192H96v384h160c17.68 0 32 14.32 32 32s-14.32 32-32 32H96c-35.344 0-64-28.656-64-64V192c0-35.344 28.656-64 64-64h512c35.344 0 64 28.656 64 64v384c0 35.344-28.656 64-64 64z"></path></svg>
