<svg t="1586442900267" class="icon" viewBox="0 0 1086 1024" version="1.1" xmlns="http://www.w3.org/2000/svg" p-id="6531" xmlns:xlink="http://www.w3.org/1999/xlink" width="212.109375" height="200"><defs><style type="text/css"></style></defs><path d="M702.43297 330.472727l296.029091-298.852848a46.545455 46.545455 0 0 1 66.125575 65.473939l-290.722909 293.546667h224.19394a46.545455 46.545455 0 1 1 0 93.090909H655.670303a46.545455 46.545455 0 0 1-46.545455-46.607515l0.620607-342.016a46.545455 46.545455 0 0 1 93.090909 0.186182l-0.434425 235.209697z m-299.442425 380.121212l-296.02909 298.914909a46.545455 46.545455 0 1 1-66.125576-65.536l290.722909-293.546666H107.364848a46.545455 46.545455 0 0 1 0-93.090909h342.357334a46.545455 46.545455 0 0 1 46.545454 46.669575l-0.620606 341.98497a46.545455 46.545455 0 1 1-93.090909-0.155151l0.403394-235.209697z" p-id="6532"></path></svg>