<svg t="1586442820417" class="icon" viewBox="0 0 1024 1024" version="1.1" xmlns="http://www.w3.org/2000/svg" p-id="2149" xmlns:xlink="http://www.w3.org/1999/xlink" width="200" height="200"><defs><style type="text/css"></style></defs><path d="M972.8 1024h-238.933333a51.2 51.2 0 0 1 0-102.4H921.6v-187.733333a51.2 51.2 0 0 1 102.4 0v238.933333a51.2 51.2 0 0 1-51.2 51.2z m0-682.666667A51.2 51.2 0 0 1 921.6 290.133333V102.4h-187.733333a51.2 51.2 0 0 1 0-102.4h238.933333A51.2 51.2 0 0 1 1024 51.2v238.933333a51.2 51.2 0 0 1-51.2 51.2z m-682.666667 682.666667h-238.933333A51.2 51.2 0 0 1 0 972.8v-238.933333a51.2 51.2 0 0 1 102.4 0V921.6h187.733333a51.2 51.2 0 0 1 0 102.4z m0-921.6H102.4v187.733333a51.2 51.2 0 0 1-102.4 0v-238.933333A51.2 51.2 0 0 1 51.2 0h238.933333a51.2 51.2 0 0 1 0 102.4z" p-id="2150"></path></svg>