<svg t="1587094543436" class="icon" viewBox="0 0 1316 1024" version="1.1" xmlns="http://www.w3.org/2000/svg" p-id="5169" xmlns:xlink="http://www.w3.org/1999/xlink" width="257.03125" height="200"><defs><style type="text/css"></style></defs><path d="M533.290045 978.9909a484.333887 484.333887 0 0 1-358.922108-467.437288l-26.584864-15.415253a511.196502 511.196502 0 0 0 779.749915 449.846309l-26.578251-15.415253a482.204452 482.204452 0 0 1-367.691145 48.414872z m-44.175843-427.116912a209.636858 209.636858 0 0 1-36.603786-25.169649 63.406883 63.406883 0 0 1-16.308028-30.817279 14.747325 14.747325 0 0 0-5.905543-11.043961c-5.131804-2.823815-19.773319 3.471904-44.043579 18.616018l-8.478059-25.037387c22.855047-13.10065 40.452639-19.522019 52.905201-19.138456l37.238648-68.829666-32.622669-17.723242 11.559786-21.446446 54.194765 29.408678-49.823473 91.816976a29.85176 29.85176 0 0 1 1.666514 5.64763 67.302029 67.302029 0 0 0 9.628747 24.018962 97.782037 97.782037 0 0 0 29.018502 23.628785c13.742126 7.70432 29.924504 16.823854 48.805048 27.113915 11.936736 6.421369 24.137998 12.842737 36.471523 19.138457s22.087921 11.043961 28.892852 14.125688l-17.981155 19.773319-55.345453-30.056767c-13.358563-7.188494-27.867814-15.402027-43.276454-24.018961z m59.333183-217.923135l10.402485-19.264106 133.426916 72.433833-8.868234 16.334481a291.203451 291.203451 0 0 1-62.018122 6.547019c0.257913 0.773739 0.515826 1.282951 0.767126 2.056689l48.798434 26.452601-58.559444 107.867091c-7.82997 14.383601-19.779932 17.33968-35.572134 8.729358l-18.748281-10.131346 5.521981-21.823395 16.69159 10.270222a8.173854 8.173854 0 0 0 12.564986-3.590941l6.679281-12.459175-35.049695-19.006193-21.578709 39.811164-21.16208-11.427524 21.578708-39.80455-34.295796-18.682149-21.823395 40.340215-21.823396-11.811086 71.534445-130.986664 55.861279 30.308067a375.494662 375.494662 0 0 0-18.106805-30.942929l20.672707-5.779893z m-17.081767 9.377447l-25.037386 7.22156a289.345156 289.345156 0 0 0-19.779932-61.647785l24.012348-6.547019a336.787895 336.787895 0 0 1 20.80497 60.999697z m-11.811086 106.471717l34.28257 18.616017 9.25841-16.949503-34.28257-18.622631z m63.056386-34.388381l-34.302409-18.662309-9.258411 16.949503 34.282571 18.622631z m-7.57867 64.464987l35.049696 19.006194 9.25841-16.949504-35.049696-19.006193z m63.697862-34.03127l-34.924046-18.880543-9.25841 16.956116 35.049696 19.006194z m12.326912-56.244842l-54.472518-29.58062c6.037806 10.792661 11.811086 21.16208 16.691591 31.333105a229.31098 229.31098 0 0 0 37.754474-1.792163z m84.496218 295.872336a219.113502 219.113502 0 0 1-38.138036-26.069038 64.676608 64.676608 0 0 1-17.46533-31.458755 15.170566 15.170566 0 0 0-6.421368-11.308487q-7.70432-4.232416-45.068618 19.264107l-8.478059-25.037387c23.377486-13.484213 41.352028-20.037845 53.80459-19.905581l37.112998-68.571754-32.999619-17.974542 11.811086-21.823395 55.21319 29.924504-49.955736 91.982305a20.593349 20.593349 0 0 1 1.924427 5.779893 75.793313 75.793313 0 0 0 10.660398 24.395911 104.990371 104.990371 0 0 0 30.559366 24.137998c14.251338 7.93578 31.081805 17.471943 50.980775 28.251377 10.918311 5.905543 22.220184 11.692049 33.647707 17.981155 11.943349 5.779893 20.93062 10.144572 27.226339 12.975l-18.232455 20.282532-51.496599-27.986852a4287.344885 4287.344885 0 0 1-44.691669-24.911736z m38.263687-211.415796l-25.791286 7.697707a295.759912 295.759912 0 0 0-19.178135-61.634559l24.012348-6.553632a390.923142 390.923142 0 0 1 20.93062 60.490484z m-16.823854 181.200313l6.904129-24.91835a386.241031 386.241031 0 0 0 30.565979 18.516821 9.999083 9.999083 0 0 0 15.28299-4.364679l52.243886-96.446181-91.433413-49.598626 12.201262-22.603747 91.433413 49.598626 20.289144-37.370912 23.146026 12.452562-20.289145 37.370911 34.547096 18.748281-12.194648 22.603747-34.672746-18.748281-55.345453 102.087198c-8.987271 16.565941-21.962271 20.163495-38.528213 11.176224z m43.924543-57.276493l-25.427562 2.823815a434.054106 434.054106 0 0 0-7.93578-66.515064l24.012348-1.415214a423.188701 423.188701 0 0 1 9.377447 65.113076z m0 0" fill="#67C23A" opacity=".51" p-id="5170"></path><path d="M411.290652 796.6399l-16.175765-22.339221-13.100651 23.503135-26.836163 7.320757 19.522019 19.773319-0.390176 26.968426 25.16965-11.308486 26.584863 9.25841-3.96789-26.710514 16.823854-21.16208z m160.395342 82.194842l-23.628785-14.125688-2.830428 26.710513-21.704359 17.465329 25.685475 10.402485 10.144572 24.911737 18.748281-20.414795 27.993464-1.931039-14.099236-22.993923 7.188494-26.194688z m174.904594 55.21319l17.346293 20.692547 11.559786-25.169649 26.194687-10.402485-20.560283-17.610819-1.157301-27.113915-24.263648 14.251338-26.822937-6.269266 5.52198 26.32695-15.441705 23.23861z m-482.098642-265.848633l16.532875 22.729397 11.936736-24.395911 25.791286-7.93578-19.779932-19.905582-0.661315-27.742165-24.137998 11.943349-26.194688-9.11292 4.880505 27.484251-15.540903 21.962272z m314.124629 142.030624a309.039117 309.039117 0 0 1-207.778562-185.300465l-35.314222-20.421408a336.139806 336.139806 0 0 0 236.162203 231.797524 334.57249 334.57249 0 0 0 168.093049 1.534251l-35.181958-20.282531a308.972986 308.972986 0 0 1-125.973896-7.327371z m14.125689-715.020401l-17.458716-20.67932-11.685436 25.169649-26.326951 10.402485 20.547057 17.723242 1.150689 27.113916 24.528173-14.257952 26.968426 6.295719-5.389717-26.452601 15.540903-23.245222z m697.568298 532.695853L242.046915 22.947631a53.857494 53.857494 0 0 0-73.458872 19.654282L7.174276 322.033957a53.857494 53.857494 0 0 0 19.647669 73.458871l1048.263648 604.970971a53.857494 53.857494 0 0 0 73.458871-19.647669l161.288117-279.3593a51.13949 51.13949 0 0 0 5.389718-13.2263v-27.226339a53.096982 53.096982 0 0 0-24.911737-33.125268z m-10.402485 71.653481l-147.936167 256.067785a40.419573 40.419573 0 0 1-55.094154 14.767164l-1025.038264-591.61902a40.41296 40.41296 0 0 1-14.767165-55.094154l147.936168-255.928908a40.41296 40.41296 0 0 1 55.08754-14.767164L1265.00865 644.58374a39.969879 39.969879 0 0 1 14.899427 54.96189z m0 0" fill="#67C23A" opacity=".51" p-id="5171"></path><path d="M783.835849 44.374237a484.333887 484.333887 0 0 1 358.922108 467.443901l26.710514 15.40864A511.196502 511.196502 0 0 0 389.725169 77.380469l26.578251 15.402027a481.827503 481.827503 0 0 1 367.532429-48.414872z m0 0" fill="#67C23A" opacity=".51" p-id="5172"></path><path d="M738.502705 213.115375a309.052343 309.052343 0 0 1 207.778563 185.333531l35.314222 20.414795a336.338201 336.338201 0 0 0-404.255252-233.358228l35.181958 20.289145a308.834109 308.834109 0 0 1 125.973896 7.314144z m42.125766-59.968045l23.886699 14.251338 2.830428-26.961813 21.823395-17.339679-25.943388-10.534748-10.270222-24.911737-18.880543 20.289145-28.244764 2.05669 14.251338 23.112959-7.062844 26.075651z m195.445038 67.295415l0.390176-26.968426-25.301912 11.301874-26.836163-9.377447 4.106766 26.836163-16.949504 21.320796 27.867815 5.29052 16.308028 22.48471 13.10065-23.628785 26.968426-7.320757z m74.225997 132.924317l-18.364718-21.572095-10.144572 25.169649-25.295299 9.754396 21.314183 18.622631 2.572515 27.609901 23.370872-13.616476 26.968426 7.327371-6.937194-27.113916 14.000039-22.987309z m0 0" fill="#67C23A" opacity=".51" p-id="5173"></path></svg>
