<svg t="1587094557571" class="icon" viewBox="0 0 1318 1024" version="1.1" xmlns="http://www.w3.org/2000/svg" p-id="6029" xmlns:xlink="http://www.w3.org/1999/xlink" width="257.421875" height="200"><defs><style type="text/css"></style></defs><path d="M534.62222 980.438a485.504 485.504 0 0 1-359.809-468.563l-26.654-15.448a512.434 512.434 0 0 0 781.626 450.931l-26.647-15.448a483.366 483.366 0 0 1-368.516 48.528z" fill="#F56C6C" opacity=".48" p-id="6030"></path><path d="M412.30722 797.646l-16.217-22.392-13.153 23.556-26.904 7.333 19.624 19.821-0.388 27.036 25.227-11.331 26.654 9.273-3.992-26.78 16.862-21.235z m160.78 82.39l-23.675-14.16-2.834 26.78-21.755 17.506 25.747 10.424 10.173 24.99 18.783-20.492 28.061-1.933-14.152-23.018 7.234-26.26z m175.327 55.347l17.375 20.722 11.588-25.227 26.26-10.43-20.598-17.638-1.164-27.16-24.332 14.283-26.911-6.307 5.537 26.385-15.448 23.3zM265.17422 668.92l16.605 22.787 11.969-24.458 25.878-7.983-19.828-19.953-0.658-27.805-24.2 11.975-26.26-9.134 4.892 27.548-15.56 21.992z m314.865 142.373A309.749 309.749 0 0 1 371.75722 625.548l-35.4-20.472A336.95 336.95 0 0 0 573.10722 837.427a335.397 335.397 0 0 0 168.5 1.54l-35.282-20.335a309.71 309.71 0 0 1-126.267-7.34zM594.19722 94.556l-17.513-20.73-11.713 25.228-26.391 10.424 20.597 17.756 1.158 27.167 24.589-14.29 27.036 6.313-5.406-26.516 15.573-23.3zM1293.44122 628.5L242.65722 22.071A53.986 53.986 0 0 0 169.00022 41.8L7.22022 321.902a53.986 53.986 0 0 0 19.69 73.656l1050.779 606.358a53.986 53.986 0 0 0 73.656-19.696l161.68-279.978a51.296 51.296 0 0 0 5.407-13.264v-27.292a53.223 53.223 0 0 0-24.99-33.205z m-10.43 71.821l-148.291 256.69a40.517 40.517 0 0 1-55.242 14.804L52.00522 378.768a40.51 40.51 0 0 1-14.803-55.241L185.49322 66.98a40.51 40.51 0 0 1 55.242-14.804L1268.07722 645.232a40.07 40.07 0 0 1 14.935 55.09z m0 0" fill="#F56C6C" opacity=".48" p-id="6031"></path><path d="M785.74222 43.562a485.497 485.497 0 0 1 359.783 468.57l26.779 15.44a512.427 512.427 0 0 0-781.62-450.917l26.648 15.441a482.985 482.985 0 0 1 368.41-48.527z m0 0" fill="#F56C6C" opacity=".48" p-id="6032"></path><path d="M740.30622 212.714A309.795 309.795 0 0 1 948.58722 398.471l35.401 20.466a337.146 337.146 0 0 0-405.225-233.89l35.27 20.34a309.591 309.591 0 0 1 126.266 7.334z m42.227-60.115l23.945 14.284 2.834-27.029 21.88-17.381-26.003-10.562-10.292-24.99-18.927 20.34-28.312 2.059 14.284 23.168-7.076 26.135z m195.918 67.454l0.388-27.035-25.359 11.324-26.904-9.397 4.117 26.904-16.987 21.366 27.93 5.262L957.98522 271l13.153-23.675 27.035-7.333z m74.405 133.219l-18.414-21.624-10.147 25.24-25.359 9.78 21.367 18.664 2.578 27.673 23.425-13.646 27.036 7.34-6.951-27.168 14.034-23.017z m0 0M535.48322 433.188q-15.198-3.998-36.65-7.97l-39.077 65.797a32.474 32.474 0 0 1-15.862 11.89q-9.398 3.203-36.637-7.951a143.635 143.635 0 0 0 5.26-25.72c14.857 8.799 23.511 12.495 26.037 11.055a16.04 16.04 0 0 0 5.918-5.92l32.462-54.689a238.21 238.21 0 0 0-35.342-5.774q2.328-12.357 4.123-23.852 10.391 3.623 41.675 12.192l28.713-48.27a326.348 326.348 0 0 0-35.414-18.553l11.009-18.539q13.363 9.207 33.75 21.295 15.948-26.885 28.239-49.692l21.32 12.66q-13.994 19.295-31.093 48.074 21.34 12.62 32.067 17.756l-10.45 17.592q-11.515-8.023-30.942-19.585l-25.924 43.477a332.839 332.839 0 0 0 34.815 6.885 87.789 87.789 0 0 0-7.99 17.803z m190.276-31.218l-11.535 19.473c-9.55-6.478-17.066-11.39-22.63-14.698l-70.46-41.82-24.714 41.793 82.502 49.001q-9.727 14.264-24.037 38.36-13.758 23.189-20.525 36.71l-82.567-49.073-25.872 43.575 71.374 42.365q13.942 8.26 26.53 14.468l-10.996 18.552a495.822 495.822 0 0 1-24.484-15.783l-91.794-54.472a381.498 381.498 0 0 0 23.34-35.04l73.202-123.307q10.417-17.612 19.966-35.783l88.078 52.263q9.799 4.643 24.628 13.423zM624.18622 503.411l25.924-43.47-63.074-37.42-25.911 43.444z m163.983-1.716a156.269 156.269 0 0 0 13.258 24.208 99.863 99.863 0 0 0-33.125 10.397q-20.006 9.424-62.667 24.254 38.334 17.756 51.513 23.057a97.877 97.877 0 0 0-8.096 17.697q-16.322-8.418-33.618-16.224a284.14 284.14 0 0 0-37.696-13.567q2.499-14.804 3.21-24.425a121.75 121.75 0 0 0 32.335-5.873 192.196 192.196 0 0 0 38.38-16.178 194.182 194.182 0 0 0-24.924-12.916 74.419 74.419 0 0 0-18.23-5.195q2.696-10.91 4.505-22.36c7.694-0.382 19.801-5.584 36.124-15.5a314.622 314.622 0 0 0 45.745-33.606 86.625 86.625 0 0 0 13.81 23.247 166.633 166.633 0 0 0-31.619 15.034q-19.15 11.18-43.68 22.952 7.379 4.412 34.46 17.966 11.687-6.767 20.341-12.929zM726.29722 641.68q-13.725-4.366-39.458-12.765a369.24 369.24 0 0 0-47.213-12.343q4.749-12.246 8.55-24.99 26.654 12.034 44.535 18.913t42.878 15.435a74.142 74.142 0 0 0-9.285 15.855z m141.393-130.47l62.108 36.875q-36.92 22.004-53.664 33.336l38.92 23.017q-9.76 14.317-18.553 29.134l-14.165 24.332q-7.175 12.068-13.923 25.59L850.73722 672.93l6.576-11.127-74.162-44.01-24.227 40.774q-9.326 15.784 9.207 26.773l49.98 29.791a15.25 15.25 0 0 0 16.086 1.388 67.737 67.737 0 0 0 15.83-15.047 110.55 110.55 0 0 0 16.92 20.091q-19.202 17.493-30.053 17.868a37.683 37.683 0 0 1-21.098-5.623l-63.06-37.413q-28.746-17.053-14.982-40.234l50.698-85.435q8.799-14.797 17.223-31.126l50.987 30.252q25.254-15.126 36.506-23.485l-41.714-24.773q-27.496 12.495-40.958 18.315a104.032 104.032 0 0 0-8.648-18.86q19.946-8.221 38.748-17.757a236.56 236.56 0 0 0 37.249-23.675c4.603 7.76 9.049 15.014 13.396 21.755a223.374 223.374 0 0 0-23.517 9.864z m-47.58 109.63l23.05-38.893-28.74-17.053-23.017 38.886z m45.423 26.963l23.05-38.893-29.686-17.658-23.017 38.92z m0 0" fill="#F56C6C" opacity=".48" p-id="6033"></path></svg>
