<?xml version="1.0" standalone="no"?><!DOCTYPE svg PUBLIC "-//W3C//DTD SVG 1.1//EN" "http://www.w3.org/Graphics/SVG/1.1/DTD/svg11.dtd"><svg t="1586910488287" class="icon" viewBox="0 0 1024 1024" version="1.1" xmlns="http://www.w3.org/2000/svg" p-id="4463" xmlns:xlink="http://www.w3.org/1999/xlink" width="200" height="200"><defs><style type="text/css"></style></defs><path d="M390.71862 72.6c11.5 0.5 22.4 5.3 30.6 13.5L879.21862 544c15.5 15.5 10 46.1-12.3 68.4L544.31862 934.9c-22.3 22.3-52.9 27.8-68.4 12.3L18.01862 489.3c-8.1-8.1-13-19-13.5-30.6-2.8-62.7-10.8-271.4 5-329.9 6.3-23.5 27.9-45 51.3-51.3 58.5-15.8 267.2-7.8 329.9-4.9zM285.01862 227.5c-34.6-34.6-90.8-34.6-125.4 0s-34.6 90.8 0 125.4 90.8 34.6 125.4 0 34.6-90.7 0-125.4z m730.6 317.2L576.31862 105.4C568.51862 97.6 558.01862 93 547.01862 92.5c-24.4-1.1-71.7-3-123.2-3.9l56.4 56.4c25.2 0.8 46.5 1.7 60.2 2.3l424.3 424.3-309 309-28.5-28.5-38.9 38.9 40.5 40.5c5.7 5.7 13.5 8.4 22.2 8.4 14 0 30.2-7.1 43.3-20.2l309.4-309.4c21.4-21.4 26.7-50.8 11.9-65.6z" p-id="4464"></path></svg>