<svg t="1586790604555" class="icon" viewBox="0 0 1024 1024" version="1.1" xmlns="http://www.w3.org/2000/svg" p-id="10965" xmlns:xlink="http://www.w3.org/1999/xlink" width="200" height="200"><defs><style type="text/css"></style></defs><path d="M371.626667 554.666667H160.213333a85.013333 85.013333 0 0 0-84.48 85.333333v213.333333a85.013333 85.013333 0 0 0 84.48 85.333334h211.413334a84.864 84.864 0 0 0 84.48-85.333334V640a84.864 84.864 0 0 0-84.48-85.333333z m0 298.666666H160.213333V640h211.413334v213.333333z m0-768H160.213333a85.013333 85.013333 0 0 0-84.48 85.333334v213.333333a85.013333 85.013333 0 0 0 84.48 85.333333h211.413334a84.864 84.864 0 0 0 84.48-85.333333V170.666667a84.864 84.864 0 0 0-84.48-85.333334z m0 298.666667H160.213333V170.666667h211.413334v213.333333z m465.066666-298.666667h-211.413333a84.864 84.864 0 0 0-84.48 85.333334v213.333333a84.864 84.864 0 0 0 84.48 85.333333h211.413333a85.013333 85.013333 0 0 0 84.48-85.333333V170.666667a85.013333 85.013333 0 0 0-84.48-85.333334z m0 298.666667h-211.413333V170.666667h211.413333v213.333333z m-148.053333 393.898667l181.546667-183.146667 59.733333 60.330667-241.28 243.498666-156.586667-158.165333 59.733334-60.330667z" p-id="10966"></path></svg>