<?xml version="1.0" standalone="no"?><!DOCTYPE svg PUBLIC "-//W3C//DTD SVG 1.1//EN" "http://www.w3.org/Graphics/SVG/1.1/DTD/svg11.dtd"><svg t="1588482521309" class="icon" viewBox="0 0 1024 1024" version="1.1" xmlns="http://www.w3.org/2000/svg" p-id="9811" xmlns:xlink="http://www.w3.org/1999/xlink" width="200" height="200"><defs><style type="text/css"></style></defs><path d="M383.488 3.072h637.952L0 1024V383.488L383.488 3.072z" fill="#F08B56" p-id="9812"></path><path d="M143.36 467.968l-44.032 44.032-26.112-26.112 119.808-119.808 26.112 26.112-44.032 44.032 119.808 119.808-32.256 32.256L143.36 467.968z m166.912-73.216c5.632 5.632 11.776 11.776 20.48 14.848 5.632 5.632 14.848 8.704 23.552 8.704 8.704 3.072 14.848 0 23.552 0 8.704-3.072 14.848-5.632 23.552-14.848 5.632-5.632 11.776-14.848 14.848-23.552 3.072-8.704 3.072-14.848 0-23.552-3.072-8.704-5.632-14.848-8.704-23.552-5.632-5.632-8.704-14.848-14.848-20.48-5.632-5.632-14.848-11.776-20.48-17.408-9.216-5.12-15.36-8.192-24.064-8.192-8.704-3.072-14.848 0-23.552 0-8.704 3.072-14.848 5.632-23.552 14.848-5.632 5.632-11.776 14.848-14.848 23.552-3.072 8.704-3.072 14.848 0 23.552 3.072 8.704 5.632 14.848 8.704 23.552 3.584 8.192 9.216 16.896 15.36 22.528z m-32.256 32.256c-11.776-11.776-20.48-23.552-26.112-35.328-5.632-11.776-8.704-26.112-11.776-37.888 0-14.848 0-26.112 5.632-37.888 5.632-11.776 14.848-26.112 23.552-35.328 11.776-11.776 23.552-20.48 37.888-23.552 11.776-5.632 26.112-5.632 37.888-5.632 14.848 0 26.112 3.072 37.888 11.776 11.776 5.632 23.552 14.848 35.328 26.112 11.776 11.776 20.48 23.552 26.112 35.328 5.632 11.776 8.704 26.112 8.704 37.888 0 11.776-3.072 26.112-5.632 37.888-5.632 11.776-14.848 26.112-23.552 35.328-11.776 11.776-23.552 20.48-35.328 23.552-11.776 5.632-26.112 5.632-37.888 5.632s-26.112-3.072-37.888-8.704c-14.336-8.704-26.112-17.408-34.816-29.184z m193.024-204.8l26.112-26.112c3.072-3.072 5.632-8.704 8.704-11.776 3.072-3.072 5.632-8.704 5.632-11.776v-11.776c0-5.632-3.072-8.704-8.704-14.848-5.632-5.632-8.704-8.704-14.848-8.704H476.16c-3.072 0-8.704 3.072-11.776 5.632-3.072 3.072-8.704 5.632-11.776 8.704l-26.112 26.112c0.512 1.024 44.544 44.544 44.544 44.544z m-102.4-34.816l67.072-67.072c8.704-8.704 17.408-14.848 26.112-20.48 8.704-3.072 17.408-5.632 26.112-5.632 8.704 0 17.408 3.072 23.552 5.632 8.704 3.072 14.848 8.704 20.48 14.848 5.632 5.632 11.776 11.776 14.848 20.48 3.072 8.704 5.632 14.848 5.632 23.552s0 17.408-5.632 26.112c-3.072 8.704-11.776 17.408-20.48 26.112l-29.184 37.888 52.736 52.736-32.256 32.256L368.64 187.392z" fill="#FFFFFF" p-id="9813"></path></svg>