<?xml version="1.0" standalone="no"?><!DOCTYPE svg PUBLIC "-//W3C//DTD SVG 1.1//EN" "http://www.w3.org/Graphics/SVG/1.1/DTD/svg11.dtd"><svg t="1591432208835" class="icon" viewBox="0 0 1024 1024" version="1.1" xmlns="http://www.w3.org/2000/svg" p-id="5818" xmlns:xlink="http://www.w3.org/1999/xlink" width="200" height="200"><defs><style type="text/css"></style></defs><path d="M792 688c-40 0-76.8 17.6-102.4 46.4l-265.6-152c16-25.6 24-54.4 24-86.4 0-22.4-4.8-43.2-11.2-62.4l254.4-144c25.6 28.8 60.8 46.4 100.8 46.4 75.2 0 136-60.8 136-136S867.2 64 792 64 656 124.8 656 200c0 11.2 1.6 22.4 4.8 33.6l-257.6 145.6c-32-35.2-78.4-59.2-131.2-59.2-97.6 0-176 78.4-176 176s78.4 176 176 176c41.6 0 80-14.4 110.4-38.4l278.4 158.4c-3.2 11.2-4.8 20.8-4.8 32 0 75.2 60.8 136 136 136s136-60.8 136-136-60.8-136-136-136z m0-560C832 128 864 160 864 200S832 272 792 272 720 240 720 200 752 128 792 128zM272 606.4c-60.8 0-110.4-49.6-110.4-110.4 0-60.8 49.6-110.4 110.4-110.4s110.4 49.6 110.4 110.4c0 60.8-49.6 110.4-110.4 110.4zM792 896C752 896 720 864 720 824s32-72 72-72 72 32 72 72-32 72-72 72z" p-id="5819"></path></svg>