<?xml version="1.0" standalone="no"?><!DOCTYPE svg PUBLIC "-//W3C//DTD SVG 1.1//EN" "http://www.w3.org/Graphics/SVG/1.1/DTD/svg11.dtd"><svg t="1591451991145" class="icon" viewBox="0 0 1024 1024" version="1.1" xmlns="http://www.w3.org/2000/svg" p-id="20925" xmlns:xlink="http://www.w3.org/1999/xlink" width="200" height="200"><defs><style type="text/css"></style></defs><path d="M720.492 363.626c-154.418 0-279.618 125.194-279.618 279.609 0 154.415 125.201 279.61 279.618 279.61 154.422 0 279.625-125.195 279.625-279.61 0-154.414-125.202-279.61-279.625-279.61z m0 506.794c-125.472 0-227.191-101.714-227.191-227.183 0-125.47 101.718-227.183 227.191-227.183 125.477 0 227.198 101.712 227.198 227.183 0 125.469-101.72 227.183-227.198 227.183zM455.649 832.769v6.914H287.83v55.937h226.864a327.588 327.588 0 0 1-59.045-62.851z" fill="#67c23a" p-id="20926"></path><path d="M396.087 671.872h-230.37V225.4h691.74v122.317c38.572 17.908 73.047 43.139 101.645 73.914V127.85H64.072v638.5h354.853c-12.087-29.57-19.947-61.31-22.838-94.478z" fill="#67c23a" p-id="20927"></path><path d="M844.82 516.05L690.765 669.968l-71.869-71.825-51.377 51.319 123.246 123.165 205.432-205.276z" fill="#67c23a" p-id="20928"></path></svg>