<?xml version="1.0" standalone="no"?><!DOCTYPE svg PUBLIC "-//W3C//DTD SVG 1.1//EN" "http://www.w3.org/Graphics/SVG/1.1/DTD/svg11.dtd"><svg t="1567561265054" class="icon" viewBox="0 0 1024 1024" version="1.1" xmlns="http://www.w3.org/2000/svg" p-id="1647" xmlns:xlink="http://www.w3.org/1999/xlink" width="200" height="200"><defs><style type="text/css"></style></defs><path d="M951.296 75.264H78.848c-25.6 0-46.592 20.992-46.592 46.592V744.96c0 25.6 20.992 46.592 46.592 46.592h295.936v77.824l-62.464 62.976v15.36h267.264C488.96 897.024 427.52 800.256 427.52 689.152c0-7.168 0.512-14.336 1.024-22.016H94.208v-529.92h841.728v345.6c26.624 27.136 47.616 59.904 62.464 95.744V121.856c0-25.6-20.992-46.592-47.104-46.592z" fill="#04B543" p-id="1648"></path><path d="M488.448 691.712a241.152 241.152 0 1 0 482.304 0 241.152 241.152 0 1 0-482.304 0z" fill="#04B543" p-id="1649"></path><path d="M694.784 814.08l-5.12 4.608c-8.704 7.68-22.016 6.144-29.696-2.56L563.2 701.44c-7.68-8.704-6.144-22.016 2.56-29.696l5.12-4.608c8.704-7.68 22.016-6.144 29.696 2.56l96.768 114.688c7.68 9.216 6.656 22.528-2.56 29.696z" fill="#FFFFFF" p-id="1650"></path><path d="M662.016 818.688l-4.608-5.12c-7.68-8.704-6.144-22.016 2.56-29.696L879.616 599.04c8.704-7.68 22.016-6.144 29.696 2.56l4.608 5.12c7.68 8.704 6.144 22.016-2.56 29.696L691.712 821.248c-8.704 7.168-22.016 6.144-29.696-2.56z" fill="#FFFFFF" p-id="1651"></path></svg>