<svg id="图层_1" data-name="图层 1" xmlns="http://www.w3.org/2000/svg" viewBox="0 0 64 64"><defs><style>.cls-1,.cls-2{fill:#6949e2;}.cls-1{opacity:0.5;}</style></defs><title>img_画板 13</title><path class="cls-1" d="M38,8a5,5,0,0,0-3.16,1.13,4,4,0,0,0-6-4.49A6,6,0,0,0,17.77,3.13a4,4,0,1,0,0,5.8c.08.15.17.29.26.43a4,4,0,0,0,5.46,5.79,5,5,0,0,0,9.3-3.56,4,4,0,0,0,.52-.31A5,5,0,1,0,38,8ZM7,8a2,2,0,1,0,2,2A2,2,0,0,0,7,8ZM7,8"/><path class="cls-2" d="M47.12,22V20H18.87v2S20.05,44.48,11,56H55c-9-11.48-7.85-34-7.85-34Zm0,0"/><path class="cls-2" d="M55,56H11a4,4,0,1,0,0,8H55a4,4,0,1,0,0-8ZM47,14H19a4,4,0,1,0,0,8H47a4,4,0,0,0,0-8Zm0,0"/></svg>