<svg id="图层_1" data-name="图层 1" xmlns="http://www.w3.org/2000/svg" viewBox="0 0 64 64"><defs><style>.cls-1{fill:#99e81c;}</style></defs><title>img_画板 15</title><path class="cls-1" d="M31.86,9.17C27,9.17,22,13.63,23,18.92c2.15,11.94,6.87,33.64,8.88,35.69,1.94-1.5,6.43-22.25,8.88-35.69,1-5.3-3.94-9.75-8.88-9.75ZM13.05,28.82c-3-2.08-10.26-4.46-12.2.73C-3.71,41.75,11.3,40.88,16.63,42.81c4.6,1.68,8.73,9.53,9.72,11.54.15.29.22.47.22.47l.55-3.18c.44-7.16-9.75-19.87-14.06-22.83Zm50.44,3c-1.46-5.11-8.8-3.58-11.94-1.9-4.49,2.41-15.71,13.52-16,20.38l.26,3.1A3.17,3.17,0,0,0,36.1,53c1.17-1.83,5.92-8.88,10.63-10,5.44-1.35,20.16,1,16.77-11.1Zm0,0"/></svg>