<svg id="图层_1" data-name="图层 1" xmlns="http://www.w3.org/2000/svg" viewBox="0 0 64 64"><defs><style>.cls-1{fill:aqua;}</style></defs><title>img_画板 17</title><path class="cls-1" d="M32.5,22.54A16.59,16.59,0,0,0,16.59,10.67q-.59,0-1.18,0a21.33,21.33,0,0,1,39,9.65,11.85,11.85,0,0,1-2.26,23.49H16.59v0c-.39,0-.79,0-1.19,0a15.41,15.41,0,1,1,14.24-21.3M13,48Q19,52.44,19,56.89a5.93,5.93,0,0,1-11.85,0Q7.11,52.37,13,48Zm19,0q5.92,4.44,5.93,8.89a5.93,5.93,0,0,1-11.85,0q0-4.52,5.93-8.89Zm19,0q5.92,4.44,5.93,8.89a5.93,5.93,0,0,1-11.85,0Q45,52.37,51,48Zm0,0"/></svg>