<svg id="图层_1" data-name="图层 1" xmlns="http://www.w3.org/2000/svg" viewBox="0 0 64 64"><defs><style>.cls-1{fill:#0084ff;}</style></defs><title>img_画板 18</title><path class="cls-1" d="M32.85.49,46,8.15a1.68,1.68,0,0,1,.84,1.46V24.94A1.68,1.68,0,0,1,46,26.4L32.85,34.06a1.69,1.69,0,0,1-1.69,0L18,26.4a1.68,1.68,0,0,1-.84-1.46V9.61A1.69,1.69,0,0,1,18,8.15L31.15.49a1.68,1.68,0,0,1,1.69,0ZM15.7,29.94,28.86,37.6a1.68,1.68,0,0,1,.84,1.45V54.39a1.68,1.68,0,0,1-.84,1.45L15.7,63.51a1.68,1.68,0,0,1-1.69,0L.84,55.85A1.68,1.68,0,0,1,0,54.39V39.06A1.68,1.68,0,0,1,.84,37.6L14,29.94a1.68,1.68,0,0,1,1.69,0Zm34.3,0L63.16,37.6A1.68,1.68,0,0,1,64,39.06V54.39a1.68,1.68,0,0,1-.84,1.45L50,63.51a1.68,1.68,0,0,1-1.69,0L35.14,55.85a1.68,1.68,0,0,1-.84-1.45V39.06a1.68,1.68,0,0,1,.84-1.45L48.3,29.94a1.68,1.68,0,0,1,1.69,0Zm0,0"/></svg>