<svg id="图层_1" data-name="图层 1" xmlns="http://www.w3.org/2000/svg" viewBox="0 0 64 64"><defs><style>.cls-1{fill:#00ff42;}</style></defs><title>img_画板 16</title><path class="cls-1" d="M6.58,51.31c-2-19.14,4.28-28.3,13.25-33.87C31,10.47,42.37,9.8,51.26,1.94c5.37-4.75,6.62.6,6.75,1.46C59.92,16,56.82,29.51,44.66,39c-13.26,10.38-31.23,3.61-37,24.23a.46.46,0,0,1-.31.32L6,64a.45.45,0,0,1-.43-.1.46.46,0,0,1-.14-.42A60.21,60.21,0,0,1,16.86,38C22.12,31.09,29,24.91,37.29,19.16a.64.64,0,0,0-.67-1.09A73.67,73.67,0,0,0,19.4,30.87,60.52,60.52,0,0,0,6.58,51.31Zm0,0"/></svg>