<svg id="图层_1" data-name="图层 1" xmlns="http://www.w3.org/2000/svg" viewBox="0 0 60 60"><title>保温防火材料</title><path d="M14.19.11H2.84A2.84,2.84,0,0,0,0,3v54.1a2.83,2.83,0,0,0,2.84,2.83H14.19A2.84,2.84,0,0,0,17,57V3A2.84,2.84,0,0,0,14.19.11ZM11.34,54.21H5.68V5.79h5.66Z"/><path d="M51,16.91a1.47,1.47,0,0,0-1.68,0,1.54,1.54,0,0,0-.42,1.68,8.06,8.06,0,0,1,.56,2c-3.79-8.84-10.1-10.8-10.38-10.94a1.35,1.35,0,0,0-1.26.28,1.13,1.13,0,0,0-.42,1.26c.56,3.79-1.12,8.28-5.05,13.61a14.07,14.07,0,0,0-1.4-3.51,1.67,1.67,0,0,0-1.54-.56A1.23,1.23,0,0,0,28.28,22,15.74,15.74,0,0,1,26,28.13,21.63,21.63,0,0,0,23.65,34c-1.4,6.73,1.54,11.64,9.82,16.13a1.26,1.26,0,0,0,.7.14,1.73,1.73,0,0,0,1.12-.56,1.38,1.38,0,0,0-.42-2l-.14-.14c-8.28-4.63-9.4-8.42-8.42-13a26.88,26.88,0,0,1,2.1-5.19,10.62,10.62,0,0,0,1.26-2.53c0,.42.14,1,.14,1.4a1.35,1.35,0,0,0,1,1.26,1.58,1.58,0,0,0,1.54-.42c4.91-5.89,7.58-11.22,7.86-16,2.24,1.4,6,4.77,8,11.92a1.39,1.39,0,0,0,1,1,1.35,1.35,0,0,0,1.26-.28A5.72,5.72,0,0,0,52.27,22c2.38,2.95,5,7.72,4.77,12.62-.28,4.07-2.52,7.58-6.59,10.66C52,38,49,29.54,42.59,25.19a1.66,1.66,0,0,0-1.4-.14,1.47,1.47,0,0,0-.7,1.26c-.14,3.93-2.1,6.31-3.93,8.7-1.54,2-3.09,3.93-3.37,6.59a1.64,1.64,0,0,0,1.26,1.54A1.41,1.41,0,0,0,36,41.88c.14-1.82,1.4-3.37,2.67-5.05a20.13,20.13,0,0,0,4.21-7.72c5,4.77,6.73,13.19,3.65,19.08v.14c0,.14,0,.14-.14.28v.56c0,.14,0,.14.14.28v.14l.14.14c0,.14.14.14.14.28a.49.49,0,0,0,.28.14l.14.14a.14.14,0,0,1,.14.14h.84a.52.52,0,0,0,.42-.14C55.78,46.37,59.7,41.18,60,35.15c.42-9.4-7.43-17.25-9-18.24Zm0,0"/></svg>