<svg id="图层_1" data-name="图层 1" xmlns="http://www.w3.org/2000/svg" viewBox="0 0 60 60"><defs></defs><title>包装材料</title><path class="cls-1" d="M60,11.88a1.88,1.88,0,0,0-1.16-2L34.6.14A1.86,1.86,0,0,0,33.86,0a1.84,1.84,0,0,0-.62.07L1.36,9.21A1.88,1.88,0,0,0,0,11s0,.07,0,.11V45.27a1.88,1.88,0,0,0,1.08,1.78l27,12.58a1.85,1.85,0,0,0,1.12.37h.16a1.86,1.86,0,0,0,.84-.16L58.88,47.07A1.86,1.86,0,0,0,60,45.29s0-.07,0-.11V12.09c0-.06,0-.13,0-.21ZM33.73,3.83l18.86,7.62L48.65,13,29.12,5.16Zm-10.47,3,20.38,8.23-3.15,1.27L18.29,8.26Zm23.53,11V25l-4.17,1.68V19.53ZM27.31,55.14l-23.56-11V14.45L27.31,24Zm2.21-34.36-.13,0L6.69,11.59,12.16,10,35.3,18.44ZM56.25,44.14,31.06,55.35V24.21L38.87,21v8.17A1.8,1.8,0,0,0,39,30l0,.12a1.88,1.88,0,0,0,2.44,1L49.36,28a1.89,1.89,0,0,0,1.17-1.83V16.34L56.25,14Zm0,0"/></svg>