<svg id="图层_1" data-name="图层 1" xmlns="http://www.w3.org/2000/svg" viewBox="0 0 60 60"><title>电子电器检测</title><path d="M53.76,17.5h5a1.24,1.24,0,1,1,0,2.49h-5V17.5Zm0,7.51h5a1.24,1.24,0,1,1,0,2.49h-5Zm0,7.51h5a1.24,1.24,0,0,1,0,2.49h-5Zm0,7.51h5a1.24,1.24,0,0,1,0,2.49h-5ZM1.24,17.5h5V20h-5A1.24,1.24,0,0,1,0,18.77,1.22,1.22,0,0,1,1.24,17.5Zm0,7.51h5v2.51h-5a1.26,1.26,0,0,1,0-2.51Zm0,7.51h5V35h-5A1.24,1.24,0,0,1,0,33.77a1.21,1.21,0,0,1,1.24-1.24Zm0,7.51h5v2.51h-5A1.24,1.24,0,0,1,0,41.3,1.22,1.22,0,0,1,1.24,40ZM51.1,13.79a5,5,0,0,0-5-5H13.68a5,5,0,0,0-5,5V46.21a5,5,0,0,0,5,5h32.4a5,5,0,0,0,5-5V13.79ZM46.25,49H13.75a2.64,2.64,0,0,1-2.62-2.73V28.57H28.76a1.16,1.16,0,0,0,.67-.18l8-5.8A3.84,3.84,0,0,0,39,23a3.77,3.77,0,1,0-3.29-2l-7.33,5.33H11.13V13.75A2.64,2.64,0,0,1,13.75,11H46.25a2.64,2.64,0,0,1,2.62,2.73v17.7H31.24a1.11,1.11,0,0,0-.67.18l-8,5.82a3.84,3.84,0,0,0-1.6-.38,3.77,3.77,0,1,0,3.29,2l7.33-5.33H48.88v12.6A2.63,2.63,0,0,1,46.25,49Zm0,0"/></svg>