<svg id="图层_1" data-name="图层 1" xmlns="http://www.w3.org/2000/svg" viewBox="0 0 60 60"><title>电线电缆检测</title><path d="M60.18,30.18A30.18,30.18,0,1,0,12.1,54.48c.26.19.84.51.84.51a3.79,3.79,0,0,0,1.37.53,2.12,2.12,0,0,0,1-4h0a26,26,0,1,1,37.43-9.09h0c-.4.75-.85,1.46-1.32,2.15-.18.27-.36.53-.55.79-.48.66-1,1.31-1.51,1.93a26.23,26.23,0,0,1-2.08,2.11c-.48.43-1,.81-1.49,1.2s-1,.78-1.59,1.14-1,.66-1.52,1a25.29,25.29,0,0,1-3,1.42c-.53.21-1.08.39-1.62.57-.75.25-1.51.46-2.29.64-.47.11-.94.24-1.42.32-6.23.62-10.41-2.42-11.79-5.79a6.59,6.59,0,0,1,.53-6.06,10.48,10.48,0,0,0,4.92,1.27,10.6,10.6,0,0,0,7.7-3.34l6.87-7.34L40.26,31.8l4.64-4.64a2.14,2.14,0,1,0-3-3l-4.51,4.51-4-4.33L37.73,20a2.14,2.14,0,0,0-3-3l-4.21,4.21-2.17-2.36-8,8.5A10.53,10.53,0,0,0,19.78,41a10.85,10.85,0,0,0-1.13,10.5C20.46,55.91,25.42,60,32.9,60c.66,0,1.34-.06,2-.12v0l.24-.05.25,0v0c.42-.08.84-.19,1.26-.29.64-.15,1.29-.28,1.91-.47.32-.09.63-.22.94-.33.6-.2,1.21-.39,1.79-.63a29.89,29.89,0,0,0,3.5-1.68c.57-.32,1.11-.69,1.66-1.05s1.35-.93,2-1.43,1.1-.84,1.61-1.3a31.45,31.45,0,0,0,2.52-2.55c.57-.65,1.09-1.35,1.61-2.06q.43-.58.83-1.19c.51-.77,1-1.55,1.46-2.38l-.08,0a29.69,29.69,0,0,0,3.74-14.23Zm-36.69,0,4.81-5.12,8.51,9.26-4.16,4.43a6.42,6.42,0,0,1-8.86.29,6.27,6.27,0,0,1-.29-8.86Zm0,0"/></svg>