<svg id="图层_1" data-name="图层 1" xmlns="http://www.w3.org/2000/svg" viewBox="0 0 60 60"><title>电器相关检测</title><path d="M46.84,16.78H41.78V1.66a1.68,1.68,0,0,0-3.37,0V16.78H21.58V1.66a1.68,1.68,0,0,0-3.37,0V16.78H13.16a6.71,6.71,0,0,0-6.73,6.65V53.35A6.71,6.71,0,0,0,13.16,60H46.84a6.71,6.71,0,0,0,6.73-6.65V23.43a6.71,6.71,0,0,0-6.73-6.65ZM50.2,53.35a3.35,3.35,0,0,1-3.36,3.32H13.15a3.35,3.35,0,0,1-3.36-3.32V23.43a3.35,3.35,0,0,1,3.36-3.33H46.84a3.35,3.35,0,0,1,3.36,3.33V53.35ZM38.18,37H25.68l4.76-6.7L33.51,26A1.55,1.55,0,1,0,31,24.24l-.53.75-9,12.69a1.55,1.55,0,0,0,1.27,2.42H35.19l-4.76,6.7-3.07,4.32a1.55,1.55,0,1,0,2.54,1.76l.54-.75,9-12.69A1.55,1.55,0,0,0,38.18,37Zm0,0"/></svg>