<svg id="图层_1" data-name="图层 1" xmlns="http://www.w3.org/2000/svg" viewBox="0 0 60 60"><title>纺织品检测</title><path d="M51.95,16.06V43.94l4.7,5.84a6.17,6.17,0,0,1,.67,6.68A6.54,6.54,0,0,1,51.45,60H8.55a6.52,6.52,0,0,1-5.94-3.68,6.14,6.14,0,0,1,1-6.78L8,43.88V16.12l-4.4-5.66a6.14,6.14,0,0,1-1-6.78A6.52,6.52,0,0,1,8.55,0h42.9a6.54,6.54,0,0,1,5.87,3.54,6.17,6.17,0,0,1-.67,6.68ZM12,28v4H47.92V28Zm35.95-4V20H12v4ZM12,36v4H47.92V36ZM6.71,52.12a2.26,2.26,0,0,0-.35,2.52A2.4,2.4,0,0,0,8.55,56h42.9a2.4,2.4,0,0,0,2.17-1.32,2.23,2.23,0,0,0-.25-2.46l-2.26-2.86A8.26,8.26,0,0,1,43.78,54C39,54,28.07,50.74,25.52,50.74a9.25,9.25,0,0,0-6.73,2.7C17,54.88,15,52,16.61,50.5a13.06,13.06,0,0,1,8.78-3.44c5.57,0,14,2.94,18.4,2.94a4.52,4.52,0,0,0,4.09-4c0-2-1.25-2-4.09-2H12a2.84,2.84,0,0,1-.71,2.2ZM53.62,5.32A2.4,2.4,0,0,0,51.45,4H8.55a2.4,2.4,0,0,0-2.2,1.36,2.26,2.26,0,0,0,.35,2.52l4.55,5.9A2.89,2.89,0,0,1,12,16H48a2.93,2.93,0,0,1,.6-2.12l4.81-6.1a2.23,2.23,0,0,0,.25-2.46Zm0,0"/></svg>