<svg id="图层_1" data-name="图层 1" xmlns="http://www.w3.org/2000/svg" viewBox="0 0 60 60"><title>轨道交通检测</title><path d="M48,49.32H44.78l6.12,8.42a1.42,1.42,0,1,1-2.3,1.67l-1.82-2.5H13.22l-1.82,2.5a1.42,1.42,0,1,1-2.3-1.67l6.12-8.42H12a3.79,3.79,0,0,1-3.79-3.79v-36A9.48,9.48,0,0,1,17.67,0H42.33a9.48,9.48,0,0,1,9.49,9.48v36A3.79,3.79,0,0,1,48,49.32ZM46.09,56,44,53.12H16L13.91,56ZM18.65,49.44l-2,2.73H43.33l-2-2.73a1.09,1.09,0,0,1-.05-.12H18.7a1.1,1.1,0,0,1-.05.12ZM49,9.48a6.64,6.64,0,0,0-6.64-6.64H17.67A6.64,6.64,0,0,0,11,9.48V44.58a1.9,1.9,0,0,0,1.9,1.9H47.07a1.9,1.9,0,0,0,1.9-1.9Zm-7.59,31.3A3.79,3.79,0,1,1,45.18,37a3.79,3.79,0,0,1-3.79,3.79Zm2.85-16.12H15.77a1,1,0,0,1-.95-.95V13.28a5.69,5.69,0,0,1,5.69-5.69h19a5.69,5.69,0,0,1,5.69,5.69V23.71a1,1,0,0,1-.95.95ZM29.05,10.43H20.52a2.85,2.85,0,0,0-2.85,2.85v8.54H29.05Zm13.28,2.85a2.85,2.85,0,0,0-2.85-2.85H31.9V21.82H42.33ZM18.62,33.2A3.79,3.79,0,1,1,14.82,37a3.79,3.79,0,0,1,3.79-3.79Zm0,0"/></svg>