<svg id="图层_1" data-name="图层 1" xmlns="http://www.w3.org/2000/svg" viewBox="0 0 60 60"><title>化工产品</title><path d="M13.57,60a7.75,7.75,0,0,1-7.9-7.9c0-2.65,0-5.31,0-8,0-6.9.1-14.07,0-21.11-.07-4.48,2.92-9.16,8.79-9.36a2.59,2.59,0,0,0,2.65-1.46,3.15,3.15,0,0,0,.13-.6H15c-.43,0-.86,0-1.29,0h-.2a1.64,1.64,0,0,1-1.26-.43,1.77,1.77,0,0,1-.4-1.33c0-1.06,0-2.12,0-3.19s0-2.22,0-3.32C12,1.13,13.11,0,15.4,0c7.7,0,15.37,0,23,0h3c1.1,0,2.22,0,3.32,0a3.1,3.1,0,0,1,3.42,3.29c0,1.29,0,2.59,0,3.85v3a1.55,1.55,0,0,1-.33,1.09,1.39,1.39,0,0,1-1.06.36h-4A2.35,2.35,0,0,0,45,13.64l.66.1a14.92,14.92,0,0,1,4,1c4.21,2,4.68,6,4.65,8.86l0,5.71c0,3.58-.07,7.14-.07,10.72,0,4,0,8,0,12A7.74,7.74,0,0,1,46.39,60ZM9.16,52.1a4.39,4.39,0,0,0,4.41,4.28H46.33a4.31,4.31,0,0,0,4.31-4.25V25.39H9.16ZM50.77,21.67c0-.17-.1-.3-.13-.46A6.92,6.92,0,0,0,50,19.55c-1.13-1.92-3.12-2.36-4.94-2.49-3.52-.3-5.31-1.92-6-5.44h-6.5c-3.39,0-7.4,0-11.35.07a1.58,1.58,0,0,0-.56.76,5.86,5.86,0,0,1-5.38,4.61c-.66,0-1.33.13-2,.23a4.65,4.65,0,0,0-4,4.38ZM26.25,7.9a10.29,10.29,0,0,0,1.36.17c.5,0,.56,0,.6-1.86V4c0-.33-.07-.43-.1-.46s-.27-.07-.43-.07h-.83a.73.73,0,0,0-.46.1.91.91,0,0,0-.1.53c0,.93,0,1.83,0,2.75,0,.33,0,.7,0,1.06ZM42.61,8H43c.4,0,.8,0,1.19-.07a.84.84,0,0,0,.46-.43c.07-1.23.07-2.49,0-3.72,0-.43-.13-.43-.37-.43a1.49,1.49,0,0,0-.36,0c-.13,0-.27,0-.4,0H43c-.27,0-.36,0-.36.43V8ZM15.53,8c.33,0,.66,0,1,0s.43,0,.66,0V3.55H15.4V8Zm23.56,0V3.55H37.3V7.93Zm-5.58,0V3.42h-.33c-.36,0-.73,0-1.09.07a1.14,1.14,0,0,0-.4.3c0,1.1,0,2.26,0,3.42V8h1.86Zm-10.79,0V3.42h-.8a3.05,3.05,0,0,0-.63.07,1.15,1.15,0,0,0-.5.36c-.07,1.1,0,2.26,0,3.35v.73h2Zm0,0"/></svg>