<svg id="图层_1" data-name="图层 1" xmlns="http://www.w3.org/2000/svg" viewBox="0 0 60 60"><title>化工助剂</title><path d="M26.41,0H5.6a2,2,0,1,0,0,4h.81V50.4a9.6,9.6,0,0,0,19.2,0V4h.81a2,2,0,1,0,0-4ZM21.61,50.41a5.6,5.6,0,0,1-11,1.41A5.48,5.48,0,0,0,12,52a5.57,5.57,0,0,0,5.56-5.57V41.29h4.08Zm0-13.1H13.56v9.14a1.58,1.58,0,1,1-3.16,0V4H21.61ZM54.39,0H33.58a2,2,0,0,0,0,4h.81V50.4a9.6,9.6,0,0,0,19.2,0V4h.81a2,2,0,1,0,0-4ZM49.59,50.41a5.6,5.6,0,0,1-11,1.41,5.5,5.5,0,0,0,7-5.38V18.17h4.07Zm0-36.22H41.54V46.44a1.58,1.58,0,1,1-3.16,0V4H49.59V14.18Zm0,0"/></svg>