<svg id="图层_1" data-name="图层 1" xmlns="http://www.w3.org/2000/svg" viewBox="0 0 60 60"><title>化工原料</title><path d="M56.25,7.5h-7.5A3.75,3.75,0,0,0,45,11.25v22.5H37.5V1.87a1.87,1.87,0,0,0-3.75,0V26.25h-7.5V22.5a3.75,3.75,0,0,0-3.75-3.75H3.75A3.75,3.75,0,0,0,0,22.5V56.25A3.75,3.75,0,0,0,3.75,60V22.5H22.5V60a3.75,3.75,0,0,0,3.75-3.75V45h7.5V58.13a1.87,1.87,0,0,0,3.75,0V52.5H45v3.75A3.75,3.75,0,0,0,48.75,60V11.25h7.5V60A3.75,3.75,0,0,0,60,56.25v-45A3.75,3.75,0,0,0,56.25,7.5ZM33.75,41.25h-7.5V30h7.5ZM45,48.75H37.5V37.5H45Zm0,0"/><path d="M7.5,39.5a5.62,5.62,0,0,0,11.25,0c0-3.11-5.62-9.38-5.62-9.38S7.5,36.39,7.5,39.5ZM15,41.37H11.25V37.62H15Zm0,0"/></svg>