<svg id="图层_1" data-name="图层 1" xmlns="http://www.w3.org/2000/svg" viewBox="0 0 60 60"><title>环境可靠性检测</title><path d="M50.55,8.81a2.38,2.38,0,0,0-2.43-.46L41,11.84a1.92,1.92,0,0,0-.91,2.73,1.92,1.92,0,0,0,2.73.91l5.77-2.89c2.89,3.49,10.48,14.74,2.58,26.13a13.94,13.94,0,0,1-9.72,5.62,2,2,0,0,0-1.82,2.28,2.13,2.13,0,0,0,2.13,1.82H42a18,18,0,0,0,12.61-7.29C66.2,25.06,50.7,9.11,50.55,8.81"/><path d="M40.68,40.25c8.2-13.52-12-38.43-12.76-39.5A2.16,2.16,0,0,0,25.48.15,63,63,0,0,0,12,9.26c-8.66,7.9-12.15,17-10.48,26.43,1.37,6.84,7.44,12,16,13.52a15,15,0,0,0,2.58.3,25.29,25.29,0,0,0,1.67,9.11,2,2,0,0,0,2,1.37,1.37,1.37,0,0,0,.76-.15,2.08,2.08,0,0,0,1.22-2.73,28.69,28.69,0,0,1-1.37-7.75c6.38-.3,12.76-3.19,16.41-9.11M18.19,45.11C12.88,44.2,6.8,41,5.74,34.93,2.55,18.53,20.47,7.59,25.64,4.86,31.41,12.3,42.35,29.62,37,38.12c-3.8,6.38-12.15,8.2-18.84,7"/><path d="M21.53,36.45a2.08,2.08,0,0,0-2.13,2.13v2.13a2.13,2.13,0,0,0,4.25,0V38.58a2.42,2.42,0,0,0-2.13-2.13m-6.38-19A2.08,2.08,0,0,0,13,19.59v2.13a2.13,2.13,0,0,0,4.25,0V19.59a2.28,2.28,0,0,0-2.13-2.13m13.82,0a2.08,2.08,0,0,0-2.13,2.13v2.13a2.13,2.13,0,0,0,4.25,0V19.59A2.08,2.08,0,0,0,29,17.46m-1.82,8.05a2.16,2.16,0,0,0-2.89.61A3.14,3.14,0,0,1,22,27.49a3,3,0,0,1-2.28-1.37,2.09,2.09,0,1,0-3.49,2.28A7,7,0,0,0,22,31.59a7.19,7.19,0,0,0,5.77-3.19,2,2,0,0,0-.61-2.89"/></svg>