<svg id="图层_1" data-name="图层 1" xmlns="http://www.w3.org/2000/svg" viewBox="0 0 60 60"><title>化妆品检测</title><path d="M29.84,30l.32.07ZM17.41,27.69h-.66V22.36a1.14,1.14,0,0,0-1.14-1.14h-.1V10.31a1.14,1.14,0,0,0-.63-1L6,4.86a1.14,1.14,0,0,0-1.66,1V21.22h-.1a1.14,1.14,0,0,0-1.14,1.14v5.33H2.47a1.14,1.14,0,0,0-1.14,1.14v30A1.14,1.14,0,0,0,2.47,60H17.41a1.14,1.14,0,0,0,1.14-1.14v-30a1.14,1.14,0,0,0-1.14-1.14ZM6.66,7.74,13.23,11v10.2H6.66ZM5.42,23.5h9v4.19h-9ZM16.27,57.71H3.62V30H16.27ZM57.53,46.4H20.37a1.14,1.14,0,0,0,0,2.29H55.71l-.26.54a8.72,8.72,0,0,1-7.82,4.91H20.37a1.14,1.14,0,1,0,0,2.29H47.62a11,11,0,0,0,9.88-6.21L58.56,48a1.14,1.14,0,0,0-1-1.64Zm-39.79-38A23,23,0,1,1,48.11,43a1.14,1.14,0,1,0,1.47,1.76,25.3,25.3,0,1,0-33.4-38,1.14,1.14,0,0,0,1.55,1.68Zm0,0"/><path d="M33.37,7A18.26,18.26,0,1,1,21.14,38.86a1.14,1.14,0,0,0-1.53,1.7,20.55,20.55,0,1,0-2.8-27.43A1.14,1.14,0,1,0,17.6,15a1.14,1.14,0,0,0,1-.46A18.34,18.34,0,0,1,33.37,7Zm0,0"/><path d="M45.95,16.29,25.08,37.17a1.14,1.14,0,0,0,1.62,1.62L47.57,17.91a1.14,1.14,0,0,0-1.62-1.62Zm-14.52,21a1.14,1.14,0,1,0,1.62,1.62L48.72,23.25a1.14,1.14,0,0,0-1.62-1.62Zm0,0"/></svg>