<svg id="图层_1" data-name="图层 1" xmlns="http://www.w3.org/2000/svg" viewBox="0 0 60 60"><title>建筑原材检测</title><path d="M58.13,5.63H1.87A1.87,1.87,0,0,0,0,7.5V18.75a1.87,1.87,0,0,0,1.87,1.87H58.13A1.87,1.87,0,0,0,60,18.75V7.5a1.87,1.87,0,0,0-1.87-1.87Zm-30,11.25H3.75V9.38H28.13Zm28.12,0H31.88V9.38H56.25v7.5Zm-43.13,30H24.38A1.87,1.87,0,0,0,26.25,45V33.75a1.88,1.88,0,0,0-1.87-1.87H13.12a1.88,1.88,0,0,0-1.87,1.87V45a1.87,1.87,0,0,0,1.87,1.87ZM15,35.63h7.5v7.5H15ZM35.63,46.87H46.88A1.87,1.87,0,0,0,48.75,45V33.75a1.88,1.88,0,0,0-1.87-1.87H35.63a1.88,1.88,0,0,0-1.87,1.87V45a1.87,1.87,0,0,0,1.87,1.87ZM37.5,35.63H45v7.5H37.5v-7.5Zm0,0"/><path d="M58.13,24.38H1.87A1.87,1.87,0,0,0,0,26.25v5.62H1.87a1.88,1.88,0,0,1,1.88,1.87V45a1.87,1.87,0,0,1-1.88,1.87H0V52.5a1.87,1.87,0,0,0,1.87,1.87H58.13A1.87,1.87,0,0,0,60,52.5V46.87H58.13A1.87,1.87,0,0,1,56.25,45V33.75a1.88,1.88,0,0,1,1.87-1.87H60V26.25a1.87,1.87,0,0,0-1.87-1.88Zm-1.87,4.07a5.64,5.64,0,0,0-3.75,5.3V45a5.63,5.63,0,0,0,3.75,5.3v.32H3.75V50.3A5.63,5.63,0,0,0,7.5,45V33.75a5.64,5.64,0,0,0-3.75-5.3v-.32h52.5Zm0,0"/></svg>