<svg id="图层_1" data-name="图层 1" xmlns="http://www.w3.org/2000/svg" viewBox="0 0 60 60"><title>金属原材检测</title><path d="M47.17,30.54c0-.13,0-.18-.09-.22-.84-1.78-1.73-3.56-2.58-5.34-.13-.31-.36-.31-.62-.23-1.83.54-3.65,1-5.47,1.52a.63.63,0,0,0-.49.49c-.4,1.33-.8,2.62-1.2,4-.18.62-.36,1.29-.58,2,3.73-.71,7.38-1.43,11-2.14ZM20.35,10.13c.13.13.22.18.26.27L36.9,23.34a.82.82,0,0,0,.66.14c1.25-.31,2.49-.67,3.74-1a4.91,4.91,0,0,1,.62-.18c-1.33-1-2.58-2-3.82-2.94-4.31-3.34-8.63-6.63-12.94-10a1.26,1.26,0,0,0-.49-.22c-1.43.27-2.8.63-4.32,1ZM33.21,32a1.7,1.7,0,0,0,.18-.49c.53-1.74,1-3.52,1.6-5.25.18-.49,0-.71-.36-1L21.06,14.49c-1.15-.93-2.31-1.82-3.47-2.76a1.63,1.63,0,0,0-.18.4c-.67,1.64-1.34,3.29-2,4.93a.61.61,0,0,0,.22.89c4.76,3.78,9.52,7.6,14.28,11.43C31,30.23,32,31.12,33.21,32ZM26.49,6.52c1.15.85,12.85,10,19.34,15a2.43,2.43,0,0,1,.62.76c1.38,2.85,2.8,5.69,4.14,8.58a1.45,1.45,0,0,1-1.25,2.22c-1.91.36-3.87.76-5.78,1.11-2.4.45-4.8.89-7.16,1.38-.67.13-1.29.22-2,.4a1.39,1.39,0,0,1-1.38-.35l-6.58-5.25C21.87,26.67,17.28,23,12.66,19.29a1.46,1.46,0,0,1-.53-2c1.11-2.67,2.22-5.38,3.29-8A2.11,2.11,0,0,1,17.1,7.77c1.87-.4,5.43-1.29,7.3-1.69a2.56,2.56,0,0,1,1.25-.13,4.11,4.11,0,0,1,.84.58ZM24.58,50.64c3.87-.75,7.65-1.51,11.43-2.27-1-2.53-1.91-5-2.89-7.42q-3.19.91-6.36,1.91a.6.6,0,0,0-.4.4c-.58,2.4-1.16,4.85-1.78,7.39Zm-2.8-.8c.14-.58.23-1.11.36-1.6l1.33-5.61a.48.48,0,0,0-.18-.58c-5.07-4.49-10.09-9-15.12-13.52-.67-.58-1.33-1.2-2-1.82C5.19,29,4.3,31.21,3.41,33.43c0,.14.09.4.18.54.75.71,1.56,1.38,2.36,2.09l12.63,11c1.07.85,2.09,1.78,3.2,2.76Zm-13.34-25c.8.71,1.51,1.38,2.27,2,2.58,2.31,5.2,4.62,7.78,7,2.22,2,4.49,4,6.71,6a.67.67,0,0,0,.71.13c2.4-.71,4.8-1.46,7.25-2.13,1.33-.4,1.91,0,2.4,1.16,1.25,3.24,2.49,6.45,3.74,9.69A1.52,1.52,0,0,1,38.1,51L25.33,53.58c-.84.18-1.65.36-2.49.49a1.38,1.38,0,0,1-1.2-.4L13.5,46.6c-3.47-3-6.9-6-10.36-9-.84-.71-1.65-1.43-2.49-2.18a1.48,1.48,0,0,1-.45-2C1.49,30.23,2.78,27.07,4,24a2,2,0,0,1,1.24-1.2c1.78-.53,3.56-1.11,5.34-1.65a1.51,1.51,0,0,1,1.78.4,1.49,1.49,0,0,1-.71,2.4c-.84.31-1.73.54-2.58.8a1.38,1.38,0,0,0-.67.13ZM45.3,46.6c3.69-.76,7.34-1.56,11-2.31l-3.51-6.36c0-.13-.32-.23-.49-.18-1.65.31-3.34.67-5,1a.66.66,0,0,0-.58.58c-.27,1.38-.58,2.8-.85,4.18-.18,1-.36,2-.58,3.11Zm8.14-12.05a1.49,1.49,0,0,1,1.38.93c1.33,2.4,2.67,4.85,4,7.25.31.58.62,1.11.94,1.69a1.52,1.52,0,0,1-1.11,2.36c-3.65.75-7.29,1.55-10.94,2.31-1.38.31-2.8.67-4.18.84A1.48,1.48,0,0,1,42,48.2L43.84,39c.13-.58.22-1.11.31-1.69A1.6,1.6,0,0,1,45.52,36l6-1.2a13.93,13.93,0,0,0,1.87-.27Zm0,0"/></svg>