<svg id="图层_1" data-name="图层 1" xmlns="http://www.w3.org/2000/svg" viewBox="0 0 60 60"><title>矿石检测</title><path d="M54.39,37.76h.08L46.37,16.7H39.8L36,20c-.47.4-.56,8.28-1.14,9.34-.6-1.29-1.73-9.18-2.11-9.67l-8-10.43L9.58,13.63,5.41,37.76h.08l-.64,4.47h.08l4,8.82H51.06l4-8.78.15-.06-.81-4.47Zm4.7,0L60,42.2,54.48,55.5H20.63c2.11,0-13.65,0-14.69-.79L0,42.19l.94-4.44a2.07,2.07,0,0,1,0-.37L5.4,11.52A2.23,2.23,0,0,1,7,9.76L24.9,4.59a2.25,2.25,0,0,1,2.4.78l7.5,9.76,2.68-2.32A2.25,2.25,0,0,1,39,12.26h9A2.23,2.23,0,0,1,50,13.69L59,37a2.24,2.24,0,0,1,.13.79Zm0,0"/></svg>