<svg id="图层_1" data-name="图层 1" xmlns="http://www.w3.org/2000/svg" viewBox="0 0 60 60"><title>皮革检测</title><path d="M50.65,18.5V11.91a2.76,2.76,0,0,0-2.77-2.76H17.44A7.45,7.45,0,0,0,10,16.59c0,4.1,3.34,6.68,7.44,6.68h37V47.68a6.62,6.62,0,0,1-6.59,6.78H12.53c-3.74,0-7.78-3-7.78-6.78V12.32c0-3.74,3.84-7.77,7.58-7.77H47.68c3.74,0,6.79,4,6.79,7.77a2.77,2.77,0,0,0,5.53,0A12.33,12.33,0,0,0,47.68,0H12.32A12.33,12.33,0,0,0,0,12.32V47.68A12.33,12.33,0,0,0,12.32,60H47.67A12.33,12.33,0,0,0,60,47.68V21.27a2.76,2.76,0,0,0-2.76-2.76H50.65Zm-5.53,0H17.44a1.91,1.91,0,0,1,0-3.82H45.11Zm0,0"/></svg>