<svg id="图层_1" data-name="图层 1" xmlns="http://www.w3.org/2000/svg" viewBox="0 0 60 60"><title>汽车电子检测</title><path d="M46.48,54.42a1.88,1.88,0,0,1-2-3.14A25.77,25.77,0,0,0,56.25,29.64,26.08,26.08,0,0,0,30,3.75,26.08,26.08,0,0,0,3.75,29.64a25.8,25.8,0,0,0,12.41,22,1.87,1.87,0,0,1-2,3.19A29.58,29.58,0,0,1,30,0,29.58,29.58,0,0,1,46.48,54.42ZM30,60a8.91,8.91,0,1,1,8.91-8.91A8.91,8.91,0,0,1,30,60Zm0-3.75a5.16,5.16,0,1,0-5.16-5.16A5.16,5.16,0,0,0,30,56.25Zm4.59-15.38a1.88,1.88,0,1,1-3.62-1l5.68-20.75a1.88,1.88,0,1,1,3.62,1L34.59,40.87Zm0,0"/></svg>