<svg id="图层_1" data-name="图层 1" xmlns="http://www.w3.org/2000/svg" viewBox="0 0 60 60"><title>汽车配件检测</title><path d="M35.58,27.16a13.08,13.08,0,0,1-3.4-3.68H12.11V22.8A10.72,10.72,0,0,1,22.77,12h7.6a13.13,13.13,0,0,1,2.15-4.59H22.77A15.29,15.29,0,0,0,7.57,22.8V25A9.63,9.63,0,0,0,3,33.13V51.51A3,3,0,0,0,6,54.5h6.69a3,3,0,0,0,2.95-3V49.9H35.7V27.16Zm-1.92-3,5.07,5V52.94H18.49a6.06,6.06,0,0,1-5.81,4.59H6a6.06,6.06,0,0,1-6-6V33.13a12.61,12.61,0,0,1,4.54-9.69V22.8A18.33,18.33,0,0,1,22.77,4.37H40.55L35,9.21a10.1,10.1,0,0,0-1.66,3.56L32.71,15H22.77a7.63,7.63,0,0,0-7.27,5.41H33.89l.89,1.46c.5.82-.9,1.53-.12,2.21ZM13.24,45.31a4.59,4.59,0,1,0-4.54-4.59,4.58,4.58,0,0,0,4.54,4.59Zm0,3a7.63,7.63,0,1,1,7.57-7.63,7.62,7.62,0,0,1-7.57,7.63Zm0,0"/><path d="M49,6.65V17.13H42.18V6.65a11.77,11.77,0,0,0-8,11.16,11.59,11.59,0,0,0,5.67,10V50.62a3.8,3.8,0,0,0,3.78,3.87h3.89a3.8,3.8,0,0,0,3.78-3.87V27.84A11.75,11.75,0,0,0,49,6.65Zm5.37,44a6.83,6.83,0,0,1-6.82,6.91H43.62a6.83,6.83,0,0,1-6.82-6.91V29.45A14.81,14.81,0,0,1,41.24,3.76l4-1.29V14.09h.7V2.5l4,1.26a14.8,14.8,0,0,1,4.45,25.68Zm0,0"/></svg>