<svg id="图层_1" data-name="图层 1" xmlns="http://www.w3.org/2000/svg" viewBox="0 0 60 60"><title>汽车化学检测</title><path d="M21.55,43.41a1.65,1.65,0,1,0,1.65,1.65,1.65,1.65,0,0,0-1.65-1.65Zm17.16,0a1.65,1.65,0,1,0,1.65,1.65,1.65,1.65,0,0,0-1.65-1.65Zm0,0"/><path d="M43.41,40.12a1.89,1.89,0,0,0-1.35-.56h-.63l-2.37-7.88a1.9,1.9,0,0,0-1.83-1.36H22.76a1.89,1.89,0,0,0-1.83,1.36l-2.37,7.88h-.63A1.91,1.91,0,0,0,16,41.47v7.19a1.91,1.91,0,0,0,1.91,1.91h.68V51.9a1.4,1.4,0,0,0,2.79,0V50.57H38.6V51.9a1.4,1.4,0,1,0,2.79,0V50.57h.68A1.91,1.91,0,0,0,44,48.66V41.47a1.94,1.94,0,0,0-.56-1.35Zm-23-.56,2.22-7.37a.15.15,0,0,1,.14-.1H37.24a.14.14,0,0,1,.14.1l2.22,7.37Zm21.8,1.91v7.22a.15.15,0,0,1-.14.11H17.93a.14.14,0,0,1-.15-.15V41.47a.15.15,0,0,1,.15-.15H42.06a.15.15,0,0,1,.15.15Zm0,0"/><path d="M17.09,7.18A2.2,2.2,0,0,0,19.29,5a.26.26,0,0,1,.24-.24H40.35a.46.46,0,0,1,.4.19,2.2,2.2,0,1,0,4.31-.84A4.74,4.74,0,0,0,40.35.35H19.53A4.64,4.64,0,0,0,14.89,5a2.2,2.2,0,0,0,2.2,2.2Zm0,0"/><path d="M58.33,48,40.25,20.52V11.17a2.2,2.2,0,0,0-4.39,0v10a2.34,2.34,0,0,0,.37,1.25l18.41,28c.91,1.45,1.19,2.79.75,3.59S53.67,55.26,52,55.26H8c-1.71,0-3-.48-3.43-1.28s-.16-2.14.73-3.56l18.44-28a2.34,2.34,0,0,0,.36-1.23V11.09a2.2,2.2,0,1,0-4.39,0v9.43L1.64,48C-.19,51-.5,53.81.76,56.1S4.61,59.65,8,59.65H52c3.43,0,6-1.26,7.28-3.55s1-5.15-.9-8.09Zm0,0"/></svg>