<svg id="图层_1" data-name="图层 1" xmlns="http://www.w3.org/2000/svg" xmlns:xlink="http://www.w3.org/1999/xlink" viewBox="0 0 60 60"><defs><style>.cls-1{fill:none;}.cls-2{clip-path:url(#clip-path);}</style><clipPath id="clip-path"><rect class="cls-1" x="15" y="20.32" width="30" height="19.37"/></clipPath></defs><title>气体检测</title><path d="M34.32,38.87a2,2,0,0,1-1.27-.51.25.25,0,1,1,.36-.35,1.22,1.22,0,0,0,.91.35,1.27,1.27,0,0,0,0-2.54H17a.25.25,0,1,1,0-.51H34.32a1.78,1.78,0,0,1,0,3.55Zm0,0"/><path d="M34.32,39.65a2.76,2.76,0,0,1-1.78-.7,1.05,1.05,0,0,1-.35-.77,1,1,0,0,1,.3-.73,1,1,0,0,1,1.46,0,.45.45,0,0,0,.36.12.49.49,0,1,0,0-1H17a1,1,0,1,1,0-2.07H34.32a2.56,2.56,0,0,1,0,5.11Zm0,0"/><g class="cls-2"><path d="M41.42,37.85a2.81,2.81,0,0,1-2.79-2.79.25.25,0,0,1,.51,0,2.29,2.29,0,1,0,2.28-2.28H16a.25.25,0,0,1,0-.51h25.4a2.79,2.79,0,0,1,0,5.58Zm0,0"/><path d="M41.42,38.63a3.57,3.57,0,0,1-3.57-3.57,1,1,0,1,1,2.06,0,1.51,1.51,0,1,0,1.51-1.5H16a1,1,0,1,1,0-2.07h25.4a3.57,3.57,0,0,1,0,7.14Zm0,0"/></g><path d="M37.87,29.73H17a.25.25,0,1,1,0-.51H37.87a4,4,0,0,0,3.81-3.81,4,4,0,0,0-3.81-3.81,3.83,3.83,0,0,0-3.81,3.81.25.25,0,1,1-.51,0,4.31,4.31,0,0,1,4.31-4.31,4.48,4.48,0,0,1,4.31,4.31,4.48,4.48,0,0,1-4.31,4.31Zm0,0"/><path d="M37.87,30.51H17a1,1,0,1,1,0-2.07H37.87a3.23,3.23,0,0,0,3-3,3.23,3.23,0,0,0-3-3,3.07,3.07,0,0,0-3,3,1,1,0,1,1-2.06,0,5.1,5.1,0,0,1,5.09-5.09A5.23,5.23,0,0,1,43,25.42a5.23,5.23,0,0,1-5.09,5.09Zm0,0"/><path d="M29.8,26.69H18.06a.25.25,0,1,1,0-.51H29.8a1.27,1.27,0,0,0,0-2.54,1.46,1.46,0,0,0-.91.35.25.25,0,1,1-.35-.35,1.68,1.68,0,0,1,1.27-.51,1.78,1.78,0,0,1,0,3.55Zm0,0"/><path d="M29.8,27.47H18.06a1,1,0,1,1,0-2.07H29.8a.44.44,0,0,0,.44-.49c0-.34-.34-.71-.84-.32a1,1,0,0,1-1.41,0,1,1,0,0,1,0-1.46,2.45,2.45,0,0,1,1.82-.73,2.56,2.56,0,0,1,0,5.11Zm0,0"/><path d="M57.76,60a2.38,2.38,0,0,1-1.56-.66l-9-9a29.28,29.28,0,0,1-18.62,6.88A28.62,28.62,0,0,1,8.36,8.39a28.47,28.47,0,0,1,39.91-.48,2.07,2.07,0,0,1,.66,1.59,2.16,2.16,0,0,1-2.25,2.25,2.07,2.07,0,0,1-1.56-.66A24.35,24.35,0,0,0,28.54,4.52,24.16,24.16,0,0,0,11.48,45.75a24,24,0,0,0,17.06,7.09,24.84,24.84,0,0,0,17.24-7.09,24.39,24.39,0,0,0,5.35-26,1.22,1.22,0,0,1-.24-.81,2.19,2.19,0,0,1,4.29-.69,28.2,28.2,0,0,1-4.87,29l9,9a2.18,2.18,0,0,1,0,3.15,2.78,2.78,0,0,1-1.56.57Zm0,0"/><rect class="cls-1" x="-299" y="-673" width="818.88" height="819.76"/></svg>