<svg id="图层_1" data-name="图层 1" xmlns="http://www.w3.org/2000/svg" viewBox="0 0 60 60"><title>日化产品检测</title><path d="M34.75,8.25H25a1.93,1.93,0,0,0-1.75,2V18h2.5V10.75H34V18h2.5V10a1.71,1.71,0,0,0-1.75-1.75Zm0,0"/><path d="M39.5,17.25H20.75A11,11,0,0,0,10,28.25V54a6.08,6.08,0,0,0,6,6H44a6,6,0,0,0,6-6.25V28.25c.25-6-4.75-10.75-10.5-11Zm8.25,36.5a3.63,3.63,0,0,1-3.5,3.75H16A3.42,3.42,0,0,1,12.5,54V28.25A8.16,8.16,0,0,1,20.75,20h18.5a8.32,8.32,0,0,1,8.25,8.25c.25,0,.25,25.5.25,25.5Zm0,0"/><path d="M29.5,32.5H17A1.25,1.25,0,1,1,17,30H29.5a1.18,1.18,0,0,1,1.25,1.25A1.34,1.34,0,0,1,29.5,32.5ZM37,40H17a1.25,1.25,0,0,1,0-2.5H37a1.18,1.18,0,0,1,1.25,1.25A1.34,1.34,0,0,1,37,40Zm0,7.5H17A1.25,1.25,0,0,1,17,45H37a1.18,1.18,0,0,1,1.25,1.25A1.34,1.34,0,0,1,37,47.5Zm-8.25-38V1.25a1.25,1.25,0,0,1,2.5,0V9.5a1.25,1.25,0,0,1-2.5,0Zm0,0"/><path d="M38.25,2.5H25.75A1.18,1.18,0,0,1,24.5,1.25,1.34,1.34,0,0,1,25.75,0h12.5A1.18,1.18,0,0,1,39.5,1.25,1.18,1.18,0,0,1,38.25,2.5Zm0,0"/><path d="M25.5,0l-11,3c-.5.25-1,1-.75,1.5s.75,1.25,1.5,1L31.5,1.25A2.5,2.5,0,0,0,32.5,0Zm0,0"/></svg>