<svg id="图层_1" data-name="图层 1" xmlns="http://www.w3.org/2000/svg" viewBox="0 0 60 60"><title>石化气体检测</title><path d="M45.17,14.9l-.27-.1v.27a11.2,11.2,0,0,1-2.56,8.24c-.61.61-1.14.87-1.41.54s-.54-1,0-3.5c.77-4-.27-8.41-3.06-12.54S31.11.77,27.34,0h-.17l.1.17C28.52,6.29,25,9.48,20.88,13s-8.71,7.74-9.42,15.71c-.87,10.53,6.15,17.89,10.36,21.32a1.53,1.53,0,0,0,.77.27,1.21,1.21,0,0,0,1-.54,1.09,1.09,0,0,0,.1-1.14c-3.33-8.61,3.5-14.13,5.72-15.61a18.2,18.2,0,0,0,2.45,19.47l.1.1h.1C43.85,51,51.59,44.56,53.17,35.08c1.31-8.17-2.22-17.19-8-20.18Zm5.21,19.61c-.77,4.64-4.14,12.71-17.35,15.1a15.15,15.15,0,0,1-1.18-15.4,2.53,2.53,0,0,0-.17-2.62,2.85,2.85,0,0,0-2.29-1.24,3.51,3.51,0,0,0-1.58.44c-5.08,3.5-8,8.78-7.74,14C16.92,41.4,13.42,36,14,28.92,14.63,22.1,18.66,18.5,22.53,15c3.43-3.06,7-6.22,7.53-11.23a18.66,18.66,0,0,1,5.72,5.45c2.35,3.5,3.33,7.2,2.62,10.53-.54,2.79-.37,4.57.61,5.72a3.17,3.17,0,0,0,2.35,1.14A4.22,4.22,0,0,0,44.43,25,12,12,0,0,0,47,19.94a19.5,19.5,0,0,1,3.33,14.56Zm0,0"/><path d="M26.94,15a36.21,36.21,0,0,1-3.7,3.6l-.37.37C19.1,22.2,18.5,25,18.39,25.26a1.19,1.19,0,0,0,.87,1.41h.27a1.17,1.17,0,0,0,1.18-.81c0-.07.61-2.29,3.77-5.08l.37-.37a41.68,41.68,0,0,0,3.87-3.87A1.19,1.19,0,0,0,26.94,15Zm0,0"/><path d="M49.4,57H15.3a1.51,1.51,0,0,0,0,3H49.4a1.51,1.51,0,0,0,0-3Zm0,0"/><path d="M14.36,9.58A1.78,1.78,0,1,0,12.58,7.8a1.79,1.79,0,0,0,1.78,1.78Zm0,0"/><path d="M8.64,14.06a1,1,0,1,0-1,1,1,1,0,0,0,1-1Zm0,0"/><path d="M7.26,20a.87.87,0,1,0,.44-.76.87.87,0,0,0-.44.76Zm0,0"/></svg>