<svg id="图层_1" data-name="图层 1" xmlns="http://www.w3.org/2000/svg" viewBox="0 0 60 60"><title>食品检测</title><path d="M1.28,16.54A1.39,1.39,0,0,0-.08,18C-.08,31,1,45.41,13.76,51.13l.3.15-.15,7.22a1.75,1.75,0,0,0,.3,1.05,1.3,1.3,0,0,0,.9.45h29a.91.91,0,0,0,.9-.45,1.71,1.71,0,0,0,.45-1.2l-.15-6.77.3-.15C59,46,60.08,31.28,60.08,18a1.48,1.48,0,0,0-1.35-1.5H51.8l-.15-.15c-.9-1.5-2-3.16-3-4.81C43.23,4.06,36.62,0,29.85,0S16.47,4.06,11.2,11.58a32.12,32.12,0,0,0-3,4.81L8,16.54Zm41.2,40.6H16.32l.15-4.81.45.15A49.36,49.36,0,0,0,30,54.14a39.75,39.75,0,0,0,12-1.5l.45-.15Zm-12.63-6C7.14,51.13,2.63,39.7,2.33,19.85V19.4H57.52v.45c-.3,19.85-5,31.28-27.67,31.28ZM11.05,16.39l.3-.6C15.26,9.47,22,2.71,29.7,2.71c6.47,0,13.83,5.41,19.1,13.68M33.31,9.77l3.16,1.8h.3c.45,0,.75-.15,1.05-.75A2,2,0,0,0,37.37,9l-3-1.65a1.91,1.91,0,0,0-.9-.15,1.17,1.17,0,0,0-.6.6c-.3.9-.15,1.65.45,2Zm-7.82-3a1.36,1.36,0,0,0-.75.15l-2.41,1.8a1.5,1.5,0,0,0-.6.75,2.56,2.56,0,0,0,.15,1.05c.3.3.6.6.9.6a2.54,2.54,0,0,0,.75-.3L26.09,9a1.5,1.5,0,0,0,.6-.75,2.56,2.56,0,0,0-.15-1.05.83.83,0,0,0-.75-.45Zm0,0"/></svg>