<svg id="图层_1" data-name="图层 1" xmlns="http://www.w3.org/2000/svg" viewBox="0 0 60 60"><defs><style>.cls-1{fill:none;}</style></defs><title>水质检测</title><path d="M28.92,15.36a1,1,0,0,0-1.33,0C27.1,15.82,15.75,26.66,15.75,33c0,6.55,5.61,11.88,12.5,11.88S40.75,39.58,40.75,33c0-6.36-11.35-17.21-11.83-17.67Zm-.67,27.75A10.37,10.37,0,0,1,17.64,33c0-4.37,7.12-12.31,10.61-15.75C31.74,20.72,38.86,28.66,38.86,33A10.37,10.37,0,0,1,28.25,43.11Zm7.24-10.55a.93.93,0,0,0-1,.79,7.17,7.17,0,0,1-5.29,6,.89.89,0,0,0-.64,1.11.94.94,0,0,0,.9.64,1,1,0,0,0,.27,0,9,9,0,0,0,6.63-7.51.91.91,0,0,0-.83-1Zm0,0"/><path d="M57.76,60a2.38,2.38,0,0,1-1.56-.66l-9-9a29.28,29.28,0,0,1-18.62,6.88A28.62,28.62,0,0,1,8.36,8.39a28.47,28.47,0,0,1,39.91-.48,2.07,2.07,0,0,1,.66,1.59,2.16,2.16,0,0,1-2.25,2.25,2.07,2.07,0,0,1-1.56-.66A24.35,24.35,0,0,0,28.54,4.52,24.16,24.16,0,0,0,11.48,45.75a24,24,0,0,0,17.06,7.09,24.84,24.84,0,0,0,17.24-7.09,24.39,24.39,0,0,0,5.35-26,1.22,1.22,0,0,1-.24-.81,2.19,2.19,0,0,1,4.29-.69,28.2,28.2,0,0,1-4.87,29l9,9a2.18,2.18,0,0,1,0,3.15,2.78,2.78,0,0,1-1.56.57Zm0,0"/><rect class="cls-1" x="-299" y="-602.34" width="818.88" height="819.76"/></svg>