<svg id="图层_1" data-name="图层 1" xmlns="http://www.w3.org/2000/svg" viewBox="0 0 60 60"><title>塑料检测</title><path d="M56.21,11.61,52.9,8.68V6.3A3.26,3.26,0,0,0,49.64,3H43A3.26,3.26,0,0,0,39.71,6.3V8.68l-3.3,2.92c-2.57,1.72-3.79,3.05-3.79,5.92v34.1c0,3.24,1.77,5.33,4.51,5.33H55.49C58.23,57,60,54.86,60,51.62V17.53c0-2.86-1.22-4.2-3.79-5.92ZM43,5.39h6.68a.91.91,0,0,1,.91.91V7.86H42.05V6.3A.91.91,0,0,1,43,5.39Zm-5.19,8.12.07,0,3.68-3.26h9.56l3.68,3.26.07,0c2.32,1.54,2.82,2.25,2.82,4v2H35v-2c0-1.77.5-2.48,2.82-4Zm19.88,8.38v9.26H35V21.89Zm-.58,32a1.82,1.82,0,0,1-1.58.73H37.12a1.82,1.82,0,0,1-1.58-.73A3.9,3.9,0,0,1,35,51.62V33.49h22.7V51.62a3.91,3.91,0,0,1-.58,2.26Zm0,0"/><path d="M27.45,44.44V40.86H2.68v3.58Zm2.68,2.68H0V38.18H30.12Zm-2.68,0H2.68V51.6a2.68,2.68,0,0,0,2.68,2.68H24.77a2.68,2.68,0,0,0,2.68-2.68Zm2.68-2.68V51.6A5.35,5.35,0,0,1,24.77,57H5.35A5.35,5.35,0,0,1,0,51.6V44.44Zm-2.68-6.27V35a2.68,2.68,0,0,0-1.35-2.33l-6-3.41H9.67L4,32.62a2.68,2.68,0,0,0-1.3,2.3v3.25Zm2.68,2.68H0V34.92a5.35,5.35,0,0,1,2.61-4.6l6.33-3.77H20.81l6.6,3.76A5.35,5.35,0,0,1,30.12,35ZM11.68,22.07a.45.45,0,0,0-.45.45v4h7.21v-4a.45.45,0,0,0-.45-.45Zm0-2.68H18a3.12,3.12,0,0,1,3.12,3.12v6.7H8.56v-6.7a3.12,3.12,0,0,1,3.12-3.12Zm0,0"/></svg>