<svg id="图层_1" data-name="图层 1" xmlns="http://www.w3.org/2000/svg" viewBox="0 0 60 60"><defs><style>.cls-1{fill:none;}</style></defs><title>土壤检测</title><path d="M40.76,39.94a2.3,2.3,0,0,0-1.29-1.46,1.8,1.8,0,0,0-3.4-.16.16.16,0,0,0-.16-.16c-.16-.32-.65-.32-.81-.49a2.51,2.51,0,0,0-1.29-1.29,1.42,1.42,0,0,0-1.13.16c-.32-.16-.65-.49-1-.49a1.76,1.76,0,0,0-1.94,1.13c0,.16-.16.16-.32.32a.56.56,0,0,0-.32.16c-.16.16-.32.32-.32.49a23.1,23.1,0,0,0,.49-4.69v-.32A2.9,2.9,0,0,1,30.09,32a9.46,9.46,0,0,0,3.07-.65,10.21,10.21,0,0,0,4.21-3.72,8.32,8.32,0,0,0,1.46-4.53.57.57,0,0,0-.65-.65,7.24,7.24,0,0,0-3.24.65A8.89,8.89,0,0,0,30.73,27a6.51,6.51,0,0,0-1.46,3.24V31a.16.16,0,0,1-.16.16,21.61,21.61,0,0,0-1.78-6c0-.16-.16-.32-.32-.49a1.23,1.23,0,0,1-.32-.65,6.19,6.19,0,0,0-1.94-4.69,7.28,7.28,0,0,0-4.85-1.62h-.81v.16a.16.16,0,0,1-.16.16h-.16v.81a7.64,7.64,0,0,0,1.46,4.21,6.21,6.21,0,0,0,4.21,2.1h1.46a12.14,12.14,0,0,1,1.29,2.91,19.35,19.35,0,0,1,0,10.51,3.53,3.53,0,0,0-.65.81,2.24,2.24,0,0,0-.65-.49h-.16a.56.56,0,0,1-.32-.16,2.06,2.06,0,0,0-1.46-1.13,2.05,2.05,0,0,0-1,.16c-.32-.16-.49-.49-1-.49a1.83,1.83,0,0,0-1.94,1v.16c0,.16-.16.16-.16.32a2.06,2.06,0,0,0-1.13,1.46v.32a2.08,2.08,0,0,0,1.62,1.62H39a2.08,2.08,0,0,0,1.62-1.62Zm-12.29-.49a3.54,3.54,0,0,0,.49.81l.16.16.32-.32.49.16V40.1c.16-.16.16-.49.32-.49a1.21,1.21,0,0,1,.81.16.5.5,0,0,0,.16.32.65.65,0,0,0,.32.65H26.69a.84.84,0,0,0,.65-.32.5.5,0,0,0,.16-.32.56.56,0,0,1,.16-.32.89.89,0,0,1,.81-.32Zm2.1-1.13a1.24,1.24,0,0,0-.81.32v-.16c0-.16.16-.16.32-.16h.49c.16-.32.16-.49.32-.65v-.32c.16-.16.16-.16.32-.16h.49l.16.16c.16.32.16.49.49.49s.49-.16.65-.16l.16-.16a1,1,0,0,1,.65.16c0,.16.16.16.16.32s0,.16.16.32a.65.65,0,0,0,.65.32h.16c.16,0,.16.16.32.32s.32.32.49.32A1.24,1.24,0,0,0,37.21,39c0-.16.16-.16.16-.32a.35.35,0,0,1,.32-.32c.32-.16.65-.16.81.16a.5.5,0,0,0,.16.32.57.57,0,0,0,.65.65c.16,0,.16,0,.32.16.16,0,.16.16.16.32a.59.59,0,0,1-.16.49c-.16.16-.32.16-.65.16H33.65a2,2,0,0,0-1.13-1.13,3,3,0,0,0-1.94-1.13Zm-7.12.49a.59.59,0,0,1,.49-.16c.16,0,.32.16.49.16,0,.16,0,.16.16.32,0,.16,0,.16.16.32a1.23,1.23,0,0,0,.65.32h.32l.65.65H21a1,1,0,0,1-.65-.16c-.32.32-.32,0-.32-.16s.16-.49.32-.49h.16a.65.65,0,0,0,.65-.32.56.56,0,0,1,.16-.32c0-.16,0-.16.16-.32a.56.56,0,0,1,.81-.16l.16.16c.16.16.16.32.49.49a2,2,0,0,1,.49-.32c-.16.16,0,.16,0,0Zm9.87-10.19a.59.59,0,0,0,.16-.49c0-.16-.16-.32-.32-.49H33a.84.84,0,0,0-.65.32l-1.62,1.62a8.78,8.78,0,0,1,3.07-4.53,8.17,8.17,0,0,1,3.72-1.46,8.21,8.21,0,0,1-2.43,4.85,7.74,7.74,0,0,1-3.72,2.1,22,22,0,0,1,1.94-1.94Zm-11-7.44a.59.59,0,0,0-.16.49c0,.16.16.32.32.49a27.67,27.67,0,0,1,2.26,1.78,5,5,0,0,1-3.24-1.46,5.22,5.22,0,0,1-1.46-3.72,6.05,6.05,0,0,1,4,1.29A6.48,6.48,0,0,1,25.4,23c-.65-.49-1.29-1.13-2.26-1.78a.73.73,0,0,0-.81,0Zm0,0"/><path d="M57.76,60a2.38,2.38,0,0,1-1.56-.66l-9-9a29.28,29.28,0,0,1-18.62,6.88A28.62,28.62,0,0,1,8.36,8.39a28.47,28.47,0,0,1,39.91-.48,2.07,2.07,0,0,1,.66,1.59,2.16,2.16,0,0,1-2.25,2.25,2.07,2.07,0,0,1-1.56-.66A24.35,24.35,0,0,0,28.54,4.52,24.16,24.16,0,0,0,11.48,45.75a24,24,0,0,0,17.06,7.09,24.84,24.84,0,0,0,17.24-7.09,24.39,24.39,0,0,0,5.35-26,1.22,1.22,0,0,1-.24-.81,2.19,2.19,0,0,1,4.29-.69,28.2,28.2,0,0,1-4.87,29l9,9a2.18,2.18,0,0,1,0,3.15,2.78,2.78,0,0,1-1.56.57Zm0,0"/><rect class="cls-1" x="-386.5" y="-602.35" width="818.88" height="819.76"/></svg>