<svg id="图层_1" data-name="图层 1" xmlns="http://www.w3.org/2000/svg" viewBox="0 0 60 60"><title>无损检测</title><path d="M14,31.14,28.83,46l-5.94,5.94L8,37.08,14,31.14m0-4.2a4.16,4.16,0,0,0-3,1.23L5.07,34.11a4.2,4.2,0,0,0,0,5.94L19.92,54.89a4.2,4.2,0,0,0,5.93,0l5.94-5.94a4.2,4.2,0,0,0,0-5.94L17,28.17a4.2,4.2,0,0,0-3-1.23Zm0,0"/><path d="M45.2,11.34l3.45,3.45L28.5,39.71l-8.24-8.24L45.2,11.34m.15-4.92A2.13,2.13,0,0,0,44,6.94L14,31.14,28.83,46,53,16a2.1,2.1,0,0,0-.09-2.88L46.83,7a2.09,2.09,0,0,0-1.48-.61ZM11,46l3,3L8,54.89l-3-3L11,46M11,40,.62,50.44a2.1,2.1,0,0,0,0,3l5.94,5.94A2.1,2.1,0,0,0,8,60a2.07,2.07,0,0,0,1.48-.62L19.92,49Zm11.88,4.88a1.05,1.05,0,1,0,.74.31,1,1,0,0,0-.74-.31Zm0,0"/><path d="M4.33,46.73l1.49-1.49,8.91,8.91-1.49,1.49ZM54.42,5.61a1.05,1.05,0,0,1,0-1.48l2.21-2.21A1,1,0,0,1,58.11,3.4L55.91,5.61a1.05,1.05,0,0,1-1.48,0ZM48.13,3.4l-.65-2a1.05,1.05,0,0,1,2-.64l.65,2a1.05,1.05,0,0,1-2,.64Zm10.49,9.14-2-.65a1,1,0,1,1,.65-2l2,.65a1,1,0,1,1-.65,2Zm0,0"/></svg>