<svg id="图层_1" data-name="图层 1" xmlns="http://www.w3.org/2000/svg" viewBox="0 0 60 60"><title>橡胶检测</title><path d="M29.69,59.93A64.35,64.35,0,0,1,17.6,59C6.26,55.54,3.8,37.14,3.8,30.29c0-9.74,2.25-18.51,6-23.65C14.61,0,23.06,0,28.73,0h1.6c2.25,0,13.91.11,18.83,5.46,7,7.49,7,20.65,7,24.93v.32c0,14-5.46,23.65-10.49,26.64-3.32,1.93-10,2.57-15.94,2.57ZM30.76,3.12h-2c-5.56,0-12.52,0-16.48,5.35C8.94,13,6.9,21.41,6.9,30.29c0,8.56,3.1,23.11,11.66,25.57C22.1,56.93,39,57.58,44,54.58c3.42-2,9-10.38,9-24v-.32c0-4,0-16.16-6.1-22.79C43.5,4,35.36,3.12,30.76,3.12Zm0,0"/><path d="M12.25,13S13.64,8.36,16,6.65c1.28-1,2.67-1.82,7.38-1.82a40.45,40.45,0,0,0-3.64,7.6Zm5-5.14a16.9,16.9,0,0,0-1.5,2.67l2.67-.11A18.32,18.32,0,0,1,20,7.5ZM9.9,20.77l.32-1.5A29.5,29.5,0,0,1,11.4,15.1l.32-.75.86-.11,6.63-.32a34.69,34.69,0,0,0-2,6.74Zm3.53-4.07c-.21.53-.32,1.07-.53,1.5h2.57a12.1,12.1,0,0,1,.43-1.6ZM16.21,29H9a22.27,22.27,0,0,1,.53-6.31l7-.21A32.45,32.45,0,0,0,16.21,29Zm-4.49-2.25,2.57.11a14.66,14.66,0,0,1,.21-2H12a5.6,5.6,0,0,0-.32,1.93Zm5.46,10.59L9.37,37l-.21-.86a40.7,40.7,0,0,1-.53-4.39L8.51,30.4,16,30.29l.21,1.39s.21,2.78.53,4.39ZM11.5,34.79l2.67.21A13.22,13.22,0,0,1,14,33.07H11.29a12.38,12.38,0,0,1,.21,1.71Zm8,11.23-7.92-.53s-1.18-1.93-1.93-6.85l7.49.32A55.4,55.4,0,0,0,19.53,46Zm-6.21-2.89,2.78.21-.53-1.71-2.78-.21ZM24.45,54.69s-4.81.21-6.85-.64c-1.28-.53-1.93-1.39-3.85-4-.32-.43-1.61-2.89-1.61-2.89l7.92.53a18.31,18.31,0,0,0,1.71,3.42,24.93,24.93,0,0,0,2.67,3.53ZM17.6,52l2.67.32c-.75-1.28-1.07-1.71-1.71-2.78l-2.67-.11A5.73,5.73,0,0,0,17.6,52Zm13.16-5.56-8.45-.75L22,45.06s-.43-.86-1-2.14-1-2.67-1-2.67l-.53-1.71,8.24.53a33.62,33.62,0,0,0,1.07,3.42c1.07,3.1,1.93,4,1.93,4Zm-7-3.1,2.89.21c-.32-.86-.64-1.6-.86-2.14L23,41.21c.11.21.21.53.32.75.21.64.43,1.07.53,1.39ZM35.9,53.94c-3.85.75-7.49.86-8.77.32-1-.32-1.61-1.5-2.25-2.46a21.79,21.79,0,0,1-2.25-4.28l8.35.32a24.73,24.73,0,0,0,2.57,3.85,11.8,11.8,0,0,0,2.35,2.25ZM28,52.33l3.42-.11a22.81,22.81,0,0,1-1.39-2H26.7c.32.43.86,1.39,1.28,2.14Zm-.43-14.66-8-.53-.21-.86a30.84,30.84,0,0,1-.64-5l-.11-1.39H26.8a25.07,25.07,0,0,0,.11,3.74,31.66,31.66,0,0,0,.64,4.07Zm-6-2.89,3.1.21a4.79,4.79,0,0,1-.11-1.18c0-.53-.11-1-.11-1.39H21.24a10.24,10.24,0,0,0,.32,2.35ZM27,28.58H18.57a31.71,31.71,0,0,1,.21-3.85,12.65,12.65,0,0,1,.75-3.42l8.56-.21a36.25,36.25,0,0,0-.86,3.74A35.7,35.7,0,0,0,27,28.58Zm-6.1-2.46h3.74c.11-.86.21-1.82.32-2.46l-3.53.11c-.21.75-.32,1.6-.53,2.35ZM19.64,19.7l.53-1.61A27.74,27.74,0,0,1,22,13.39l.32-.64,8.45-.53L30,14a41.7,41.7,0,0,0-1.5,4.49l-.21,1Zm4.28-4.6a15.6,15.6,0,0,0-.75,2L26.48,17c.21-.64.43-1.39.64-2.14Zm7.38-4.17a75.08,75.08,0,0,0-8.88.64s1.71-4.71,3.74-6.1c1.39-1,4.6-.86,9.31-.64A19.64,19.64,0,0,0,32.8,8a12.86,12.86,0,0,0-1.5,2.89ZM27.66,7.29A15.15,15.15,0,0,0,26.48,9l3.1-.11a5.37,5.37,0,0,1,1.07-1.71ZM41.46,51.8A9.66,9.66,0,0,1,36,50.09c-4.71-3.53-7.49-13.27-6.74-23.65.53-6.85,2.35-15.3,7.92-18.3,4.17-2.25,9,1.5,10,5.78a6.36,6.36,0,0,0-2.35-1,4.46,4.46,0,0,0-3,1.18c-2.67,2.35-3.1,8.13-3.42,13.59-.64,10.49,1.5,14.55,3.64,16.16,3.85,3.1,6.85.64,6.85.64s-2,5.46-5.24,7a4.74,4.74,0,0,1-2.14.32Zm-1-41.62a3.76,3.76,0,0,0-1.93.53c-3.74,2-5.67,8.88-6.21,16.48-.53,6.42.53,17,5.35,20.65a7.11,7.11,0,0,0,5,1,3.85,3.85,0,0,0,1.93-1.28A9,9,0,0,1,40.5,46c-2.14-1.39-5.78-7.17-5.14-18.4.32-6.21,1.18-12.63,4.39-15.51A7.13,7.13,0,0,1,42,10.71a1.74,1.74,0,0,0-1.5-.53Zm0,0"/><path d="M45.85,40.35a1.87,1.87,0,0,1-1.5-.75c-1.39-2-5.46-9.52.11-21.4a1.86,1.86,0,0,1,3.32.11c1,2.57,4,11.88-.32,21.08A2,2,0,0,1,46,40.46c0-.11,0-.11-.11-.11ZM46,21.95c-2.46,6.74-1.39,11.45-.32,14.12A24.54,24.54,0,0,0,46,21.95Zm0,0"/></svg>