<svg id="图层_1" data-name="图层 1" xmlns="http://www.w3.org/2000/svg" viewBox="0 0 60 60"><title>药品检测</title><path d="M23.12,18.54A1.86,1.86,0,0,1,22.44,16l2.5-4.32A10,10,0,0,1,36.42,7.1a1.87,1.87,0,0,1-1.06,3.59,6.26,6.26,0,0,0-7.18,2.85l-2.51,4.31a1.87,1.87,0,0,1-2.55.69Zm0,0"/><path d="M47.55,11.12A15,15,0,0,0,20.06,7.5l-17.31,30A15,15,0,0,0,15.7,60a15.29,15.29,0,0,0,3.93-.52,14.91,14.91,0,0,0,9.12-7l17.31-30a15,15,0,0,0,1.48-11.39Zm-22,39.5A11.27,11.27,0,0,1,6,39.36l6.32-10.95L31.83,39.68Zm17.31-30L33.7,36.44,14.18,25.17,23.3,9.37a11.19,11.19,0,0,1,6.85-5.24,11.51,11.51,0,0,1,3-.39,11.28,11.28,0,0,1,9.71,16.9Zm4.86,14.81A11.58,11.58,0,1,0,59.26,47,11.59,11.59,0,0,0,47.68,35.45Zm0,3.74a7.79,7.79,0,0,1,5,1.8L40.48,50.13a7.84,7.84,0,0,1,7.19-10.94Zm0,15.67a7.8,7.8,0,0,1-4.93-1.75L54.9,44a7.83,7.83,0,0,1-7.22,10.88Zm0,0"/></svg>