<svg id="图层_1" data-name="图层 1" xmlns="http://www.w3.org/2000/svg" viewBox="0 0 60 60"><title>医疗器械</title><path d="M55.59,48.37v-2.2a10.25,10.25,0,0,0-10-10h-.49a9.93,9.93,0,0,0-10,10v3.18a7.27,7.27,0,0,1-7.1,7.1h-.49a7.11,7.11,0,0,1-7.1-7.1V40.29C36.24,39.55,37.47,28,37.47,9.18c0-6.61-7.84-7.1-11.76-7.1A3,3,0,0,0,23,.37a3,3,0,0,0-2.94,2.94A3,3,0,0,0,23,6.24,2.57,2.57,0,0,0,25.22,5c7.84.24,9.06,2.2,9.06,4.16,0,21.55-2.2,28.16-15.67,28.16S2.94,30.49,2.94,9.18c0-2,1-3.67,7.59-4.16A2.49,2.49,0,0,0,13,6.24a3,3,0,0,0,2.94-2.94A3,3,0,0,0,13,.37a2.69,2.69,0,0,0-2.45,1.47C6.37,2.33,0,3.31,0,9.18,0,28,1.22,39.55,17.14,40.29v9.06a10.25,10.25,0,0,0,10,10h.49a9.93,9.93,0,0,0,10-10V46.16a7.27,7.27,0,0,1,7.1-7.1h.49a7.11,7.11,0,0,1,7.1,7.1v2.2a5.73,5.73,0,0,0-4.16,5.39,5.88,5.88,0,1,0,11.76,0,5.48,5.48,0,0,0-4.41-5.39Zm-1.22,8.33a2.94,2.94,0,1,1,2.94-2.94,2.82,2.82,0,0,1-2.94,2.94Zm0,0"/></svg>