<svg id="图层_1" data-name="图层 1" xmlns="http://www.w3.org/2000/svg" viewBox="0 0 60 60"><title>饮品检测</title><path d="M30,45a9,9,0,1,1,9.07-9A9.06,9.06,0,0,1,30,45Zm0-15a6,6,0,1,0,6,6,6,6,0,0,0-6-6ZM47.78,6.17,47.28,4a5.53,5.53,0,0,0-5.23-4H17.94a5.59,5.59,0,0,0-5.23,4l-.5,2.14a4.48,4.48,0,0,0-3.27,4.34v3A4.56,4.56,0,0,0,12,17.82l2.71,37.78A4.84,4.84,0,0,0,19.45,60H40.54a4.79,4.79,0,0,0,4.72-4.41L48,17.82a4.42,4.42,0,0,0,3.09-4.28V10.45a4.39,4.39,0,0,0-3.27-4.28ZM17.94,3H42.06a2.5,2.5,0,0,1,2.27,1.76l.31,1.2H15.36l.31-1.2A2.59,2.59,0,0,1,17.94,3ZM44.76,21H15.24l-.19-3H45Zm-2,26.95H17.19l-1.7-24H44.57Zm-2.27,9H19.45a1.76,1.76,0,0,1-1.7-1.57l-.31-4.41H42.62l-.31,4.41a1.77,1.77,0,0,1-1.76,1.57ZM48.1,13.47A1.53,1.53,0,0,1,46.59,15H13.41a1.53,1.53,0,0,1-1.51-1.51v-3a1.53,1.53,0,0,1,1.51-1.51H46.59a1.53,1.53,0,0,1,1.51,1.51Zm0,0"/></svg>