<svg id="图层_1" data-name="图层 1" xmlns="http://www.w3.org/2000/svg" viewBox="0 0 60 60"><title>油品检测</title><path d="M41.51,13.29H21.8V5.57c0-3,2.57-5.57,5.14-5.57h9.43a5.31,5.31,0,0,1,5.14,5.57ZM25.23,9.43H38.51V5.14A1.84,1.84,0,0,0,36.8,3.43H27.37a2,2,0,0,0-2.14,2.14Zm0,0"/><path d="M39.8,60H10.23a5.67,5.67,0,0,1-5.57-5.57V27.86a6.91,6.91,0,0,1,2.57-5.57L22.65,9.86h18l2.57,3.86a13,13,0,0,1,2.14,6.86v1.71H41.94V20.57a8.64,8.64,0,0,0-1.29-4.71l-1.71-2.57H24.37L9.8,24.86a3.23,3.23,0,0,0-1.71,3V54.43a2,2,0,0,0,2.14,2.14H39.8a2,2,0,0,0,2.14-2.14V47.57h3.43v6.86c.43,3-2.14,5.57-5.57,5.57Zm0,0"/><path d="M44.08,50.14a11.49,11.49,0,0,1-9.43-18L41.51,21a3.21,3.21,0,0,1,5.14,0l6.86,11.14a12.22,12.22,0,0,1-1.29,14.57,13.48,13.48,0,0,1-8.14,3.43Zm0-27L37.23,33.86a8.39,8.39,0,0,0,.86,10.29,8,8,0,0,0,11.14,0,8.33,8.33,0,0,0,.86-10.29ZM14.08,51c-2.14,0-3.86-1.71-3.86-4.29V33c0-2.14,1.71-4.29,3.86-4.29s3.86,1.71,3.86,4.29V47.14A3.84,3.84,0,0,1,14.08,51Zm0-18.86a.42.42,0,0,0-.43.43V47.14a.43.43,0,1,0,.86,0V33c0-.43,0-.86-.43-.86Zm12-20.57h3.43v4.71H26.08Zm7.29,0H36.8v4.71H33.37Zm0,0"/></svg>