<svg id="图层_1" data-name="图层 1" xmlns="http://www.w3.org/2000/svg" viewBox="0 0 60 60"><title>油漆涂料检测</title><path d="M18.41,18a1.46,1.46,0,0,1-1-2.48l8.51-8.51a1.45,1.45,0,0,1,2.06,2.06l-8.51,8.51a1.47,1.47,0,0,1-1,.42Zm6.33,41.28a10.47,10.47,0,0,1-7.44-3.08L4.44,43.38a10.53,10.53,0,0,1,0-14.88l.86-.86A1.45,1.45,0,1,1,7.35,29.7l-.86.86a7.62,7.62,0,0,0,0,10.77L19.35,54.18a7.61,7.61,0,0,0,10.77,0L46.29,38a1.45,1.45,0,1,1,2.06,2.06L32.18,56.24a10.44,10.44,0,0,1-7.44,3.08Zm0,0"/><path d="M50.31,47.28a4.44,4.44,0,0,1-4.45-4.45V40.29a4,4,0,0,1-1.11.15,4.11,4.11,0,0,1-4.1-4.1V23.88L25.6,8.82a4.62,4.62,0,0,1,0-6.53L25.86,2a4.62,4.62,0,0,1,6.53,0L58.65,28.29a4.62,4.62,0,0,1,0,6.53l-.25.25a4.63,4.63,0,0,1-3.64,1.34v6.41a4.44,4.44,0,0,1-4.45,4.45Zm0-2.91a1.54,1.54,0,0,0,1.54-1.54V34.4a1.45,1.45,0,0,1,2.29-1.19A1.71,1.71,0,0,0,56.33,33l.25-.25a1.72,1.72,0,0,0,0-2.43L30.34,4.09a1.72,1.72,0,0,0-2.43,0l-.25.25a1.72,1.72,0,0,0,0,2.43L43.13,22.24a1.44,1.44,0,0,1,.43,1V36.34a1.19,1.19,0,0,0,1.19,1.19,1.19,1.19,0,0,0,1.16-.89,1.45,1.45,0,0,1,2.86.36v5.83a1.53,1.53,0,0,0,.45,1.09,1.5,1.5,0,0,0,1.09.46Zm0,0"/><path d="M29.09,24.26H1.45a1.45,1.45,0,1,1,0-2.91H29.09a1.45,1.45,0,0,1,0,2.91Zm0,0"/></svg>