<svg id="图层_1" data-name="图层 1" xmlns="http://www.w3.org/2000/svg" viewBox="0 0 60 60"><defs><style>.cls-1{fill:none;}</style></defs><title>噪声检测</title><path d="M38.4,37A1.4,1.4,0,0,1,37,35.6V24.4a1.4,1.4,0,1,1,2.8,0V35.6A1.4,1.4,0,0,1,38.4,37Zm4.2-2.8a1.4,1.4,0,0,1-1.4-1.4V27.2a1.4,1.4,0,1,1,2.8,0v5.6a1.4,1.4,0,0,1-1.4,1.4Zm-21,4.2A1.4,1.4,0,0,1,20.2,37V23A1.4,1.4,0,1,1,23,23V37a1.4,1.4,0,0,1-1.4,1.4ZM25.8,44a1.4,1.4,0,0,1-1.4-1.4V17.4a1.4,1.4,0,1,1,2.8,0V42.6A1.4,1.4,0,0,1,25.8,44ZM30,38.4A1.4,1.4,0,0,1,28.6,37V23a1.4,1.4,0,0,1,2.8,0V37A1.4,1.4,0,0,1,30,38.4Zm4.2-4.2a1.4,1.4,0,0,1-1.4-1.4V27.2a1.4,1.4,0,1,1,2.8,0v5.6a1.4,1.4,0,0,1-1.4,1.4Zm-16.8,0A1.4,1.4,0,0,1,16,32.8V27.2a1.4,1.4,0,1,1,2.8,0v5.6a1.4,1.4,0,0,1-1.4,1.4Zm0,0"/><path d="M57.76,60a2.38,2.38,0,0,1-1.56-.66l-9-9a29.28,29.28,0,0,1-18.62,6.88A28.62,28.62,0,0,1,8.36,8.39a28.47,28.47,0,0,1,39.91-.48,2.07,2.07,0,0,1,.66,1.59,2.16,2.16,0,0,1-2.25,2.25,2.07,2.07,0,0,1-1.56-.66A24.35,24.35,0,0,0,28.54,4.52,24.16,24.16,0,0,0,11.48,45.75a24,24,0,0,0,17.06,7.09,24.84,24.84,0,0,0,17.24-7.09,24.39,24.39,0,0,0,5.35-26,1.22,1.22,0,0,1-.24-.81,2.19,2.19,0,0,1,4.29-.69,28.2,28.2,0,0,1-4.87,29l9,9a2.18,2.18,0,0,1,0,3.15,2.78,2.78,0,0,1-1.56.57Zm0,0"/><rect class="cls-1" x="-386.5" y="-673" width="818.88" height="819.76"/></svg>