<svg id="图层_1" data-name="图层 1" xmlns="http://www.w3.org/2000/svg" viewBox="0 0 60 60"><title>照明产品检测</title><path d="M44.85,6a19.88,19.88,0,0,1,3.73,23.88,20.66,20.66,0,0,1-6.18,6.93A11.4,11.4,0,0,0,40,40.25q-.13.32-.24.65l0,0a2.42,2.42,0,0,1,.22.56v0a2.9,2.9,0,0,1,.07.35,2.51,2.51,0,0,1,0,.28c0,.17,0,.35,0,.54s0,.65,0,1a3.15,3.15,0,0,1,.86,2.17,3.52,3.52,0,0,1-.52,1.79,7.9,7.9,0,0,0-.46,1A3.15,3.15,0,0,1,41.17,51a3.49,3.49,0,0,1-.52,1.79c-.21.34-.61.46-.9.73a4.58,4.58,0,0,1-.28,1.16c-.23.63-1.3,3.21-3,4.12A11.28,11.28,0,0,1,31,60c-.21,0-.78,0-1,0a21.34,21.34,0,0,1-3.07-.29,6,6,0,0,1-2.37-.82A14.63,14.63,0,0,1,23,57.77a7.63,7.63,0,0,1-1.83-2.84,2.6,2.6,0,0,1-.08-1,4.44,4.44,0,0,1-.67-.76,3.05,3.05,0,0,1-.73-1.84,3,3,0,0,1,.59-1.81,2.91,2.91,0,0,1,.6-.6,4.42,4.42,0,0,1-.62-.71,3.47,3.47,0,0,1-.65-2,3.06,3.06,0,0,1,.59-1.81,2.92,2.92,0,0,1,.64-.64c0-.25,0-.48,0-.68s0-.54,0-.79c0-.07,0-.15,0-.25a3.21,3.21,0,0,1,.14-.51,10.9,10.9,0,0,0-.9-1.71A20,20,0,0,0,18,37.07a20.63,20.63,0,0,1-6.46-7A19.76,19.76,0,0,1,9,20.36,20,20,0,0,1,15.15,6a21.46,21.46,0,0,1,29.7,0ZM37.17,53.88h0v-.07s0,0,0,.07c-6.32-.05-11.72,0-13.53-.07l.07.63A3.57,3.57,0,0,0,26,57.26,10.77,10.77,0,0,0,30.4,58a8.13,8.13,0,0,0,4.42-.92,4.06,4.06,0,0,0,2.34-3.24Zm-.09-2.24a1.29,1.29,0,0,0,0-2.57H23.91a1.29,1.29,0,0,0,0,2.57H37.08ZM37.14,47a1.29,1.29,0,0,0,0-2.56h-13a1.29,1.29,0,0,0,0,2.57h13ZM39.8,34a16.23,16.23,0,0,0,7.1-13.35A16.66,16.66,0,0,0,30,4.24a16.66,16.66,0,0,0-16.9,16.4,16.25,16.25,0,0,0,7.47,13.6c1.53.81,3.57,4,4,6.89,1.89.08,2.35,0,4.7.08A64.24,64.24,0,0,0,36.06,41a9.61,9.61,0,0,1,3.75-7ZM33.6,13.13,32,20.47h5.16l-9.28,9.1,1.86-7.4H24.37l9.23-9Zm0,0"/></svg>