<svg id="图层_1" data-name="图层 1" xmlns="http://www.w3.org/2000/svg" viewBox="0 0 60 60"><title>装潢材料检测</title><path d="M12.07,35.81a12,12,0,1,0,12,12,12,12,0,0,0-12-12Zm0,20.91a9,9,0,1,1,9-9,9,9,0,0,1-9,9ZM59.88,35.81A12,12,0,0,0,42.86,25l4.6-4.6A12,12,0,0,0,30.52,3.51l2.11,2.11A9,9,0,0,1,45.28,18.27L36,27.65v-.81a12,12,0,0,0-12-12h-.7l9.32-9.26L30.54,3.53,16.18,17.88A12,12,0,0,0,29.31,37.54l-1.18,1.18A12,12,0,1,0,44.4,56.14l12-12a12,12,0,0,0,3.53-8.38Zm-44.82-9a9,9,0,0,1,2.29-6l.82-.82a9,9,0,1,1-3.11,6.8ZM36,56.73a9,9,0,0,1-6.71-14.94l.9-.9A9,9,0,1,1,36,56.73Zm12-8.19v-.75a12,12,0,0,0-12-12h-.7l6.32-6.32A9,9,0,0,1,54.25,42.18l-6.32,6.29ZM24,20.87a6,6,0,1,0,6,6,6,6,0,0,0-6-6Zm0,9a3,3,0,1,1,3-3,3,3,0,0,1-3,3Zm-12,12a6,6,0,1,0,6,6,6,6,0,0,0-6-6Zm0,9a3,3,0,1,1,3-3,3,3,0,0,1-3,3Zm23.9-9a6,6,0,1,0,6,6,6,6,0,0,0-6-6Zm0,9a3,3,0,1,1,3-3,3,3,0,0,1-3,3Zm0,0"/></svg>