<?xml version="1.0" standalone="no"?>
<!DOCTYPE svg PUBLIC "-//W3C//DTD SVG 1.1//EN" "http://www.w3.org/Graphics/SVG/1.1/DTD/svg11.dtd" >
<svg xmlns="http://www.w3.org/2000/svg" xmlns:xlink="http://www.w3.org/1999/xlink" version="1.1">
<metadata>
Created by FontForge 20161003 at Sun Aug 18 03:30:26 2019
 By www-data
Copyright Alexander Fakoo' 2014 - www.fakoo.de
</metadata>
<defs>
<font id="Siekoo" horiz-adv-x="544" >
  <font-face 
    font-family="Siekoo"
    font-weight="400"
    font-stretch="normal"
    units-per-em="1024"
    panose-1="0 0 4 0 0 0 0 0 0 0"
    ascent="819"
    descent="-205"
    x-height="296"
    cap-height="624"
    bbox="-32 -80 576 704"
    underline-thickness="51"
    underline-position="26"
    unicode-range="U+0020-201D"
  />
    <missing-glyph />
    <glyph glyph-name=".notdef" horiz-adv-x="576" 
d="M288 81v92h-92v-92h92zM379 188v92h-183v-92h183zM288 295v92h-92v-92h92zM379 402v91h-91q-39 0 -65 -26q-27 -27 -27 -65h183zM0 0v576h576v-576h-576z" />
    <glyph glyph-name="glyph1" 
 />
    <glyph glyph-name="glyph2" 
 />
    <glyph glyph-name="space" unicode=" " 
 />
    <glyph glyph-name="exclam" unicode="!" 
d="M96 0l-40 40l40 40h224l40 -40l-40 -40h-224zM96 272l-40 40l40 40h224l40 -40l-40 -40h-224zM40 328l-40 40v160l40 40l40 -40v-160l-40 -40v0zM376 328l-40 40v160l40 40l40 -40v-160l-40 -40v0zM96 544l-40 40l40 40h224l40 -40l-40 -40h-224z" />
    <glyph glyph-name="quotedbl" unicode="&#x22;" 
d="M40 328l-40 40v160l40 40l40 -40v-160l-40 -40v0zM376 328l-40 40v160l40 40l40 -40v-160l-40 -40v0z" />
    <glyph glyph-name="numbersign" unicode="#" 
d="M40 56l-40 40v160l40 40l40 -40v-160l-40 -40v0zM376 56l-40 40v160l40 40l40 -40v-160l-40 -40v0zM40 328l-40 40v160l40 40l40 -40v-160l-40 -40v0zM376 328l-40 40v160l40 40l40 -40v-160l-40 -40v0z" />
    <glyph glyph-name="percent" unicode="%" 
d="M376 56l-40 40v160l40 40l40 -40v-160l-40 -40v0zM40 328l-40 40v160l40 40l40 -40v-160l-40 -40v0z" />
    <glyph glyph-name="quotesingle" unicode="'" 
d="M40 328l-40 40v160l40 40l40 -40v-160l-40 -40v0z" />
    <glyph glyph-name="parenleft" unicode="(" 
d="M96 0l-40 40l40 40h224l40 -40l-40 -40h-224zM40 56l-40 40v160l40 40l40 -40v-160l-40 -40v0zM40 328l-40 40v160l40 40l40 -40v-160l-40 -40v0zM96 544l-40 40l40 40h224l40 -40l-40 -40h-224z" />
    <glyph glyph-name="parenright" unicode=")" 
d="M96 0l-40 40l40 40h224l40 -40l-40 -40h-224zM376 56l-40 40v160l40 40l40 -40v-160l-40 -40v0zM376 328l-40 40v160l40 40l40 -40v-160l-40 -40v0zM96 544l-40 40l40 40h224l40 -40l-40 -40h-224z" />
    <glyph glyph-name="asterisk" unicode="*" 
d="M96 0l-40 40l40 40h224l40 -40l-40 -40h-224zM96 272l-40 40l40 40h224l40 -40l-40 -40h-224zM96 544l-40 40l40 40h224l40 -40l-40 -40h-224z" />
    <glyph glyph-name="plus" unicode="+" 
d="M376 56l-40 40v160l40 40l40 -40v-160l-40 -40v0zM96 272l-40 40l40 40h224l40 -40l-40 -40h-224zM376 328l-40 40v160l40 40l40 -40v-160l-40 -40v0z" />
    <glyph glyph-name="comma" unicode="," 
d="M96 0l-40 40l40 40h224l40 -40l-40 -40h-224zM376 56l-40 40v160l40 40l40 -40v-160l-40 -40v0z" />
    <glyph glyph-name="hyphen" unicode="-" 
d="M96 272l-40 40l40 40h224l40 -40l-40 -40h-224z" />
    <glyph glyph-name="period" unicode="." 
d="M40 56l-40 40v160l40 40l40 -40v-160l-40 -40v0z" />
    <glyph glyph-name="slash" unicode="/" 
d="M40 56l-40 40v160l40 40l40 -40v-160l-40 -40v0zM96 272l-40 40l40 40h224l40 -40l-40 -40h-224zM376 328l-40 40v160l40 40l40 -40v-160l-40 -40v0z" />
    <glyph glyph-name="zero" unicode="0" 
d="M96 0l-40 40l40 40h224l40 -40l-40 -40h-224zM40 56l-40 40v160l40 40l40 -40v-160l-40 -40v0zM376 56l-40 40v160l40 40l40 -40v-160l-40 -40v0zM40 328l-40 40v160l40 40l40 -40v-160l-40 -40v0zM376 328l-40 40v160l40 40l40 -40v-160l-40 -40v0zM96 544l-40 40l40 40
h224l40 -40l-40 -40h-224z" />
    <glyph glyph-name="one" unicode="1" 
d="M376 56l-40 40v160l40 40l40 -40v-160l-40 -40v0zM376 328l-40 40v160l40 40l40 -40v-160l-40 -40v0z" />
    <glyph glyph-name="two" unicode="2" 
d="M96 0l-40 40l40 40h224l40 -40l-40 -40h-224zM40 56l-40 40v160l40 40l40 -40v-160l-40 -40v0zM96 272l-40 40l40 40h224l40 -40l-40 -40h-224zM376 328l-40 40v160l40 40l40 -40v-160l-40 -40v0zM96 544l-40 40l40 40h224l40 -40l-40 -40h-224z" />
    <glyph glyph-name="three" unicode="3" 
d="M96 0l-40 40l40 40h224l40 -40l-40 -40h-224zM376 56l-40 40v160l40 40l40 -40v-160l-40 -40v0zM96 272l-40 40l40 40h224l40 -40l-40 -40h-224zM376 328l-40 40v160l40 40l40 -40v-160l-40 -40v0zM96 544l-40 40l40 40h224l40 -40l-40 -40h-224z" />
    <glyph glyph-name="four" unicode="4" 
d="M376 56l-40 40v160l40 40l40 -40v-160l-40 -40v0zM96 272l-40 40l40 40h224l40 -40l-40 -40h-224zM40 328l-40 40v160l40 40l40 -40v-160l-40 -40v0zM376 328l-40 40v160l40 40l40 -40v-160l-40 -40v0z" />
    <glyph glyph-name="five" unicode="5" 
d="M96 0l-40 40l40 40h224l40 -40l-40 -40h-224zM376 56l-40 40v160l40 40l40 -40v-160l-40 -40v0zM96 272l-40 40l40 40h224l40 -40l-40 -40h-224zM40 328l-40 40v160l40 40l40 -40v-160l-40 -40v0zM96 544l-40 40l40 40h224l40 -40l-40 -40h-224z" />
    <glyph glyph-name="six" unicode="6" 
d="M96 0l-40 40l40 40h224l40 -40l-40 -40h-224zM40 56l-40 40v160l40 40l40 -40v-160l-40 -40v0zM376 56l-40 40v160l40 40l40 -40v-160l-40 -40v0zM96 272l-40 40l40 40h224l40 -40l-40 -40h-224zM40 328l-40 40v160l40 40l40 -40v-160l-40 -40v0zM96 544l-40 40l40 40
h224l40 -40l-40 -40h-224z" />
    <glyph glyph-name="seven" unicode="7" 
d="M376 56l-40 40v160l40 40l40 -40v-160l-40 -40v0zM376 328l-40 40v160l40 40l40 -40v-160l-40 -40v0zM96 544l-40 40l40 40h224l40 -40l-40 -40h-224z" />
    <glyph glyph-name="eight" unicode="8" 
d="M96 0l-40 40l40 40h224l40 -40l-40 -40h-224zM40 56l-40 40v160l40 40l40 -40v-160l-40 -40v0zM376 56l-40 40v160l40 40l40 -40v-160l-40 -40v0zM96 272l-40 40l40 40h224l40 -40l-40 -40h-224zM40 328l-40 40v160l40 40l40 -40v-160l-40 -40v0zM376 328l-40 40v160
l40 40l40 -40v-160l-40 -40v0zM96 544l-40 40l40 40h224l40 -40l-40 -40h-224z" />
    <glyph glyph-name="nine" unicode="9" 
d="M96 0l-40 40l40 40h224l40 -40l-40 -40h-224zM376 56l-40 40v160l40 40l40 -40v-160l-40 -40v0zM96 272l-40 40l40 40h224l40 -40l-40 -40h-224zM40 328l-40 40v160l40 40l40 -40v-160l-40 -40v0zM376 328l-40 40v160l40 40l40 -40v-160l-40 -40v0zM96 544l-40 40l40 40
h224l40 -40l-40 -40h-224z" />
    <glyph glyph-name="colon" unicode=":" 
d="M96 0l-40 40l40 40h224l40 -40l-40 -40h-224zM96 544l-40 40l40 40h224l40 -40l-40 -40h-224z" />
    <glyph glyph-name="semicolon" unicode=";" 
d="M96 0l-40 40l40 40h224l40 -40l-40 -40h-224zM376 328l-40 40v160l40 40l40 -40v-160l-40 -40v0z" />
    <glyph glyph-name="less" unicode="&#x3c;" 
d="M40 328l-40 40v160l40 40l40 -40v-160l-40 -40v0zM96 544l-40 40l40 40h224l40 -40l-40 -40h-224z" />
    <glyph glyph-name="equal" unicode="=" 
d="M96 0l-40 40l40 40h224l40 -40l-40 -40h-224zM96 272l-40 40l40 40h224l40 -40l-40 -40h-224z" />
    <glyph glyph-name="greater" unicode="&#x3e;" 
d="M376 328l-40 40v160l40 40l40 -40v-160l-40 -40v0zM96 544l-40 40l40 40h224l40 -40l-40 -40h-224z" />
    <glyph glyph-name="question" unicode="?" 
d="M96 0l-40 40l40 40h224l40 -40l-40 -40h-224zM96 272l-40 40l40 40h224l40 -40l-40 -40h-224zM376 328l-40 40v160l40 40l40 -40v-160l-40 -40v0zM96 544l-40 40l40 40h224l40 -40l-40 -40h-224z" />
    <glyph glyph-name="at" unicode="@" 
d="M40 56l-40 40v160l40 40l40 -40v-160l-40 -40v0zM376 56l-40 40v160l40 40l40 -40v-160l-40 -40v0zM376 328l-40 40v160l40 40l40 -40v-160l-40 -40v0zM96 544l-40 40l40 40h224l40 -40l-40 -40h-224z" />
    <glyph glyph-name="A" unicode="A" 
d="M96 0l-40 40l40 40h224l40 -40l-40 -40h-224zM40 56l-40 40v160l40 40l40 -40v-160l-40 -40v0zM376 56l-40 40v160l40 40l40 -40v-160l-40 -40v0zM96 272l-40 40l40 40h224l40 -40l-40 -40h-224zM376 328l-40 40v160l40 40l40 -40v-160l-40 -40v0zM96 544l-40 40l40 40
h224l40 -40l-40 -40h-224z" />
    <glyph glyph-name="B" unicode="B" 
d="M96 0l-40 40l40 40h224l40 -40l-40 -40h-224zM40 56l-40 40v160l40 40l40 -40v-160l-40 -40v0zM376 56l-40 40v160l40 40l40 -40v-160l-40 -40v0zM96 272l-40 40l40 40h224l40 -40l-40 -40h-224zM40 328l-40 40v160l40 40l40 -40v-160l-40 -40v0z" />
    <glyph glyph-name="C" unicode="C" 
d="M96 0l-40 40l40 40h224l40 -40l-40 -40h-224zM40 56l-40 40v160l40 40l40 -40v-160l-40 -40v0zM96 272l-40 40l40 40h224l40 -40l-40 -40h-224z" />
    <glyph glyph-name="D" unicode="D" 
d="M96 0l-40 40l40 40h224l40 -40l-40 -40h-224zM40 56l-40 40v160l40 40l40 -40v-160l-40 -40v0zM376 56l-40 40v160l40 40l40 -40v-160l-40 -40v0zM96 272l-40 40l40 40h224l40 -40l-40 -40h-224zM376 328l-40 40v160l40 40l40 -40v-160l-40 -40v0z" />
    <glyph glyph-name="E" unicode="E" 
d="M96 0l-40 40l40 40h224l40 -40l-40 -40h-224zM40 56l-40 40v160l40 40l40 -40v-160l-40 -40v0zM96 272l-40 40l40 40h224l40 -40l-40 -40h-224zM40 328l-40 40v160l40 40l40 -40v-160l-40 -40v0zM96 544l-40 40l40 40h224l40 -40l-40 -40h-224z" />
    <glyph glyph-name="F" unicode="F" 
d="M40 56l-40 40v160l40 40l40 -40v-160l-40 -40v0zM96 272l-40 40l40 40h224l40 -40l-40 -40h-224zM40 328l-40 40v160l40 40l40 -40v-160l-40 -40v0zM96 544l-40 40l40 40h224l40 -40l-40 -40h-224z" />
    <glyph glyph-name="G" unicode="G" 
d="M96 0l-40 40l40 40h224l40 -40l-40 -40h-224zM40 56l-40 40v160l40 40l40 -40v-160l-40 -40v0zM376 56l-40 40v160l40 40l40 -40v-160l-40 -40v0zM40 328l-40 40v160l40 40l40 -40v-160l-40 -40v0zM96 544l-40 40l40 40h224l40 -40l-40 -40h-224z" />
    <glyph glyph-name="H" unicode="H" 
d="M40 56l-40 40v160l40 40l40 -40v-160l-40 -40v0zM376 56l-40 40v160l40 40l40 -40v-160l-40 -40v0zM96 272l-40 40l40 40h224l40 -40l-40 -40h-224zM40 328l-40 40v160l40 40l40 -40v-160l-40 -40v0z" />
    <glyph glyph-name="I" unicode="I" 
d="M40 56l-40 40v160l40 40l40 -40v-160l-40 -40v0zM96 544l-40 40l40 40h224l40 -40l-40 -40h-224z" />
    <glyph glyph-name="J" unicode="J" 
d="M96 0l-40 40l40 40h224l40 -40l-40 -40h-224zM376 56l-40 40v160l40 40l40 -40v-160l-40 -40v0zM96 544l-40 40l40 40h224l40 -40l-40 -40h-224z" />
    <glyph glyph-name="K" unicode="K" 
d="M40 56l-40 40v160l40 40l40 -40v-160l-40 -40v0zM376 56l-40 40v160l40 40l40 -40v-160l-40 -40v0zM96 272l-40 40l40 40h224l40 -40l-40 -40h-224zM40 328l-40 40v160l40 40l40 -40v-160l-40 -40v0zM96 544l-40 40l40 40h224l40 -40l-40 -40h-224z" />
    <glyph glyph-name="L" unicode="L" 
d="M96 0l-40 40l40 40h224l40 -40l-40 -40h-224zM40 56l-40 40v160l40 40l40 -40v-160l-40 -40v0zM40 328l-40 40v160l40 40l40 -40v-160l-40 -40v0z" />
    <glyph glyph-name="M" unicode="M" 
d="M40 56l-40 40v160l40 40l40 -40v-160l-40 -40v0zM376 56l-40 40v160l40 40l40 -40v-160l-40 -40v0zM96 272l-40 40l40 40h224l40 -40l-40 -40h-224zM96 544l-40 40l40 40h224l40 -40l-40 -40h-224z" />
    <glyph glyph-name="N" unicode="N" 
d="M40 56l-40 40v160l40 40l40 -40v-160l-40 -40v0zM376 56l-40 40v160l40 40l40 -40v-160l-40 -40v0zM96 272l-40 40l40 40h224l40 -40l-40 -40h-224z" />
    <glyph glyph-name="O" unicode="O" 
d="M96 0l-40 40l40 40h224l40 -40l-40 -40h-224zM40 56l-40 40v160l40 40l40 -40v-160l-40 -40v0zM376 56l-40 40v160l40 40l40 -40v-160l-40 -40v0zM96 272l-40 40l40 40h224l40 -40l-40 -40h-224z" />
    <glyph glyph-name="P" unicode="P" 
d="M40 56l-40 40v160l40 40l40 -40v-160l-40 -40v0zM96 272l-40 40l40 40h224l40 -40l-40 -40h-224zM40 328l-40 40v160l40 40l40 -40v-160l-40 -40v0zM376 328l-40 40v160l40 40l40 -40v-160l-40 -40v0zM96 544l-40 40l40 40h224l40 -40l-40 -40h-224z" />
    <glyph glyph-name="Q" unicode="Q" 
d="M376 56l-40 40v160l40 40l40 -40v-160l-40 -40v0zM96 272l-40 40l40 40h224l40 -40l-40 -40h-224zM40 328l-40 40v160l40 40l40 -40v-160l-40 -40v0zM376 328l-40 40v160l40 40l40 -40v-160l-40 -40v0zM96 544l-40 40l40 40h224l40 -40l-40 -40h-224z" />
    <glyph glyph-name="R" unicode="R" 
d="M40 56l-40 40v160l40 40l40 -40v-160l-40 -40v0zM96 272l-40 40l40 40h224l40 -40l-40 -40h-224z" />
    <glyph glyph-name="S" unicode="S" 
d="M96 0l-40 40l40 40h224l40 -40l-40 -40h-224zM376 56l-40 40v160l40 40l40 -40v-160l-40 -40v0zM40 328l-40 40v160l40 40l40 -40v-160l-40 -40v0zM96 544l-40 40l40 40h224l40 -40l-40 -40h-224z" />
    <glyph glyph-name="T" unicode="T" 
d="M96 0l-40 40l40 40h224l40 -40l-40 -40h-224zM40 56l-40 40v160l40 40l40 -40v-160l-40 -40v0zM96 272l-40 40l40 40h224l40 -40l-40 -40h-224zM40 328l-40 40v160l40 40l40 -40v-160l-40 -40v0z" />
    <glyph glyph-name="U" unicode="U" 
d="M96 0l-40 40l40 40h224l40 -40l-40 -40h-224zM40 56l-40 40v160l40 40l40 -40v-160l-40 -40v0zM376 56l-40 40v160l40 40l40 -40v-160l-40 -40v0z" />
    <glyph glyph-name="V" unicode="V" 
d="M96 0l-40 40l40 40h224l40 -40l-40 -40h-224zM40 328l-40 40v160l40 40l40 -40v-160l-40 -40v0zM376 328l-40 40v160l40 40l40 -40v-160l-40 -40v0z" />
    <glyph glyph-name="W" unicode="W" 
d="M96 0l-40 40l40 40h224l40 -40l-40 -40h-224zM96 272l-40 40l40 40h224l40 -40l-40 -40h-224zM40 328l-40 40v160l40 40l40 -40v-160l-40 -40v0zM376 328l-40 40v160l40 40l40 -40v-160l-40 -40v0z" />
    <glyph glyph-name="X" unicode="X" 
d="M40 56l-40 40v160l40 40l40 -40v-160l-40 -40v0zM376 56l-40 40v160l40 40l40 -40v-160l-40 -40v0z" />
    <glyph glyph-name="Y" unicode="Y" 
d="M96 0l-40 40l40 40h224l40 -40l-40 -40h-224zM376 56l-40 40v160l40 40l40 -40v-160l-40 -40v0zM96 272l-40 40l40 40h224l40 -40l-40 -40h-224zM40 328l-40 40v160l40 40l40 -40v-160l-40 -40v0zM376 328l-40 40v160l40 40l40 -40v-160l-40 -40v0z" />
    <glyph glyph-name="Z" unicode="Z" 
d="M96 0l-40 40l40 40h224l40 -40l-40 -40h-224zM40 56l-40 40v160l40 40l40 -40v-160l-40 -40v0zM376 328l-40 40v160l40 40l40 -40v-160l-40 -40v0zM96 544l-40 40l40 40h224l40 -40l-40 -40h-224z" />
    <glyph glyph-name="backslash" unicode="\" 
d="M376 56l-40 40v160l40 40l40 -40v-160l-40 -40v0zM96 272l-40 40l40 40h224l40 -40l-40 -40h-224zM40 328l-40 40v160l40 40l40 -40v-160l-40 -40v0z" />
    <glyph glyph-name="underscore" unicode="_" 
d="M96 0l-40 40l40 40h224l40 -40l-40 -40h-224z" />
    <glyph glyph-name="a" unicode="a" 
d="M96 0l-40 40l40 40h224l40 -40l-40 -40h-224zM40 56l-40 40v160l40 40l40 -40v-160l-40 -40v0zM376 56l-40 40v160l40 40l40 -40v-160l-40 -40v0zM96 272l-40 40l40 40h224l40 -40l-40 -40h-224zM376 328l-40 40v160l40 40l40 -40v-160l-40 -40v0zM96 544l-40 40l40 40
h224l40 -40l-40 -40h-224z" />
    <glyph glyph-name="b" unicode="b" 
d="M96 0l-40 40l40 40h224l40 -40l-40 -40h-224zM40 56l-40 40v160l40 40l40 -40v-160l-40 -40v0zM376 56l-40 40v160l40 40l40 -40v-160l-40 -40v0zM96 272l-40 40l40 40h224l40 -40l-40 -40h-224zM40 328l-40 40v160l40 40l40 -40v-160l-40 -40v0z" />
    <glyph glyph-name="c" unicode="c" 
d="M96 0l-40 40l40 40h224l40 -40l-40 -40h-224zM40 56l-40 40v160l40 40l40 -40v-160l-40 -40v0zM96 272l-40 40l40 40h224l40 -40l-40 -40h-224z" />
    <glyph glyph-name="d" unicode="d" 
d="M96 0l-40 40l40 40h224l40 -40l-40 -40h-224zM40 56l-40 40v160l40 40l40 -40v-160l-40 -40v0zM376 56l-40 40v160l40 40l40 -40v-160l-40 -40v0zM96 272l-40 40l40 40h224l40 -40l-40 -40h-224zM376 328l-40 40v160l40 40l40 -40v-160l-40 -40v0z" />
    <glyph glyph-name="e" unicode="e" 
d="M96 0l-40 40l40 40h224l40 -40l-40 -40h-224zM40 56l-40 40v160l40 40l40 -40v-160l-40 -40v0zM96 272l-40 40l40 40h224l40 -40l-40 -40h-224zM40 328l-40 40v160l40 40l40 -40v-160l-40 -40v0zM96 544l-40 40l40 40h224l40 -40l-40 -40h-224z" />
    <glyph glyph-name="f" unicode="f" 
d="M40 56l-40 40v160l40 40l40 -40v-160l-40 -40v0zM96 272l-40 40l40 40h224l40 -40l-40 -40h-224zM40 328l-40 40v160l40 40l40 -40v-160l-40 -40v0zM96 544l-40 40l40 40h224l40 -40l-40 -40h-224z" />
    <glyph glyph-name="g" unicode="g" 
d="M96 0l-40 40l40 40h224l40 -40l-40 -40h-224zM40 56l-40 40v160l40 40l40 -40v-160l-40 -40v0zM376 56l-40 40v160l40 40l40 -40v-160l-40 -40v0zM40 328l-40 40v160l40 40l40 -40v-160l-40 -40v0zM96 544l-40 40l40 40h224l40 -40l-40 -40h-224z" />
    <glyph glyph-name="h" unicode="h" 
d="M40 56l-40 40v160l40 40l40 -40v-160l-40 -40v0zM376 56l-40 40v160l40 40l40 -40v-160l-40 -40v0zM96 272l-40 40l40 40h224l40 -40l-40 -40h-224zM40 328l-40 40v160l40 40l40 -40v-160l-40 -40v0z" />
    <glyph glyph-name="i" unicode="i" 
d="M40 56l-40 40v160l40 40l40 -40v-160l-40 -40v0zM96 544l-40 40l40 40h224l40 -40l-40 -40h-224z" />
    <glyph glyph-name="j" unicode="j" 
d="M96 0l-40 40l40 40h224l40 -40l-40 -40h-224zM376 56l-40 40v160l40 40l40 -40v-160l-40 -40v0zM96 544l-40 40l40 40h224l40 -40l-40 -40h-224z" />
    <glyph glyph-name="k" unicode="k" 
d="M40 56l-40 40v160l40 40l40 -40v-160l-40 -40v0zM376 56l-40 40v160l40 40l40 -40v-160l-40 -40v0zM96 272l-40 40l40 40h224l40 -40l-40 -40h-224zM40 328l-40 40v160l40 40l40 -40v-160l-40 -40v0zM96 544l-40 40l40 40h224l40 -40l-40 -40h-224z" />
    <glyph glyph-name="l" unicode="l" 
d="M96 0l-40 40l40 40h224l40 -40l-40 -40h-224zM40 56l-40 40v160l40 40l40 -40v-160l-40 -40v0zM40 328l-40 40v160l40 40l40 -40v-160l-40 -40v0z" />
    <glyph glyph-name="m" unicode="m" 
d="M40 56l-40 40v160l40 40l40 -40v-160l-40 -40v0zM376 56l-40 40v160l40 40l40 -40v-160l-40 -40v0zM96 272l-40 40l40 40h224l40 -40l-40 -40h-224zM96 544l-40 40l40 40h224l40 -40l-40 -40h-224z" />
    <glyph glyph-name="n" unicode="n" 
d="M40 56l-40 40v160l40 40l40 -40v-160l-40 -40v0zM376 56l-40 40v160l40 40l40 -40v-160l-40 -40v0zM96 272l-40 40l40 40h224l40 -40l-40 -40h-224z" />
    <glyph glyph-name="o" unicode="o" 
d="M96 0l-40 40l40 40h224l40 -40l-40 -40h-224zM40 56l-40 40v160l40 40l40 -40v-160l-40 -40v0zM376 56l-40 40v160l40 40l40 -40v-160l-40 -40v0zM96 272l-40 40l40 40h224l40 -40l-40 -40h-224z" />
    <glyph glyph-name="p" unicode="p" 
d="M40 56l-40 40v160l40 40l40 -40v-160l-40 -40v0zM96 272l-40 40l40 40h224l40 -40l-40 -40h-224zM40 328l-40 40v160l40 40l40 -40v-160l-40 -40v0zM376 328l-40 40v160l40 40l40 -40v-160l-40 -40v0zM96 544l-40 40l40 40h224l40 -40l-40 -40h-224z" />
    <glyph glyph-name="q" unicode="q" 
d="M376 56l-40 40v160l40 40l40 -40v-160l-40 -40v0zM96 272l-40 40l40 40h224l40 -40l-40 -40h-224zM40 328l-40 40v160l40 40l40 -40v-160l-40 -40v0zM376 328l-40 40v160l40 40l40 -40v-160l-40 -40v0zM96 544l-40 40l40 40h224l40 -40l-40 -40h-224z" />
    <glyph glyph-name="r" unicode="r" 
d="M40 56l-40 40v160l40 40l40 -40v-160l-40 -40v0zM96 272l-40 40l40 40h224l40 -40l-40 -40h-224z" />
    <glyph glyph-name="s" unicode="s" 
d="M96 0l-40 40l40 40h224l40 -40l-40 -40h-224zM376 56l-40 40v160l40 40l40 -40v-160l-40 -40v0zM40 328l-40 40v160l40 40l40 -40v-160l-40 -40v0zM96 544l-40 40l40 40h224l40 -40l-40 -40h-224z" />
    <glyph glyph-name="t" unicode="t" 
d="M96 0l-40 40l40 40h224l40 -40l-40 -40h-224zM40 56l-40 40v160l40 40l40 -40v-160l-40 -40v0zM96 272l-40 40l40 40h224l40 -40l-40 -40h-224zM40 328l-40 40v160l40 40l40 -40v-160l-40 -40v0z" />
    <glyph glyph-name="u" unicode="u" 
d="M96 0l-40 40l40 40h224l40 -40l-40 -40h-224zM40 56l-40 40v160l40 40l40 -40v-160l-40 -40v0zM376 56l-40 40v160l40 40l40 -40v-160l-40 -40v0z" />
    <glyph glyph-name="v" unicode="v" 
d="M96 0l-40 40l40 40h224l40 -40l-40 -40h-224zM40 328l-40 40v160l40 40l40 -40v-160l-40 -40v0zM376 328l-40 40v160l40 40l40 -40v-160l-40 -40v0z" />
    <glyph glyph-name="w" unicode="w" 
d="M96 0l-40 40l40 40h224l40 -40l-40 -40h-224zM96 272l-40 40l40 40h224l40 -40l-40 -40h-224zM40 328l-40 40v160l40 40l40 -40v-160l-40 -40v0zM376 328l-40 40v160l40 40l40 -40v-160l-40 -40v0z" />
    <glyph glyph-name="x" unicode="x" 
d="M40 56l-40 40v160l40 40l40 -40v-160l-40 -40v0zM376 56l-40 40v160l40 40l40 -40v-160l-40 -40v0z" />
    <glyph glyph-name="y" unicode="y" 
d="M96 0l-40 40l40 40h224l40 -40l-40 -40h-224zM376 56l-40 40v160l40 40l40 -40v-160l-40 -40v0zM96 272l-40 40l40 40h224l40 -40l-40 -40h-224zM40 328l-40 40v160l40 40l40 -40v-160l-40 -40v0zM376 328l-40 40v160l40 40l40 -40v-160l-40 -40v0z" />
    <glyph glyph-name="z" unicode="z" 
d="M96 0l-40 40l40 40h224l40 -40l-40 -40h-224zM40 56l-40 40v160l40 40l40 -40v-160l-40 -40v0zM376 328l-40 40v160l40 40l40 -40v-160l-40 -40v0zM96 544l-40 40l40 40h224l40 -40l-40 -40h-224z" />
    <glyph glyph-name="macron" unicode="&#xaf;" 
d="M96 544l-40 40l40 40h224l40 -40l-40 -40h-224z" />
    <glyph glyph-name="degree" unicode="&#xb0;" 
d="M96 272l-40 40l40 40h224l40 -40l-40 -40h-224zM40 328l-40 40v160l40 40l40 -40v-160l-40 -40v0zM376 328l-40 40v160l40 40l40 -40v-160l-40 -40v0zM96 544l-40 40l40 40h224l40 -40l-40 -40h-224z" />
    <glyph glyph-name="Adieresis" unicode="&#xc4;" 
d="M96 0l-40 40l40 40h224l40 -40l-40 -40h-224zM40 56l-40 40v160l40 40l40 -40v-160l-40 -40v0zM96 272l-40 40l40 40h224l40 -40l-40 -40h-224zM96 544l-40 40l40 40h224l40 -40l-40 -40h-224z" />
    <glyph glyph-name="Odieresis" unicode="&#xd6;" 
d="M96 0l-40 40l40 40h224l40 -40l-40 -40h-224zM40 56l-40 40v160l40 40l40 -40v-160l-40 -40v0zM376 56l-40 40v160l40 40l40 -40v-160l-40 -40v0zM96 272l-40 40l40 40h224l40 -40l-40 -40h-224zM96 544l-40 40l40 40h224l40 -40l-40 -40h-224z" />
    <glyph glyph-name="Udieresis" unicode="&#xdc;" 
d="M96 0l-40 40l40 40h224l40 -40l-40 -40h-224zM40 56l-40 40v160l40 40l40 -40v-160l-40 -40v0zM376 56l-40 40v160l40 40l40 -40v-160l-40 -40v0zM96 544l-40 40l40 40h224l40 -40l-40 -40h-224z" />
    <glyph glyph-name="germandbls" unicode="&#xdf;" 
d="M40 56l-40 40v160l40 40l40 -40v-160l-40 -40v0zM40 328l-40 40v160l40 40l40 -40v-160l-40 -40v0zM376 328l-40 40v160l40 40l40 -40v-160l-40 -40v0zM96 544l-40 40l40 40h224l40 -40l-40 -40h-224z" />
    <glyph glyph-name="adieresis" unicode="&#xe4;" 
d="M96 0l-40 40l40 40h224l40 -40l-40 -40h-224zM40 56l-40 40v160l40 40l40 -40v-160l-40 -40v0zM96 272l-40 40l40 40h224l40 -40l-40 -40h-224zM96 544l-40 40l40 40h224l40 -40l-40 -40h-224z" />
    <glyph glyph-name="odieresis" unicode="&#xf6;" 
d="M96 0l-40 40l40 40h224l40 -40l-40 -40h-224zM40 56l-40 40v160l40 40l40 -40v-160l-40 -40v0zM376 56l-40 40v160l40 40l40 -40v-160l-40 -40v0zM96 272l-40 40l40 40h224l40 -40l-40 -40h-224zM96 544l-40 40l40 40h224l40 -40l-40 -40h-224z" />
    <glyph glyph-name="udieresis" unicode="&#xfc;" 
d="M96 0l-40 40l40 40h224l40 -40l-40 -40h-224zM40 56l-40 40v160l40 40l40 -40v-160l-40 -40v0zM376 56l-40 40v160l40 40l40 -40v-160l-40 -40v0zM96 544l-40 40l40 40h224l40 -40l-40 -40h-224z" />
    <glyph glyph-name="Dcroat" unicode="&#x110;" 
d="M-32 -80v784h480v-784h-480z" />
    <glyph glyph-name="quotedblleft" unicode="&#x201c;" 
d="M40 328l-40 40v160l40 40l40 -40v-160l-40 -40v0zM376 328l-40 40v160l40 40l40 -40v-160l-40 -40v0z" />
    <glyph glyph-name="quotedblright" unicode="&#x201d;" 
d="M40 328l-40 40v160l40 40l40 -40v-160l-40 -40v0zM376 328l-40 40v160l40 40l40 -40v-160l-40 -40v0z" />
  </font>
</defs>
</svg>
