<?xml version="1.0" standalone="no"?><!DOCTYPE svg PUBLIC "-//W3C//DTD SVG 1.1//EN" "http://www.w3.org/Graphics/SVG/1.1/DTD/svg11.dtd"><svg class="icon" width="200px" height="200.00px" viewBox="0 0 1024 1024" version="1.1" xmlns="http://www.w3.org/2000/svg"><path fill="#2B579A" d="M597.333 1024L0 884.053V139.947L597.333 0zM420.267 682.667l89.173-384-76.8 3.84-45.227 252.16c0 6.826-2.56 13.653-3.413 20.48a170.667 170.667 0 0 0 0 22.186c0-6.826 0-13.226-2.133-20.053s0-13.653-2.987-20.48l-53.333-247.04-73.387 4.267-52.48 236.8a170.667 170.667 0 0 0-3.84 20.48 165.12 165.12 0 0 0 0 20.48v-20.054c0-6.826 0-13.653-2.987-20.053L149.76 320l-64.427 4.267L156.587 665.6l73.813 4.267 49.92-229.547v-4.693a26.453 26.453 0 0 0 0-4.267v-31.573a165.12 165.12 0 0 0 0 20.48c0 6.826 0 13.226 3.413 20.053l57.6 237.653zM597.333 85.333v85.334h341.334v682.666H597.333v85.334H1024V85.333H597.333z"  /><path fill="#2B579A" d="M597.333 256h256v42.667h-256z m0 85.333h256V384h-256z m0 85.334h256v42.666h-256z m0 85.333h256v42.667h-256z m0 85.333h256V640h-256z m0 85.334h256v42.666h-256z"  /></svg>