<?xml version="1.0" standalone="no"?><!DOCTYPE svg PUBLIC "-//W3C//DTD SVG 1.1//EN" "http://www.w3.org/Graphics/SVG/1.1/DTD/svg11.dtd"><svg class="icon" width="200px" height="200.00px" viewBox="0 0 1024 1024" version="1.1" xmlns="http://www.w3.org/2000/svg"><path d="M758.09 36.335l-21.47-21.47H191.586c-46.245 0-82.58 36.335-82.58 82.58v825.807c0 46.245 36.335 82.58 82.58 82.58h644.13c46.244 0 82.58-36.335 82.58-82.58V201.497L758.09 36.335zM531.82 715.148c-6.607 6.607-16.517 11.562-26.426 11.562-11.562 0-19.82-3.304-28.078-11.562-6.606-6.606-11.561-16.516-11.561-26.425 0-11.562 3.303-19.82 11.561-26.426 6.607-6.607 16.516-11.562 28.078-11.562s19.819 3.304 26.425 11.562c6.607 6.606 11.562 16.516 11.562 26.426s-4.955 18.167-11.562 26.425z m87.535-272.516c-4.955 13.213-16.516 28.078-33.032 42.942-11.562 9.91-19.82 19.82-26.426 26.426-6.607 8.258-11.562 14.865-14.865 21.471-3.303 6.606-4.955 11.561-6.606 18.168-1.652 6.606-1.652 13.213-1.652 19.82 0 11.56-3.303 19.818-9.91 24.773-6.606 4.955-14.864 8.258-24.774 8.258s-18.167-3.303-24.774-8.258c-6.606-4.955-9.91-13.213-9.91-24.774 0-6.606 1.652-13.213 3.304-21.47s6.606-18.169 9.91-28.078c4.954-9.91 9.909-19.82 16.515-29.73s14.865-19.819 23.123-28.077c6.607-6.606 13.213-13.213 16.516-18.168s8.258-11.56 11.561-16.516c3.304-4.954 4.955-9.91 4.955-14.864 1.652-4.955 1.652-11.561 1.652-16.516 0-14.865-4.955-26.426-13.213-31.38-8.258-4.956-18.168-8.259-31.38-8.259-11.562 0-23.123 3.303-31.381 6.606-9.91 4.955-14.865 11.562-14.865 21.471 0 9.91-4.955 16.517-13.213 21.471-8.258 4.955-18.167 6.607-26.425 6.607-11.562 0-19.82-3.303-24.775-8.258-4.955-4.955-6.606-11.562-6.606-21.471 0-13.213 3.303-24.774 9.91-36.336 6.606-11.561 14.864-19.819 24.774-28.077s23.122-14.865 37.987-18.168c14.864-4.955 29.729-6.606 46.245-8.258 16.516 0 31.38 1.652 44.594 6.607 13.212 4.954 26.425 11.56 36.335 19.819 9.91 8.258 18.168 19.82 23.123 33.032 4.954 13.213 8.258 28.078 8.258 46.245 3.303 14.865 1.651 29.73-4.955 42.942z" fill="#DCDCDC" /><path d="M736.62 14.865h-3.304v132.129c0 16.516 8.258 52.851 57.807 52.851h127.174L736.619 14.865z" fill="#EEEEEE" /></svg>