<?xml version="1.0" standalone="no"?><!DOCTYPE svg PUBLIC "-//W3C//DTD SVG 1.1//EN" "http://www.w3.org/Graphics/SVG/1.1/DTD/svg11.dtd"><svg class="icon" width="200px" height="200.00px" viewBox="0 0 1024 1024" version="1.1" xmlns="http://www.w3.org/2000/svg"><path d="M159.744 31.744c-11.776 0-24.576 4.608-33.792 14.336-8.704 9.728-14.336 21.504-14.336 33.792v864.256c0 11.776 4.608 24.576 14.336 33.792 9.728 9.728 21.504 14.336 33.792 14.336h704c11.776 0 24.576-4.608 33.792-14.336 9.728-9.728 14.336-21.504 14.336-33.792v-640L640 31.744H159.744z" fill="#FF9743" /><path d="M911.872 304.128H687.616c-11.776 0-24.576-4.608-33.792-14.336-9.728-8.704-14.336-21.504-14.336-33.792V31.744l272.384 272.384z" fill="#FFBC85" /><path d="M549.888 436.736H279.04c-23.04 0-43.52 17.408-43.52 39.936v230.4c0 22.528 20.48 43.52 43.52 43.52h270.848c23.04 0 40.96-20.48 40.96-43.52v-230.4c0-22.528-17.92-39.936-40.96-39.936z m77.824 104.448v104.96L747.52 711.68V476.16l-119.808 65.024z" fill="#FFFFFF" /></svg>