<?xml version="1.0" standalone="no"?><!DOCTYPE svg PUBLIC "-//W3C//DTD SVG 1.1//EN" "http://www.w3.org/Graphics/SVG/1.1/DTD/svg11.dtd"><svg class="icon" width="200px" height="200.00px" viewBox="0 0 1024 1024" version="1.1" xmlns="http://www.w3.org/2000/svg"><path d="M129.691202 0.00054a50.469973 50.469973 0 0 0-36.489981 15.359992A53.899972 53.899972 0 0 0 77.575229 51.200513v921.599514a48.717974 48.717974 0 0 0 15.639992 35.839981A51.944973 51.944973 0 0 0 129.690202 1024h764.601596a52.968972 52.968972 0 0 0 52.129973-51.199973V290.134387L650.999927 0.00254H129.690202z m0 0" fill="#28C592" /><path d="M334.274094 819.200108a82.881956 82.881956 0 1 1 0-165.763913 86.961954 86.961954 0 0 1 50.625973 17.221991l4.296998 3.226999V408.050325a28.733985 28.733985 0 0 1 27.927985-29.059985l276.804854-32.286983h2.156999a28.019985 28.019985 0 0 1 29.074985 27.926985v311.139836a78.025959 78.025959 0 0 1-24.823987 58.13597 82.943956 82.943956 0 1 1-58.01097-142.133925 84.525955 84.525955 0 0 1 50.625974 17.221991l4.297997 3.164998V477.867288l-280.032852 30.254984v228.19588a83.641956 83.641956 0 0 1-82.943956 82.881956z m0-136.703928a54.892971 54.892971 0 1 0 54.922971 54.892971 55.139971 55.139971 0 0 0-54.922971-54.892971z m308.052837-51.664973a54.892971 54.892971 0 1 0 54.923971 54.939971 55.139971 55.139971 0 0 0-54.923971-54.893971zM416.132051 480.132287L696.179903 449.940303v-76.37996l-276.820854 32.299983h-3.226998v74.270961z m0 0" fill="#FFFFFF" /><path d="M946.423771 290.134387H703.129899a50.439973 50.439973 0 0 1-36.491981-15.359992 48.670974 48.670974 0 0 1-15.654991-35.839981V0.00254z m0 0" fill="#8FE2C7" /></svg>