<?xml version="1.0" standalone="no"?><!DOCTYPE svg PUBLIC "-//W3C//DTD SVG 1.1//EN" "http://www.w3.org/Graphics/SVG/1.1/DTD/svg11.dtd"><svg t="1563756211220" class="icon" viewBox="0 0 1024 1024" version="1.1" xmlns="http://www.w3.org/2000/svg" p-id="5793" xmlns:xlink="http://www.w3.org/1999/xlink" width="200" height="200"><defs><style type="text/css"></style></defs><path d="M597.333 85.333v85.334h341.334v682.666H597.333v85.334H1024V85.333H597.333z m0 50.774V0L0 139.947v738.56L597.333 1024V877.227zM426.667 485.12A136.533 136.533 0 0 1 396.8 531.2a132.693 132.693 0 0 1-45.227 29.867 164.267 164.267 0 0 1-58.88 10.24h-45.226v145.92l-76.8-6.4V300.8l70.826-4.693c23.894 0 47.36-2.56 70.827-2.56a120.32 120.32 0 0 1 95.573 34.986 143.36 143.36 0 0 1 30.72 98.134 164.267 164.267 0 0 1-11.946 58.453z" fill="#B7472A" p-id="5794"></path><path d="M352 431.36a73.387 73.387 0 0 1-16.213 50.773 66.133 66.133 0 0 1-49.92 17.067H253.44v-128l18.773-2.56a90.453 90.453 0 0 1 18.774 0A59.307 59.307 0 0 1 337.493 384 67.84 67.84 0 0 1 352 430.933m330.667-132.266a128 128 0 1 0 128 128h-128z" fill="#B7472A" p-id="5795"></path><path d="M725.333 256v128h128a128 128 0 0 0-128-128z m-128 341.333h256V640h-256z m0 85.334h256v42.666h-256z" fill="#B7472A" p-id="5796"></path></svg>