<svg class="icon" width="200px" height="200.00px" viewBox="0 0 1024 1024" version="1.1" xmlns="http://www.w3.org/2000/svg"><path d="M272.46875 567.5c-13.5 0-24.65625-10.6875-25.3125-24.28125-0.09375-3.28125-0.1875-6.5625-0.1875-10.125 0-68.34375 26.625-132.65625 75-180.9375 48.375-48.375 112.59375-75 180.9375-75s132.65625 26.625 180.9375 75c48.375 48.375 75 112.59375 75 180.9375 0 3.5625-0.09375 6.84375-0.1875 10.125-0.5625 13.96875-12.375 24.84375-26.34375 24.1875-13.96875-0.5625-24.84375-12.375-24.1875-26.34375 0.09375-2.53125 0.1875-5.15625 0.1875-7.96875 0-113.15625-92.0625-205.3125-205.3125-205.3125s-205.3125 92.0625-205.3125 205.3125c0 2.8125 0.09375 5.4375 0.1875 7.96875 0.5625 13.96875-10.21875 25.78125-24.1875 26.34375-0.46875 0.09375-0.84375 0.09375-1.21875 0.09375z"  /><path d="M272.28125 778.25c-13.96875 0-25.3125-11.34375-25.3125-25.3125V512.1875c0-13.96875 11.34375-25.3125 25.3125-25.3125h0.1875c13.96875 0 25.3125 11.34375 25.3125 25.3125 0 1.03125-0.09375 2.0625-0.1875 3.09375V752.9375c0 14.0625-11.34375 25.3125-25.3125 25.3125zM733.53125 594.5c-13.96875 0-25.3125-11.34375-25.3125-25.3125v-48.28125c-0.09375-1.03125-0.1875-2.0625-0.1875-3.09375 0-13.96875 11.34375-25.3125 25.3125-25.3125h0.1875c13.96875 0 25.3125 11.34375 25.3125 25.3125V569.1875c0 13.96875-11.34375 25.3125-25.3125 25.3125zM733.53125 778.25c-13.96875 0-25.3125-11.34375-25.3125-25.3125v-39.09375c0-13.96875 11.34375-25.3125 25.3125-25.3125s25.3125 11.34375 25.3125 25.3125V752.9375c0 14.0625-11.34375 25.3125-25.3125 25.3125z"  /><path d="M803.65625 797h-592.5c-13.96875 0-25.3125-11.34375-25.3125-25.3125s11.34375-25.3125 25.3125-25.3125h592.5c13.96875 0 25.3125 11.34375 25.3125 25.3125s-11.34375 25.3125-25.3125 25.3125z"  /><path d="M390.6875 777.125c-13.96875 0-25.3125-11.34375-25.3125-25.3125V507.21875c0-13.96875 11.34375-25.3125 25.3125-25.3125s25.3125 11.34375 25.3125 25.3125v244.59375c0 13.96875-11.34375 25.3125-25.3125 25.3125zM511.34375 217.4375c-13.96875 0-25.3125-11.34375-25.3125-25.3125V113.75c0-13.96875 11.34375-25.3125 25.3125-25.3125s25.3125 11.34375 25.3125 25.3125v78.375c0 13.96875-11.34375 25.3125-25.3125 25.3125zM351.3125 260.28125c-8.71875 0-17.25-4.5-21.9375-12.65625l-39.1875-67.875c-7.03125-12.09375-2.8125-27.5625 9.28125-34.59375s27.5625-2.8125 34.59375 9.28125L373.25 222.3125c7.03125 12.09375 2.8125 27.5625-9.28125 34.59375-3.9375 2.34375-8.34375 3.375-12.65625 3.375zM234.125 377.46875c-4.3125 0-8.625-1.125-12.65625-3.375l-67.875-39.1875c-12.09375-7.03125-16.21875-22.5-9.28125-34.59375 7.03125-12.09375 22.5-16.21875 34.59375-9.28125l67.875 39.1875c12.09375 7.03125 16.21875 22.5 9.28125 34.59375-4.6875 8.15625-13.21875 12.65625-21.9375 12.65625z"  /></svg>