<svg t="1573021227685" class="icon" viewBox="0 0 1024 1024" version="1.1" xmlns="http://www.w3.org/2000/svg" p-id="2093" xmlns:xlink="http://www.w3.org/1999/xlink" width="16" height="16"><defs><style type="text/css"></style></defs><path d="M554.666667 1024 42.666667 1024c-25.6 0-42.666667-17.066667-42.666667-42.666667L0 42.666667c0-25.6 17.066667-42.666667 42.666667-42.666667l512 0c25.6 0 42.666667 17.066667 42.666667 42.666667l0 938.666667C597.333333 1006.933333 580.266667 1024 554.666667 1024zM85.333333 938.666667l426.666667 0L512 85.333333 85.333333 85.333333 85.333333 938.666667z" p-id="2094"></path><path d="M981.333333 1024 554.666667 1024c-25.6 0-42.666667-17.066667-42.666667-42.666667L512 298.666667c0-25.6 17.066667-42.666667 42.666667-42.666667l426.666667 0c25.6 0 42.666667 17.066667 42.666667 42.666667l0 682.666667C1024 1006.933333 1006.933333 1024 981.333333 1024zM597.333333 938.666667l341.333333 0L938.666667 341.333333l-341.333333 0L597.333333 938.666667z" p-id="2095"></path><path d="M213.333333 682.666667c-25.6 0-42.666667-17.066667-42.666667-42.666667L170.666667 213.333333c0-25.6 17.066667-42.666667 42.666667-42.666667s42.666667 17.066667 42.666667 42.666667l0 426.666667C256 665.6 238.933333 682.666667 213.333333 682.666667z" p-id="2096"></path><path d="M384 682.666667c-25.6 0-42.666667-17.066667-42.666667-42.666667L341.333333 213.333333c0-25.6 17.066667-42.666667 42.666667-42.666667s42.666667 17.066667 42.666667 42.666667l0 426.666667C426.666667 665.6 409.6 682.666667 384 682.666667z" p-id="2097"></path><path d="M853.333333 1024l-170.666667 0c-25.6 0-42.666667-17.066667-42.666667-42.666667l0-170.666667c0-25.6 17.066667-42.666667 42.666667-42.666667l170.666667 0c25.6 0 42.666667 17.066667 42.666667 42.666667l0 170.666667C896 1006.933333 878.933333 1024 853.333333 1024zM725.333333 938.666667l85.333333 0 0-85.333333-85.333333 0L725.333333 938.666667z" p-id="2098"></path><path d="M384 1024 213.333333 1024c-25.6 0-42.666667-17.066667-42.666667-42.666667l0-170.666667c0-25.6 17.066667-42.666667 42.666667-42.666667l170.666667 0c25.6 0 42.666667 17.066667 42.666667 42.666667l0 170.666667C426.666667 1006.933333 409.6 1024 384 1024zM256 938.666667l85.333333 0 0-85.333333L256 853.333333 256 938.666667z" p-id="2099"></path><path d="M853.333333 682.666667l-170.666667 0c-25.6 0-42.666667-17.066667-42.666667-42.666667s17.066667-42.666667 42.666667-42.666667l170.666667 0c25.6 0 42.666667 17.066667 42.666667 42.666667S878.933333 682.666667 853.333333 682.666667z" p-id="2100"></path><path d="M853.333333 512l-170.666667 0c-25.6 0-42.666667-17.066667-42.666667-42.666667s17.066667-42.666667 42.666667-42.666667l170.666667 0c25.6 0 42.666667 17.066667 42.666667 42.666667S878.933333 512 853.333333 512z" p-id="2101"></path></svg>