<svg class="icon" width="200px" height="200.00px" viewBox="0 0 1024 1024" version="1.1" xmlns="http://www.w3.org/2000/svg"><path d="M305.664 664.064a92.16 92.16 0 0 0 92.16 92.16h223.232a92.16 92.16 0 0 0 92.16-92.16V480.3072a203.776 203.776 0 0 0-407.552 0z m61.44-183.7568a142.336 142.336 0 0 1 284.672 0v183.7568a30.72 30.72 0 0 1-30.72 30.72H397.824a30.72 30.72 0 0 1-30.72-30.72zM770.4064 773.12H248.4736a71.68 71.68 0 1 0 0 143.616h521.9328a71.68 71.68 0 1 0 0-143.616z m0 82.176H248.4736a10.24 10.24 0 1 1 0-20.736h521.9328a10.24 10.24 0 1 1 0 20.736z"  /><path d="M435.2 645.12a30.72 30.72 0 0 0 30.72-30.72v-98.048a30.72 30.72 0 0 0-61.44 0V614.4a30.72 30.72 0 0 0 30.72 30.72zM512 241.5104a30.72 30.72 0 0 0 30.72-30.72V145.1008a30.72 30.72 0 0 0-61.44 0v65.6896a30.72 30.72 0 0 0 30.72 30.72zM737.28 371.456a30.3616 30.3616 0 0 0 15.36-4.1472l56.8832-32.8192a30.72 30.72 0 0 0-30.72-53.248L721.92 314.112a30.72 30.72 0 0 0 15.36 57.344zM214.7328 334.4896l56.8832 32.8192a30.3616 30.3616 0 0 0 15.36 4.1472 30.72 30.72 0 0 0 15.36-57.344l-56.8832-32.8704a30.72 30.72 0 0 0-30.72 53.248z"  /></svg>