<svg t="1574041918349" class="icon" viewBox="0 0 1024 1024" version="1.1" xmlns="http://www.w3.org/2000/svg" p-id="9520" xmlns:xlink="http://www.w3.org/1999/xlink" width="16" height="16"><defs><style type="text/css"></style></defs><path d="M777.309016 579.64668l-285.768489 0L491.540528 261.277702l45.666062 0 0 277.400914 240.102427 0L777.309016 579.64668z" p-id="9521"></path><path d="M907.575896 525.964036c1.497097-30.607088-0.635473-61.319577-6.385431-91.604324-7.226588-38.052664-20.016893-74.721819-38.017872-108.992343-37.388539-71.171969-95.090728-128.253012-166.868495-165.070546-46.76407-23.988344-96.839559-38.10076-148.830677-41.946344-50.209542-3.714602-100.07116 2.25946-148.202367 17.752316-48.131207 15.493879-92.114954 39.72884-130.729413 72.034617-39.986713 33.45188-72.425519 74.125231-96.41591 120.888278l33.028231 16.944927c88.659249-172.817997 301.386188-241.294578 474.206232-152.643516 120.498398 61.807694 194.734146 188.784644 191.435007 322.606489l-69.391417-18.921955 47.121204 178.978301 131.456984-130.280182L907.575896 525.964036z" p-id="9522"></path><path d="M827.160401 692.034353C738.513432 864.851327 525.793656 933.328931 352.969519 844.679915c-120.497375-61.807694-194.736193-188.785667-191.438077-322.609559l69.390393 18.921955L183.798585 362.015034 52.343647 492.296239l72.406077 19.744693c-1.497097 30.606065 0.636496 61.318554 6.387477 91.605348 7.225565 38.052664 20.017916 74.721819 38.019918 108.99132 37.388539 71.172993 95.090728 128.254036 166.868495 165.071569 46.763047 23.987321 96.836489 38.098713 148.82863 41.944298 9.640568 0.712221 19.262716 1.067308 28.867468 1.067308 40.419572 0 80.444147-6.30152 119.331829-18.822694 48.131207-15.492856 92.114954-39.727817 130.727367-72.034617 39.983643-33.450856 72.421426-74.126254 96.407724-120.889301L827.160401 692.034353z" p-id="9523"></path></svg>