<svg t="1573524695996" class="icon" viewBox="0 0 1024 1024" version="1.1" xmlns="http://www.w3.org/2000/svg" p-id="1723" xmlns:xlink="http://www.w3.org/1999/xlink" width="16" height="16"><defs><style type="text/css"></style></defs><path d="M384 810.666667H128V213.333333h682.666667v128a42.666667 42.666667 0 0 0 85.333333 0V170.666667a42.666667 42.666667 0 0 0-42.666667-42.666667H85.333333a42.666667 42.666667 0 0 0-42.666666 42.666667v682.666666a42.666667 42.666667 0 0 0 42.666666 42.666667h298.666667a42.666667 42.666667 0 0 0 0-85.333333z" p-id="1724"></path><path d="M725.333333 426.666667a256 256 0 1 0 256 256 256 256 0 0 0-256-256z m0 426.666666a170.666667 170.666667 0 1 1 170.666667-170.666666 170.666667 170.666667 0 0 1-170.666667 170.666666z" p-id="1725"></path><path d="M753.92 573.013333a42.666667 42.666667 0 0 0-57.173333 0l-85.333334 78.08a42.666667 42.666667 0 0 0 57.173334 63.146667l14.08-12.8V768a42.666667 42.666667 0 0 0 85.333333 0v-66.56l14.08 12.8A42.666667 42.666667 0 0 0 810.666667 725.333333a42.666667 42.666667 0 0 0 28.586666-74.24zM554.666667 341.333333a42.666667 42.666667 0 0 0-42.666667-42.666666H256a42.666667 42.666667 0 0 0 0 85.333333h256a42.666667 42.666667 0 0 0 42.666667-42.666667zM384 512a42.666667 42.666667 0 0 0-42.666667-42.666667H256a42.666667 42.666667 0 0 0 0 85.333334h85.333333a42.666667 42.666667 0 0 0 42.666667-42.666667zM256 640a42.666667 42.666667 0 0 0 0 85.333333h42.666667a42.666667 42.666667 0 0 0 0-85.333333z" p-id="1726"></path></svg>