<?xml version="1.0" standalone="no"?><!DOCTYPE svg PUBLIC "-//W3C//DTD SVG 1.1//EN" "http://www.w3.org/Graphics/SVG/1.1/DTD/svg11.dtd"><svg t="1569235350359" class="icon" viewBox="0 0 1024 1024" version="1.1" xmlns="http://www.w3.org/2000/svg" p-id="7299" xmlns:xlink="http://www.w3.org/1999/xlink" width="200" height="200"><defs><style type="text/css"></style></defs><path d="M597.333333 469.333333m21.333334 0l170.666666 0q21.333333 0 21.333334 21.333334l0 0q0 21.333333-21.333334 21.333333l-170.666666 0q-21.333333 0-21.333334-21.333333l0 0q0-21.333333 21.333334-21.333334Z"  p-id="7300"></path><path d="M597.333333 725.333333m21.333334 0l170.666666 0q21.333333 0 21.333334 21.333334l0 0q0 21.333333-21.333334 21.333333l-170.666666 0q-21.333333 0-21.333334-21.333333l0 0q0-21.333333 21.333334-21.333334Z"  p-id="7301"></path><path d="M298.666667 213.333333h597.333333a42.666667 42.666667 0 0 1 42.666667 42.666667v640a42.666667 42.666667 0 0 1-42.666667 42.666667H298.666667a42.666667 42.666667 0 0 1-42.666667-42.666667V256a42.666667 42.666667 0 0 1 42.666667-42.666667z m0 42.666667v640h597.333333V256H298.666667z"  p-id="7302"></path><path d="M810.666667 128H213.333333a42.666667 42.666667 0 0 0-42.666666 42.666667v640a42.666667 42.666667 0 0 1-42.666667-42.666667V128a42.666667 42.666667 0 0 1 42.666667-42.666667h597.333333a42.666667 42.666667 0 0 1 42.666667 42.666667z"  p-id="7303"></path><path d="M469.333333 512a85.333333 85.333333 0 1 1 0-170.666667 85.333333 85.333333 0 0 1 0 170.666667z m0-42.666667a42.666667 42.666667 0 1 0 0-85.333333 42.666667 42.666667 0 0 0 0 85.333333zM469.333333 768a85.333333 85.333333 0 1 1 0-170.666667 85.333333 85.333333 0 0 1 0 170.666667z m0-42.666667a42.666667 42.666667 0 1 0 0-85.333333 42.666667 42.666667 0 0 0 0 85.333333z"  p-id="7304"></path><path d="M597.333333 384m21.333334 0l85.333333 0q21.333333 0 21.333333 21.333333l0 0q0 21.333333-21.333333 21.333334l-85.333333 0q-21.333333 0-21.333334-21.333334l0 0q0-21.333333 21.333334-21.333333Z"  p-id="7305"></path><path d="M597.333333 640m21.333334 0l42.666666 0q21.333333 0 21.333334 21.333333l0 0q0 21.333333-21.333334 21.333334l-42.666666 0q-21.333333 0-21.333334-21.333334l0 0q0-21.333333 21.333334-21.333333Z"  p-id="7306"></path><path d="M725.333333 640m21.333334 0l42.666666 0q21.333333 0 21.333334 21.333333l0 0q0 21.333333-21.333334 21.333334l-42.666666 0q-21.333333 0-21.333334-21.333334l0 0q0-21.333333 21.333334-21.333333Z"  p-id="7307"></path><path d="M789.333333 405.333333m-42.666666 0a42.666667 42.666667 0 1 0 85.333333 0 42.666667 42.666667 0 1 0-85.333333 0Z"  p-id="7308"></path></svg>
