<?xml version="1.0" standalone="no"?><!DOCTYPE svg PUBLIC "-//W3C//DTD SVG 1.1//EN" "http://www.w3.org/Graphics/SVG/1.1/DTD/svg11.dtd"><svg class="icon" width="200px" height="200.00px" viewBox="0 0 1024 1024" version="1.1" xmlns="http://www.w3.org/2000/svg"><path  d="M229.546667 186.474667v68.181333h621.290666v463.893333h69.184V186.474667z"  /><path  d="M587.413333 577.109333m-74.176 0a74.176 74.176 0 1 0 148.352 0 74.176 74.176 0 1 0-148.352 0Z"  /><path  d="M103.97866700000003 302.314667v532.074666H794.453333V302.314667H103.97866700000003z m89.984 129.408h99.370666v49.13066599999999H193.962667v-49.13066599999999z m189.077333 296.106666H193.962667v-49.13066599999999h189.098666v49.13066599999999z m0-124.28800000000001H193.962667v-49.13066599999999h189.098666v49.13066599999999z m354.816-11.392l-41.877333 14.890667a111.914667 111.914667 0 0 1-10.624 25.621333l19.093333 40.149334a152.128 152.128 0 0 1-21.290667 21.290666l-40.149333-19.093333a111.914667 111.914667 0 0 1-25.621333 10.624l-14.890667 41.877333a152.469333 152.469333 0 0 1-30.122667 0l-14.890666-41.877333a111.914667 111.914667 0 0 1-25.621334-10.624l-40.149333 19.093333a152.128 152.128 0 0 1-21.290667-21.290666l19.093334-40.149334a111.914667 111.914667 0 0 1-10.624-25.621333l-41.877334-14.890667a152.469333 152.469333 0 0 1 0-30.122665999999995l41.877334-14.890667c2.496-9.045333 6.08-17.642667 10.624-25.621333l-19.093334-40.149334c6.378667-7.786666999999999 13.504-14.912 21.290667-21.290666l40.149333 19.093333a111.914667 111.914667 0 0 1 25.621334-10.624L572.373333 426.666667a152.469333 152.469333 0 0 1 30.122667 0l14.890667 41.877333c9.045333 2.496 17.642667 6.08 25.621333 10.624l40.149333-19.093333c7.786666999999999 6.378667 14.912 13.504 21.290667 21.290666l-19.093333 40.149334c4.543999999999999 7.978667 8.128 16.576 10.624 25.621333l41.877333 14.890667a152.469333 152.469333 0 0 1 0 30.122665999999995z"  /></svg>