<?xml version="1.0" standalone="no"?><!DOCTYPE svg PUBLIC "-//W3C//DTD SVG 1.1//EN" "http://www.w3.org/Graphics/SVG/1.1/DTD/svg11.dtd"><svg t="1569235213366" class="icon" viewBox="0 0 1024 1024" version="1.1" xmlns="http://www.w3.org/2000/svg" p-id="974" xmlns:xlink="http://www.w3.org/1999/xlink" width="200" height="200"><defs><style type="text/css"></style></defs><path d="M109.16977799 230.058667h190.52088901a12.91377801 12.91377801 0 0 0 12.970666-12.913778V30.890667c0-11.548444-13.653333-17.237333-22.300444-9.386667L100.579556 207.75822199c-8.647111 8.704-2.901333 22.300444 8.59022201 22.30044501zM950.044444 832.39822199a190.008889 190.008889 0 1 0-379.904 2e-8 190.008889 190.008889 0 0 0 379.904 0z m-260.152888 70.76977801v-22.755556h56.945777v-30.947555h-56.945777v-22.528h48.583111l-59.16444499-101.660445h31.80088899c27.648 50.517333 44.487111 82.488889 50.460445 96.028445h0.625777c1.991111-5.575111 7.56622201-16.78222201 16.497778-33.73511099l33.905778-62.35022201h30.094222l-59.790222 101.660444h47.104v22.528h-54.897778v30.947556h54.897778v22.755555h-54.897778v45.056h-28.21688901v-45.056h-57.00266599z m0 0"  p-id="975"></path><path d="M790.755556 0.739556L347.818667 0v230.058667c0 19.399111-11.036444 32.199111-30.435556 32.19911101h-208.21333299a35.271111 35.271111 0 0 0-35.21422201 35.21422199v632.149333a35.271111 35.271111 0 0 0 35.21422199 35.214223h468.53688901a220.78577799 220.78577799 0 0 1 248.26311099-341.84533401V35.95377799A35.21422201 35.21422201 0 0 0 790.755556 0.739556zM425.016889 114.915556c0-1.93422201 2.218667-3.527111 4.892444-3.527112h290.986667c2.730667 0 4.892444 1.592889 4.892444 3.527112v41.585777c0 1.93422201-2.16177801 3.527111-4.892444 3.527111H429.909333c-2.67377801 0-4.892444-1.592889-4.892444-3.527111V114.915556z m0 100.579555c0-1.877333 2.218667-3.47022201 4.892444-3.470222h290.986667c2.730667 0 4.892444 1.592889 4.892444 3.470222v41.64266701c0 1.93422201-2.16177801 3.527111-4.892444 3.52711099H429.909333c-2.67377801 0-4.892444-1.536-4.892444-3.52711099v-41.64266701zM291.498667 820.62222201c-7.452444 0-17.863111-2.901333-27.875556-6.20088901l-19.79733299 47.843556-39.31022201-13.710222c5.404444-13.312 10.63822199-27.079111 16.27022201-40.334223 37.660444-91.989333 87.381333-188.472889 229.888-230.172444 8.988444-2.67377801 18.31822199-5.176889 28.10311099-6.997333 0 0-8.30577799 0-22.528 1.649777-55.580444 5.802667-199.111111 36.75022201-253.212445 190.520889 0 0-36.408889-36.181333-36.408888-77.710222 0-41.642667 41.58577799-130.332444 145.635555-151.09688901 71.623111-14.392889 162.92977799-21.276444 219.761778-37.54666599 25.6-7.452444 44.316444-17.29422201 50.801778-29.923556-0.056889 0-62.464 353.67822199-291.328 353.67822199z m465.86311101-445.724444c0 1.93422201-3.868444 3.527111-8.64711101 3.52711099H235.292444c-4.778667 0-8.647111-1.592889-8.647111-3.52711101v-41.58577799c0-1.93422201 3.868444-3.527111 8.647111-3.527111h513.422223c4.778667 0 8.647111 1.592889 8.64711101 3.527111v41.58577799z"  p-id="976"></path></svg>
