<?xml version="1.0" standalone="no"?><!DOCTYPE svg PUBLIC "-//W3C//DTD SVG 1.1//EN" "http://www.w3.org/Graphics/SVG/1.1/DTD/svg11.dtd"><svg class="icon" width="200px" height="200.00px" viewBox="0 0 1024 1024" version="1.1" xmlns="http://www.w3.org/2000/svg"><path  d="M967.295695 126.255678H60.691326C29.459658 126.255678 3.987021 151.728315 3.987021 182.959983v680.008652c0 31.231668 25.472637 56.704305 56.704305 56.704305h906.604369c31.231668 0 56.704305-25.472637 56.704305-56.704305v-680.008652c0-31.231668-25.472637-56.704305-56.704305-56.704305z m0 680.008653c0 31.231668-25.472637 56.704305-56.704304 56.704304H117.395631c-31.231668 0-56.704305-25.472637-56.704305-56.704304V239.664287C60.691326 208.211118 85.942462 182.959983 117.395631 182.959983h793.417261c31.231668 0 56.704305 25.472637 56.704305 56.704304V806.264331z"  /><path  d="M774.811162 302.570625c-0.221501-0.886005-0.664504-1.77201-0.886005-2.658014-0.221501-0.443002-0.443002-0.886005-0.664504-1.550508-0.221501-0.443002-0.221501-0.664504-0.443002-1.107506s-0.664504-1.107506-0.886005-1.550509c-0.221501-0.221501-0.221501-0.664504-0.443002-0.886005-0.221501-0.443002-0.664504-0.886005-0.886005-1.329007-0.221501-0.221501-0.443002-0.664504-0.664504-0.886004-0.221501-0.443002-0.664504-0.664504-0.886004-1.107506-0.221501-0.443002-0.664504-0.664504-0.886005-1.107506l-0.886005-0.886005-1.107506-1.107506c-0.221501-0.221501-0.664504-0.443002-0.886005-0.664504-0.443002-0.443002-0.886005-0.664504-1.329007-0.886004-0.443002-0.221501-0.886005-0.443002-1.329007-0.886005-0.443002-0.221501-0.664504-0.443002-1.107506-0.664504l-2.658014-1.329007c-0.221501 0-0.221501 0-0.443002-0.221501-0.664504-0.221501-1.550508-0.664504-2.215012-0.886005-0.221501 0-0.664504-0.221501-1.107506-0.221501-0.664504-0.221501-1.107506-0.221501-1.77201-0.443002-0.443002 0-0.886005-0.221501-1.329007-0.221502-0.443002 0-1.107506-0.221501-1.550508-0.221501h-5.53753c-0.664504 0-1.107506 0.221501-1.77201 0.221501-0.443002 0-0.664504 0-1.107505 0.221502-0.664504 0.221501-1.550508 0.443002-2.215012 0.664503-0.221501 0-0.221501 0-0.443003 0.221501-0.886005 0.221501-1.77201 0.664504-2.658014 0.886005l-1.329007 0.664504-1.329007 0.664503c-0.443002 0.221501-0.886005 0.664504-1.550509 0.886005-0.221501 0.221501-0.664504 0.443002-0.886004 0.664504-0.443002 0.221501-0.886005 0.664504-1.329008 0.886004-0.221501 0.221501-0.664504 0.443002-0.886004 0.664504-0.443002 0.221501-0.664504 0.664504-1.107506 0.886005-0.443002 0.221501-0.664504 0.664504-1.107506 0.886005-0.221501 0.221501-0.443002 0.664504-0.886005 0.886004-0.443002 0.443002-0.664504 0.886005-1.107506 1.329007-0.221501 0.221501-0.443002 0.443002-0.664503 0.886005-0.443002 0.443002-0.664504 0.886005-1.107506 1.550508-0.221501 0.221501-0.443002 0.664504-0.664504 0.886005-0.221501 0.443002-0.664504 0.886005-0.886005 1.550509l-1.329007 2.658014-132.900714 318.075708-88.600476-167.011897c0-0.221501-0.221501-0.221501-0.221501-0.443002-0.221501-0.443002-0.664504-1.107506-0.886005-1.550508-0.221501-0.221501-0.443002-0.664504-0.664503-0.886005-0.221501-0.443002-0.664504-0.886005-0.886005-1.329007-0.221501-0.443002-0.443002-0.664504-0.886005-1.107506-0.221501-0.443002-0.664504-0.664504-0.886004-1.107506l-1.107506-1.107506c-0.221501-0.221501-0.664504-0.443002-0.886005-0.664504-0.443002-0.443002-0.886005-0.664504-1.329007-1.107506-0.221501 0-0.221501-0.221501-0.443003-0.221501-0.221501-0.221501-0.443002-0.221501-0.443002-0.443002-0.443002-0.221501-0.886005-0.664504-1.329007-0.886005-0.443002-0.221501-0.664504-0.443002-1.107506-0.664504l-1.329007-0.664503-1.329007-0.664504c-0.443002-0.221501-0.664504-0.221501-1.107506-0.443002s-1.107506-0.443002-1.550509-0.664504c-0.443002 0-0.664504-0.221501-1.107506-0.221501-0.443002-0.221501-1.107506-0.221501-1.550508-0.443002-0.443002 0-0.664504-0.221501-1.107506-0.221501s-1.107506-0.221501-1.550508-0.221502c-0.443002 0-0.886005 0-1.329007-0.221501H471.797534c-0.443002 0-1.107506 0-1.550508 0.221501-0.443002 0-0.664504 0-1.107506 0.221502-0.443002 0-1.107506 0.221501-1.550509 0.221501-0.443002 0-0.886005 0.221501-1.107505 0.221501-0.443002 0.221501-0.886005 0.221501-1.329008 0.443002-0.443002 0.221501-0.886005 0.221501-1.329007 0.443003-0.443002 0.221501-0.886005 0.221501-1.107506 0.443002-0.443002 0.221501-1.107506 0.443002-1.550508 0.664504-0.221501 0-0.443002 0.221501-0.443002 0.221501-0.221501 0-0.221501 0.221501-0.443003 0.221501-0.443002 0.221501-1.107506 0.664504-1.550508 0.886005-0.221501 0.221501-0.664504 0.443002-0.886005 0.664503-0.443002 0.221501-0.886005 0.664504-1.329007 0.886005-0.443002 0.221501-0.664504 0.664504-1.107506 0.886005-0.443002 0.221501-0.664504 0.664504-0.886005 0.886005-0.443002 0.443002-0.886005 0.664504-1.107506 1.107506-0.221501 0.221501-0.443002 0.664504-0.664503 0.886004-0.443002 0.443002-0.886005 0.886005-1.107506 1.329007 0 0.221501-0.221501 0.221501-0.221501 0.443003l-143.089769 192.263032H117.395631c-15.948086 0-28.795155 12.847069-28.795155 28.795155s12.847069 28.795155 28.795155 28.795155H322.06273c1.107506 0 1.993511 0 3.101016-0.221501 0.221501 0 0.443002 0 0.664504-0.221502 0.886005 0 1.550508-0.221501 2.436513-0.443002 0.221501 0 0.664504-0.221501 0.886005-0.221501 0.664504-0.221501 1.329007-0.443002 2.215012-0.664504 0.221501 0 0.664504-0.221501 0.886005-0.443002 0.664504-0.221501 1.329007-0.443002 1.99351-0.886005 0.443002-0.221501 0.664504-0.221501 1.107506-0.443002 0.664504-0.221501 1.107506-0.664504 1.77201-0.886005 0.221501-0.221501 0.664504-0.443002 0.886004-0.664504 0.664504-0.443002 1.329007-0.886005 1.993511-1.550508l0.664504-0.664503c0.664504-0.664504 1.329007-1.107506 1.99351-1.77201 0.221501-0.221501 0.443002-0.443002 0.664504-0.886005 0.443002-0.443002 0.886005-1.107506 1.329007-1.772009l0.443003-0.443003 124.483668-167.233398 95.688514 180.52347c0.443002 0.664504 0.886005 1.329007 1.329007 2.215012 0.221501 0.221501 0.221501 0.443002 0.443003 0.443002 0.443002 0.443002 0.664504 1.107506 1.107506 1.550508l0.443002 0.443003c0.443002 0.664504 1.107506 1.329007 1.772009 1.772009l0.221502 0.221501 1.550508 1.550509 0.443002 0.443002c1.329007 1.107506 2.658014 1.993511 4.208523 2.879516 0.221501 0 0.221501 0.221501 0.443002 0.221501 0.886005 0.443002 1.550508 0.886005 2.436513 1.107506 0.664504 0.221501 1.550508 0.664504 2.215012 0.886005 0.221501 0 0.443002 0.221501 0.664504 0.221501 0.886005 0.221501 1.550508 0.443002 2.436513 0.664503h0.443002c0.664504 0.221501 1.329007 0.221501 1.993511 0.221501h0.664504c0.886005 0 1.550508 0.221501 2.436513 0.221502 0.886005 0 1.993511 0 2.879515-0.221502h0.664504c0.886005-0.221501 1.77201-0.221501 2.879515-0.443002 0.221501 0 0.443002-0.221501 0.664504-0.221501 0.886005-0.221501 1.77201-0.443002 2.658014-0.886005 0 0 0.221501 0 0.221501-0.221501 0.886005-0.443002 1.993511-0.886005 2.879516-1.329007 0 0 0.221501 0 0.221501-0.221501 0 0 0.221501 0 0.221501-0.221502 0.664504-0.443002 1.550508-0.886005 2.215012-1.329007 0.221501 0 0.221501-0.221501 0.443002-0.221501 0.664504-0.443002 1.107506-0.886005 1.77201-1.329007 0.221501-0.221501 0.443002-0.443002 0.664503-0.443002 0.443002-0.443002 1.107506-0.886005 1.550509-1.329008l0.443002-0.443002 1.77201-1.772009c0.221501-0.221501 0.221501-0.443002 0.443002-0.443003 0.443002-0.443002 0.664504-0.886005 1.107506-1.550508 0.221501-0.221501 0.221501-0.443002 0.443002-0.664504 0.221501-0.443002 0.664504-1.107506 0.886005-1.550508 0.221501-0.221501 0.221501-0.443002 0.443003-0.664504 0.443002-0.664504 0.664504-1.550508 1.107506-2.215012L742.693489 396.48713l84.834956 284.407527c3.76552 12.404067 15.283582 20.599611 27.687648 20.599611 2.658014 0 5.53753-0.443002 8.195544-1.107506 15.283582-4.651525 23.922128-20.599611 19.270604-35.883193l-107.871079-361.932944z"  /></svg>