<?xml version="1.0" standalone="no"?><!DOCTYPE svg PUBLIC "-//W3C//DTD SVG 1.1//EN" "http://www.w3.org/Graphics/SVG/1.1/DTD/svg11.dtd"><svg t="1569235620699" class="icon" viewBox="0 0 1024 1024" version="1.1" xmlns="http://www.w3.org/2000/svg" p-id="1077" xmlns:xlink="http://www.w3.org/1999/xlink" width="200" height="200"><defs><style type="text/css"></style></defs><path d="M531.82591156 891.45660687H109.86529156A78.6791175 78.6791175 0 0 1 34.69415937 809.77064375V113.68596313A78.6791175 78.6791175 0 0 1 109.86529156 32h553.76067094a78.6791175 78.6791175 0 0 1 75.17113125 81.68596313v336.76667062a19.04335312 19.04335312 0 0 1-37.58556563 0V113.68596313a41.09355188 41.09355188 0 0 0-37.58556562-44.10039751H109.86529156a41.09355188 41.09355188 0 0 0-37.58556562 44.1003975v696.08468063a41.5946925 41.5946925 0 0 0 37.58556562 44.1003975h421.96062a19.04335312 19.04335312 0 0 1 0 37.58556563z"  p-id="1078"></path><path d="M868.59258125 991.18364187a25.05704438 25.05704438 0 0 1-13.53080344-3.50798624l-134.80689656-70.66086375L585.94912625 987.67565562a30.0684525 30.0684525 0 0 1-31.07073469 1e-8 28.56502969 28.56502969 0 0 1-11.52624-28.56503063l26.05932563-150.34226344-109.74985219-108.24642937a28.06388906 28.06388906 0 0 1-7.51711313-29.56731188 28.56502969 28.56502969 0 0 1 23.55362063-20.04563531l150.34226344-22.05019875 67.15287844-136.31031844a30.56959312 30.56959312 0 0 1 50.11408781 0l67.1528775 136.31031844 150.34226344 22.05019875a28.56502969 28.56502969 0 0 1 23.55362156 20.04563531 28.06388906 28.06388906 0 0 1-7.51711313 29.56731188l-105.23958469 106.24186593 25.558185 150.34226344A28.56502969 28.56502969 0 0 1 886.63365313 984.16766938a30.0684525 30.0684525 0 0 1-18.04107188 7.01597249zM498.24947187 683.4831425l100.22817563 100.22817563a28.56502969 28.56502969 0 0 1 8.51939531 25.55818406l-23.55362156 137.81374219L706.72407781 883.93949375a28.56502969 28.56502969 0 0 1 29.56731188 0l123.28065562 65.14831406-23.55362062-137.81374125a28.56502969 28.56502969 0 0 1 8.51939437-25.558185l100.22817563-100.22817562-138.31488188-20.04563532a28.56502969 28.56502969 0 0 1-22.05019875-16.03650843l-61.64032781-125.28521907-62.14146937 125.28521907a28.56502969 28.56502969 0 0 1-22.05019875 16.03650843z m226.01453626 229.52252156z m-150.34226344-105.23958375z"  p-id="1079"></path><path d="M170.00219656 269.03963563l465.05873531 0 1e-8 37.084425-465.05873532 0 0-37.084425Z"  p-id="1080"></path><path d="M167.4964925 416.37505344l264.1012425 0 0 37.084425-264.1012425 0 0-37.084425Z"  p-id="1081"></path></svg>
