<svg class="icon" width="200px" height="200.00px" viewBox="0 0 1024 1024" version="1.1" xmlns="http://www.w3.org/2000/svg"><path d="M615.066377 880.332926l0-44.182268c51.54598-18.409279 95.729272-47.864124 132.547829-84.683704 62.591547-58.909691 99.411127-147.275251 99.411127-239.321644l0 0 0 0 0 0 0 0c0-95.729272-36.818557-180.411953-99.411127-243.004523-36.818557-36.818557-81.000825-62.591547-132.547829-81.001849l0-44.182268c62.591547 18.409279 117.820406 51.54598 162.002674 95.729272 69.955258 69.955258 114.13855 165.68453 114.13855 272.459369l0 0 0 0 0 0 0 0c0 106.774839-44.182268 202.503087-114.13855 272.459369C732.886783 828.786946 677.658947 861.923648 615.066377 880.332926L615.066377 880.332926zM615.066377 710.966541c3.681856 0 7.363711-3.681856 11.045567-3.681856 14.727423-14.727423 25.77299-29.454846 33.136701-47.864124l0 0c7.363711-18.409279 11.045567-36.818557 11.045567-55.227836 0-22.091134-3.681856-40.500413-11.045567-55.227836l0 0c-7.363711-18.409279-18.409279-33.136701-29.454846-47.864124l0 0-3.681856 0c-3.681856-3.681856-7.363711-11.045567-11.045567-14.727423l0 51.54598c3.681856 7.363711 11.045567 14.727423 11.045567 22.091134l3.681856 0c3.681856 14.727423 7.363711 29.454846 7.363711 44.182268s-3.681856 29.454846-7.363711 40.500413l-3.681856 0c0 7.363711-7.363711 18.409279-11.045567 22.091134L615.066377 710.966541 615.066377 710.966541zM615.066377 353.824491c3.681856-3.681856 7.363711-7.363711 11.045567-11.045567 7.363711-7.363711 7.363711-18.409279 0-25.77299-3.681856-3.681856-7.363711-3.681856-11.045567-3.681856L615.066377 353.824491zM615.066377 143.957693l0 44.182268c-18.409279-3.681856-36.818557-11.045567-55.227836-11.045567l0-44.182268C578.24782 132.912126 596.657098 136.593981 615.066377 143.957693L615.066377 143.957693zM615.066377 313.324078l0 40.500413c-3.681856 7.363711-7.363711 14.727423-11.045567 25.77299-7.363711 11.045567-11.045567 25.77299-11.045567 40.500413s3.681856 29.454846 11.045567 44.182268c3.681856 7.363711 7.363711 14.727423 11.045567 22.091134l0 51.54598c-3.681856-3.681856-7.363711-11.045567-11.045567-14.727423l0 0c-14.727423-11.045567-25.77299-29.454846-33.136701-47.864124-3.681856-14.727423-7.363711-29.454846-11.045567-44.182268l0-18.409279c3.681856-18.409279 7.363711-33.136701 11.045567-47.864124 7.363711-18.409279 18.409279-33.136701 33.136701-47.864124C607.702666 313.324078 611.384521 313.324078 615.066377 313.324078L615.066377 313.324078zM615.066377 666.784272l0 44.182268c-3.681856 0-7.363711-3.681856-11.045567-3.681856-7.363711-7.363711-7.363711-18.409279 0-25.77299C607.702666 677.829839 611.384521 674.147984 615.066377 666.784272L615.066377 666.784272zM615.066377 836.150658l0 44.182268c-18.409279 3.681856-36.818557 11.045567-55.227836 11.045567l0-44.182268C578.24782 843.514369 596.657098 839.832514 615.066377 836.150658L615.066377 836.150658zM559.838541 611.556437l0-18.409279c0 3.681856 0 7.363711 0 11.045567C559.838541 604.192725 559.838541 607.874581 559.838541 611.556437zM453.063703 611.556437c0-3.681856 0-7.363711 0-7.363711 0-3.681856 0-7.363711 0-11.045567L453.063703 611.556437 453.063703 611.556437zM559.838541 132.912126l0 44.182268c-14.727423-3.681856-33.136701-7.363711-51.54598-7.363711l0 0 0 0 0 0 0 0c-18.409279 0-36.818557 3.681856-55.227836 7.363711l0-44.182268c18.409279-3.681856 36.818557-3.681856 55.227836-3.681856l0 0 0 0 0 0 0 0C526.70184 129.23027 545.111119 129.23027 559.838541 132.912126L559.838541 132.912126zM559.838541 412.734182l0 18.409279c0-3.681856 0-7.363711 0-11.045567S559.838541 412.734182 559.838541 412.734182L559.838541 412.734182zM559.838541 593.147158l0 18.409279c0 14.727423-3.681856 33.136701-11.045567 47.864124-7.363711 18.409279-18.409279 33.136701-29.454846 47.864124-7.363711 3.681856-18.409279 3.681856-25.77299 0-3.681856-7.363711-3.681856-18.409279 0-25.77299 11.045567-11.045567 22.091134-22.091134 25.77299-36.818557 7.363711-11.045567 7.363711-25.77299 7.363711-40.500413s0-29.454846-7.363711-44.182268c-3.681856-14.727423-14.727423-25.77299-25.77299-36.818557-11.045567-11.045567-22.091134-29.454846-29.454846-47.864124-7.363711-14.727423-11.045567-29.454846-11.045567-44.182268l0-18.409279c0-18.409279 3.681856-33.136701 11.045567-47.864124 7.363711-18.409279 18.409279-33.136701 29.454846-47.864124 7.363711-7.363711 18.409279-7.363711 25.77299 0s7.363711 18.409279 0 25.77299c-11.045567 7.363711-18.409279 22.091134-25.77299 36.818557-3.681856 11.045567-7.363711 25.77299-7.363711 40.500413s3.681856 29.454846 7.363711 44.182268c7.363711 14.727423 14.727423 25.77299 25.77299 36.818557l0 0c11.045567 11.045567 22.091134 29.454846 29.454846 47.864124C556.156686 563.691289 559.838541 578.418712 559.838541 593.147158L559.838541 593.147158zM559.838541 847.196225l0 44.182268c-14.727423 3.681856-33.136701 3.681856-51.54598 3.681856l0 0 0 0 0 0 0 0c-18.409279 0-36.818557 0-55.227836-3.681856l0-44.182268c18.409279 3.681856 36.818557 3.681856 55.227836 3.681856l0 0 0 0 0 0 0 0C526.70184 850.878081 545.111119 850.878081 559.838541 847.196225zM397.835867 537.918299c7.363711 7.363711 11.045567 14.727423 14.727423 22.091134 3.681856 14.727423 7.363711 29.454846 7.363711 44.182268s-3.681856 29.454846-7.363711 40.500413c-3.681856 7.363711-7.363711 18.409279-14.727423 22.091134l0 44.182268c3.681856 0 11.045567-3.681856 11.045567-3.681856 14.727423-14.727423 25.77299-29.454846 33.136701-47.864124 7.363711-14.727423 11.045567-33.136701 11.045567-47.864124l0-18.409279c0-14.727423-3.681856-29.454846-11.045567-44.182268-7.363711-18.409279-18.409279-36.818557-33.136701-47.864124l0-3.681856c-3.681856-3.681856-7.363711-7.363711-11.045567-11.045567L397.835867 537.918299 397.835867 537.918299zM397.835867 353.824491c3.681856-3.681856 7.363711-7.363711 11.045567-11.045567 7.363711-7.363711 7.363711-18.409279 0-25.77299 0-3.681856-7.363711-3.681856-11.045567-3.681856L397.835867 353.824491 397.835867 353.824491zM453.063703 132.912126l0 44.182268c-18.409279 0-36.818557 7.363711-55.227836 11.045567l0-44.182268C416.245146 136.593981 434.654424 132.912126 453.063703 132.912126L453.063703 132.912126zM453.063703 412.734182l0 18.409279c0-3.681856 0-7.363711 0-11.045567S453.063703 416.416038 453.063703 412.734182L453.063703 412.734182zM453.063703 847.196225l0 44.182268c-18.409279-3.681856-36.818557-7.363711-55.227836-11.045567l0-44.182268C416.245146 839.832514 434.654424 847.196225 453.063703 847.196225zM386.7903 523.190877c3.681856 3.681856 7.363711 11.045567 11.045567 14.727423l0-51.54598c-3.681856-7.363711-7.363711-14.727423-11.045567-22.091134l0 0c-7.363711-14.727423-7.363711-29.454846-7.363711-44.182268s0-29.454846 7.363711-40.500413l0 0c3.681856-11.045567 7.363711-18.409279 11.045567-25.77299l0-40.500413c-3.681856 0-7.363711 0-11.045567 3.681856-14.727423 14.727423-25.77299 29.454846-33.136701 47.864124l0 0 0 0c-3.681856 18.409279-11.045567 36.818557-11.045567 55.227836s3.681856 36.818557 11.045567 55.227836l0 0C361.01731 493.736031 372.062877 508.463454 386.7903 523.190877L386.7903 523.190877 386.7903 523.190877zM397.835867 666.784272c-3.681856 7.363711-7.363711 11.045567-11.045567 14.727423-7.363711 7.363711-7.363711 18.409279 0 25.77299 3.681856 0 7.363711 3.681856 11.045567 3.681856L397.835867 666.784272 397.835867 666.784272zM397.835867 143.957693l0 44.182268c-47.864124 18.409279-95.729272 44.182268-132.547829 81.001849-62.591547 62.591547-99.411127 147.275251-99.411127 243.004523l0 0 0 0 0 0 0 0c0 92.047416 36.818557 180.411953 99.411127 239.321644 36.818557 36.818557 84.683704 66.273403 132.547829 84.683704l0 44.182268c-62.591547-18.409279-117.820406-51.54598-162.002674-95.729272-69.955258-69.955258-114.13855-165.68453-114.13855-272.459369l0 0 0 0 0 0 0 0c0-106.774839 44.182268-202.503087 114.13855-272.459369C280.015462 195.503673 335.243297 162.366971 397.835867 143.957693z" /></svg>