<?xml version="1.0" standalone="no"?><!DOCTYPE svg PUBLIC "-//W3C//DTD SVG 1.1//EN" "http://www.w3.org/Graphics/SVG/1.1/DTD/svg11.dtd"><svg class="icon" width="200px" height="200.00px" viewBox="0 0 1024 1024" version="1.1" xmlns="http://www.w3.org/2000/svg"><path d="M529.066667 469.333333H725.333333c115.2 0 213.333333 106.666667 213.333334 234.666667S844.8 938.666667 725.333333 938.666667H341.333333l29.866667-85.333334H725.333333c68.266667 0 128-64 128-149.333333S793.6 554.666667 725.333333 554.666667H298.666667c-119.466667 0-213.333333-106.666667-213.333334-234.666667S179.2 85.333333 298.666667 85.333333h379.733333l-25.6 85.333334H298.666667C230.4 170.666667 170.666667 234.666667 170.666667 320S230.4 469.333333 298.666667 469.333333h230.4z"  /><path d="M768 187.733333c34.133333 0 59.733333-25.6 59.733333-59.733333s-25.6-59.733333-59.733333-59.733333-59.733333 25.6-59.733333 59.733333 25.6 59.733333 59.733333 59.733333zM768 256c-72.533333 0-128-55.466667-128-128s55.466667-128 128-128 128 55.466667 128 128-55.466667 128-128 128zM256 955.733333c34.133333 0 59.733333-25.6 59.733333-59.733333s-25.6-59.733333-59.733333-59.733333-59.733333 25.6-59.733333 59.733333 25.6 59.733333 59.733333 59.733333zM256 1024c-72.533333 0-128-55.466667-128-128s55.466667-128 128-128 128 55.466667 128 128-55.466667 128-128 128z"  /></svg>