<?xml version="1.0" standalone="no"?><!DOCTYPE svg PUBLIC "-//W3C//DTD SVG 1.1//EN" "http://www.w3.org/Graphics/SVG/1.1/DTD/svg11.dtd"><svg class="icon" width="200px" height="200.00px" viewBox="0 0 1024 1024" version="1.1" xmlns="http://www.w3.org/2000/svg"><path d="M617.2 794.9L578 755.6c-0.2-0.2-0.2-0.5 0-0.7l301.2-301.2c0.2-0.2 0.5-0.2 0.7 0l39.2 39.2c0.2 0.2 0.2 0.5 0 0.7L617.9 794.9c-0.2 0.1-0.5 0.1-0.7 0zM228 211.3l107.5-107.5c0.2-0.2 0.2-0.5 0-0.7l-39.2-39.2c-0.2-0.2-0.5-0.2-0.7 0L188.1 171.4c-0.2 0.2-0.2 0.5 0 0.7l39.2 39.2c0.2 0.2 0.5 0.2 0.7 0zM779.3 932c0 15.6-12.6 28.2-28.2 28.2H133c-15.6 0-28.2-12.6-28.2-28.2s12.6-28.2 28.2-28.2h234.1c-9.1-7.1-18.5-13.6-26.8-21.9-112.6-112.6-112.6-295.2 0-407.9 0.7-0.7 1.5-1.1 2.3-1.8-14.3-21-18.3-46.2-11.2-69.8L246 317c-22-22-22-57.7 0-79.8l115.5-115.5c11-11 25.4-16.5 39.9-16.5s28.9 5.5 39.9 16.5l322 322c22 22 22 57.7 0 79.8L647.6 638.9c-11 11-25.5 16.5-39.9 16.5s-28.9-5.5-39.9-16.5L433.9 505c-7.8 2.3-15.7 4.6-23.7 4.6-6.8 0-13.4-2.2-20.1-3.9-3.2 2.9-6.9 5.1-10 8.2-90.5 90.5-90.5 237.6 0 328.1 31.5 31.5 70.5 52.3 112.9 61.8h258.1c15.5 0 28.2 12.6 28.2 28.2zM429.4 406.9c-6.9-6.9-15-8-19.2-8-4.2 0-12.3 1-19.2 8-10.6 10.6-10.6 27.8 0 38.4 6.9 6.9 15 7.9 19.2 7.9 4.2 0 12.3-1 19.2-7.9 10.6-10.6 10.6-27.9 0-38.4z m-63.5-49.7c13.7-8.8 28.6-14.7 44.3-14.7 21.4 0 42.8 8.2 59.1 24.5 28.3 28.3 30.5 71.1 9.8 103.4L607.7 599l115.5-115.5-322-322h-0.1L285.7 277l80.2 80.2z"  /></svg>