<svg t="1586830733935" class="icon" viewBox="0 0 1024 1024" version="1.1" xmlns="http://www.w3.org/2000/svg" p-id="1599" xmlns:xlink="http://www.w3.org/1999/xlink" width="200" height="200"><defs><style type="text/css"></style></defs><path d="M288 736h64V384a32 32 0 0 1 32-32h192V288H288v448z m-64 16V256a32 32 0 0 1 32-32h352a32 32 0 0 1 32 32v96h128a32 32 0 0 1 32 32v400a16 16 0 0 1-16 16h-544a16 16 0 0 1-16-16v-32z m192-16h320V416H416v320z m224-32a32 32 0 0 1-32-32v-32a32 32 0 0 1 64 0v32a32 32 0 0 1-32 32z m-128 0a32 32 0 0 1-32-32v-32a32 32 0 0 1 64 0v32a32 32 0 0 1-32 32z m128-128a32 32 0 0 1-32-32v-32a32 32 0 0 1 64 0v32a32 32 0 0 1-32 32z m-128 0a32 32 0 0 1-32-32v-32a32 32 0 1 1 64 0v32a32 32 0 0 1-32 32z" p-id="1600"></path></svg>