<svg t="1573020610886" class="icon" viewBox="0 0 1024 1024" version="1.1" xmlns="http://www.w3.org/2000/svg" p-id="2055" xmlns:xlink="http://www.w3.org/1999/xlink" width="16" height="16"><defs><style type="text/css"></style></defs><path d="M108.06604837 337.73299666l66.42679324-41.33222627v242.08875824l-66.42679324-36.90377429zM186.30205015 296.40077039l351.32393124-54.61758589v352.80008109l-351.32393124-56.09373696z" p-id="2056"></path><path d="M417.62966854 874.67996077c-39.21542683 10.56333642-78.65522828-9.27022862-88.09078601-44.30076678L243.91622231 512.52846167c-9.4370335-35.03053817 14.70393973-71.9918834 53.91936656-82.5552186 39.21542683-10.56333642 78.65522828 9.27022862 88.09078482 44.30076678l85.62266141 317.8507311c9.43555652 35.02906239-14.70393973 71.99040641-53.91936656 82.55521982zM552.38749085 206.3540843v458.85414878c0 43.88892035 168.28121088 56.09373696 168.28121088 33.95147215V451.39514588v-31.22797439-247.76455934c0-22.14226481-168.28121088-9.9374482-168.28121088 33.95147215zM870.73125657 180.64396319a12.55318779 12.55318779 0 0 1 1.96475714 17.64295627L799.87896289 289.35953036a12.55318779 12.55318779 0 0 1-17.64295748 1.96475593l-13.8256299-11.05489404a12.55318779 12.55318779 0 0 1-1.96475594-17.64295627l72.81705082-91.0726109a12.55318779 12.55318779 0 0 1 17.64295627-1.96475715l13.82562991 11.05489526zM870.73125657 606.01753175a12.55318779 12.55318779 0 0 0 1.96475714-17.64295627l-72.81705082-91.0726109a12.55318779 12.55318779 0 0 0-17.64295748-1.96475715l-13.8256299 11.05489526a12.55318779 12.55318779 0 0 0-1.96475594 17.64295626l72.81705082 91.0726097a12.55318779 12.55318779 0 0 0 17.64295627 1.96475714l13.82562991-11.05489404zM916.99530471 405.35104505a12.55318779 12.55318779 0 0 1-12.57237891 12.53399786l-116.60411729-0.18304326a12.55318779 12.55318779 0 0 1-12.53399788-12.57237769l0.02804699-17.70200178a12.55318779 12.55318779 0 0 1 12.5723777-12.53399908l116.60411729 0.18304325a12.55318779 12.55318779 0 0 1 12.53399786 12.57237771l-0.02804576 17.70200299z" p-id="2057"></path></svg>