<svg class="icon" width="200px" height="200.00px" viewBox="0 0 1024 1024" version="1.1" xmlns="http://www.w3.org/2000/svg"><path  d="M415.52 611.36h-159.84c-19.2 0-32 12.8-32 32s12.8 32 32 32h159.84c19.2 0 32-12.8 32-32 0-19.36-12.8-32-32-32zM415.52 355.52h-159.84c-19.2 0-32 12.8-32 32s12.8 32 32 32h159.84c19.2 0 32-12.8 32-32 0-19.04-12.8-32-32-32z"  /><path  d="M991.04 899.04h-64V457.92c0-38.4-28.8-73.6-67.2-83.2l-284.48-73.6V131.84c0-22.4-9.6-44.64-28.8-57.6-22.4-16-54.24-22.4-86.24-12.8l-294.24 73.6c-41.6 9.6-70.24 48-70.24 89.6V902.4H32c-19.2 0-32 12.8-32 32s12.8 32 32 32h959.04c19.2 0 32-12.8 32-32 0-19.36-12.96-35.36-32-35.36z m-479.52 0H159.84V224.64c0-12.8 9.6-25.6 22.4-28.8l294.08-76.64c16-3.2 25.6 0 32 3.2 3.2 3.2 3.2 6.4 3.2 9.6v767.04z m351.68 0H575.36V365.28l268.48 70.24c9.6 3.2 19.2 16 19.2 22.4v441.12z m0 0"  /><path  d="M767.2 611.36h-95.84c-19.2 0-32 12.8-32 32s12.8 32 32 32h95.84c19.2 0 32-12.8 32-32 0-19.36-12.8-32-32-32z m0 0"  /></svg>
