<?xml version="1.0" standalone="no"?><!DOCTYPE svg PUBLIC "-//W3C//DTD SVG 1.1//EN" "http://www.w3.org/Graphics/SVG/1.1/DTD/svg11.dtd"><svg t="1573628313043" class="icon" viewBox="0 0 1024 1024" version="1.1" xmlns="http://www.w3.org/2000/svg" p-id="1429" xmlns:xlink="http://www.w3.org/1999/xlink" width="16" height="16"><defs><style type="text/css"></style></defs><path d="M875.054545 512A363.101091 363.101091 0 0 0 558.545455 151.924364V296.96a46.545455 46.545455 0 0 1-93.09091 0V55.854545h46.545455c251.904 0 456.145455 204.241455 456.145455 456.145455 0 251.904-204.241455 456.145455-456.145455 456.145455-251.904 0-456.145455-204.241455-456.145455-456.145455a46.545455 46.545455 0 0 1 93.09091 0 363.054545 363.054545 0 0 0 726.10909 0z m-373.620363-54.085818c31.744 39.144727 25.041455 97.140364-14.894546 129.489454-17.221818 13.963636-37.794909 20.852364-58.181818 21.085091a90.437818 90.437818 0 0 1-71.586909-33.419636c-21.178182-26.065455-46.266182-106.402909-75.310545-240.872727 125.533091 56.32 198.842182 97.605818 219.973818 123.717818z" p-id="1430"></path></svg>