<svg class="icon" width="200px" height="200.00px" viewBox="0 0 1024 1024" version="1.1" xmlns="http://www.w3.org/2000/svg"><path d="M704 544c0 17.7-14.3 32-32 32H352c-17.7 0-32-14.3-32-32s14.3-32 32-32h320c17.7 0 32 14.3 32 32zM704 736c0 17.7-14.3 32-32 32H352c-17.7 0-32-14.3-32-32s14.3-32 32-32h320c17.7 0 32 14.3 32 32zM770.4 192H640v-62c0-17.7-14.3-32-32-32s-32 14.3-32 32v62H448v-62c0-17.7-14.3-32-32-32s-32 14.3-32 32v62H253.6c-34 0-61.6 27.6-61.6 61.6v643.7c0 34 27.6 61.6 61.6 61.6h516.7c34 0 61.6-27.6 61.6-61.6V253.6c0.1-34-27.5-61.6-61.5-61.6zM768 866.5c0 16.3-13.2 29.5-29.5 29.5h-453c-16.3 0-29.5-13.2-29.5-29.5v-581c0-16.3 13.2-29.5 29.5-29.5H384v32c0 17.7 14.3 32 32 32s32-14.3 32-32v-32h128v32c0 17.7 14.3 32 32 32s32-14.3 32-32v-32h98.5c16.3 0 29.5 13.2 29.5 29.5v581z" /></svg>