<?xml version="1.0" standalone="no"?><!DOCTYPE svg PUBLIC "-//W3C//DTD SVG 1.1//EN" "http://www.w3.org/Graphics/SVG/1.1/DTD/svg11.dtd"><svg class="icon" width="200px" height="200.00px" viewBox="0 0 1024 1024" version="1.1" xmlns="http://www.w3.org/2000/svg"><path d="M400.896 867.84H177.152c-16.896 0-30.72-13.824-30.72-30.72V99.84c0-16.896 13.824-30.72 30.72-30.72h583.68c16.896 0 30.72 13.824 30.72 30.72v261.12c0 16.896 13.824 30.72 30.72 30.72s30.72-13.824 30.72-30.72V99.84c0-50.688-41.472-92.16-92.16-92.16h-583.68c-50.688 0-92.16 41.472-92.16 92.16v737.28c0 50.688 41.472 92.16 92.16 92.16h223.744c16.896 0 30.72-13.824 30.72-30.72s-13.824-30.72-30.72-30.72zM691.2 176.64H230.4c-16.896 0-30.72 13.824-30.72 30.72s13.824 30.72 30.72 30.72h460.8c16.896 0 30.72-13.824 30.72-30.72s-13.824-30.72-30.72-30.72z m0 153.6H230.4c-16.896 0-30.72 13.824-30.72 30.72s13.824 30.72 30.72 30.72h460.8c16.896 0 30.72-13.824 30.72-30.72s-13.824-30.72-30.72-30.72zM512 483.84H230.4c-16.896 0-30.72 13.824-30.72 30.72s13.824 30.72 30.72 30.72H512c16.896 0 30.72-13.824 30.72-30.72s-13.824-30.72-30.72-30.72z m374.272 473.6H587.264c-15.36 0-28.16 12.8-28.16 28.16s12.8 28.16 28.16 28.16h299.008c15.36 0 27.648-12.288 28.16-28.672 0-15.36-12.8-27.648-28.16-27.648z m-7.68-220.672h-58.88c-7.68-17.92 2.048-51.712 26.624-91.648l0.512-1.024v-0.512c0.512-0.512 1.024-1.536 1.024-1.536 10.752-20.48 21.504-46.08 21.504-79.36 0-74.24-58.368-133.12-133.12-133.632h-1.024c-74.752 0.512-132.608 59.392-132.608 133.632 0 33.28 10.752 58.368 21.504 78.848 0.512 1.536 1.024 2.56 1.536 3.072l0.512 0.512c24.576 39.936 34.304 73.216 26.624 91.648h-58.88c-33.28 0-59.904 27.648-59.904 61.952v98.816c0 13.824 11.264 25.088 25.088 25.088H913.92c13.824 0 24.576-11.264 24.576-24.576V798.72c0-34.304-26.624-61.952-59.904-61.952z m4.608 129.024H589.312V798.72c0-3.072 2.048-5.12 4.608-5.12h83.456l3.584-3.072c43.008-35.328 40.448-97.28-7.168-174.592-9.728-18.944-15.36-33.792-15.36-53.248 0-43.52 33.792-76.8 77.824-77.312 44.544 0.512 77.824 33.792 77.824 77.312 0 19.968-5.632 34.816-15.36 53.248-47.616 77.312-49.664 139.264-7.168 174.592l3.584 3.072h82.944c2.56 0 4.608 2.048 4.608 5.12v67.072zM428.544 637.44H230.4c-16.896 0-30.72 13.824-30.72 30.72s13.824 30.72 30.72 30.72h198.144c16.896 0 30.72-13.824 30.72-30.72s-13.824-30.72-30.72-30.72z" /></svg>