<?xml version="1.0" standalone="no"?><!DOCTYPE svg PUBLIC "-//W3C//DTD SVG 1.1//EN" "http://www.w3.org/Graphics/SVG/1.1/DTD/svg11.dtd"><svg t="1569235863765" class="icon" viewBox="0 0 1024 1024" version="1.1" xmlns="http://www.w3.org/2000/svg" p-id="5784" xmlns:xlink="http://www.w3.org/1999/xlink" width="200" height="200"><defs><style type="text/css"></style></defs><path d="M450.373818 817.524364c12.613818 0 22.853818 9.821091 22.853818 21.969454s-10.24 22.016-22.807272 22.016H114.222545C51.153455 861.556364 0 812.264727 0 751.476364V179.432727C0 118.644364 51.153455 69.352727 114.269091 69.352727h725.643636c63.115636 0 114.269091 49.245091 114.269091 110.033455v278.807273c0 42.914909-45.707636 36.491636-45.707636 0v-278.807273c0-36.491636-30.72-66.048-68.561455-66.048H114.269091c-37.888 0-68.561455 29.556364-68.561455 66.048v572.043636c0 36.491636 30.72 66.048 68.561455 66.048h336.104727z"  p-id="5785"></path><path d="M828.509091 215.970909a20.945455 20.945455 0 0 1-20.945455 20.945455h-293.236363a20.945455 20.945455 0 0 1 0-41.890909h293.236363a20.945455 20.945455 0 0 1 20.945455 20.945454z m0 83.781818a20.945455 20.945455 0 0 1-20.945455 20.945455h-293.236363a20.945455 20.945455 0 0 1 0-41.890909h293.236363a20.945455 20.945455 0 0 1 20.945455 20.945454z m-167.563636 83.781818a20.945455 20.945455 0 0 1-20.945455 20.945455h-125.672727a20.945455 20.945455 0 0 1 0-41.890909h125.672727a20.945455 20.945455 0 0 1 20.945455 20.945454zM293.236364 446.370909h104.727272a20.945455 20.945455 0 1 1 0 41.890909H293.236364v146.618182a20.945455 20.945455 0 0 1-41.890909 0v-146.618182H146.618182a20.945455 20.945455 0 1 1 0-41.890909H251.345455v-41.890909H146.618182a20.945455 20.945455 0 1 1 0-41.890909H251.345455v-19.409455L140.474182 232.261818a20.945455 20.945455 0 0 1 29.649454-29.602909l103.656728 103.656727 103.656727-103.656727a20.945455 20.945455 0 1 1 29.649454 29.602909L293.236364 346.158545v16.477091h104.727272a20.945455 20.945455 0 1 1 0 41.890909H293.236364v41.89091zM786.618182 697.716364h62.836363a20.945455 20.945455 0 1 1 0 41.890909H786.618182v62.836363a20.945455 20.945455 0 1 1-41.890909 0v-62.836363h-62.836364a20.945455 20.945455 0 1 1 0-41.890909H744.727273v-62.836364a20.945455 20.945455 0 1 1 41.890909 0v62.836364z"  p-id="5786"></path><path d="M765.672727 911.825455a193.163636 193.163636 0 1 0 0-386.327273 193.163636 193.163636 0 0 0 0 386.327273z m0 37.236363a230.4 230.4 0 1 1 0-460.8 230.4 230.4 0 0 1 0 460.8z"  p-id="5787"></path></svg>
