<?xml version="1.0" standalone="no"?><!DOCTYPE svg PUBLIC "-//W3C//DTD SVG 1.1//EN" "http://www.w3.org/Graphics/SVG/1.1/DTD/svg11.dtd"><svg t="1569235715103" class="icon" viewBox="0 0 1024 1024" version="1.1" xmlns="http://www.w3.org/2000/svg" p-id="1111" xmlns:xlink="http://www.w3.org/1999/xlink" width="200" height="200"><defs><style type="text/css"></style></defs><path d="M626 92c-18-12-42-18-60-24-12-6-30-6-42-6h-12c-18 0-36 0-48 6-114 24-198 126-198 246 0 84 42 162 108 204 12 12 30 18 42 24 18 6 30 12 48 18 6 0 18 0 24 6h24c54 0 102-18 138-42 36-24 66-60 84-102-36 60-36 54-36 54l6-12c6-6 6-12 12-18 6-12 12-18 18-30 0-6 6-6 6-12 12-30 18-60 18-96 0-90-54-174-132-216z m-120 408c-12 0-24 0-36-6-42-12-78-30-108-66-24-18-42-66-42-120 0-54 18-96 54-132 36-36 78-54 132-54h18c48 6 90 30 120 60 24 24 48 72 48 126 0 30-6 54-18 78 0 6-6 6-6 12s-6 6-6 12c0 0 0 6-6 6-6 6-12 18-18 24-12 12-18 18-30 24-30 30-60 36-102 36 6 0 0 0 0 0z m378 162l-42 42c-42-48-90-84-150-108l102 66 42-42c18 12 30 30 48 42z" fill="" p-id="1112"></path><path d="M650 524c72 18 138 54 186 96l-42 42c-72-60-174-96-282-96-114 0-216 42-288 102-72 66-120 150-120 240v12h-60v-12c0-114 54-216 138-288 54-48 120-78 186-96 42-12 90-18 138-18 54-6 102 0 144 18z" fill="" p-id="1113"></path><path d="M584 776c0 114 90 204 204 204s204-90 204-204-90-204-204-204-204 90-204 204z" p-id="1114"></path><path d="M752 884l-42-42 168-168 42 42-168 168z"  p-id="1115"></path><path d="M794 836l-42 42-96-96 42-42 96 96z"  p-id="1116"></path></svg>
