<?xml version="1.0" standalone="no"?><!DOCTYPE svg PUBLIC "-//W3C//DTD SVG 1.1//EN" "http://www.w3.org/Graphics/SVG/1.1/DTD/svg11.dtd"><svg class="icon" width="200px" height="200.00px" viewBox="0 0 1024 1024" version="1.1" xmlns="http://www.w3.org/2000/svg"><path d="M512 855.3c-8.7 0-16.9-4-22.2-10.9C478.1 829.2 204 470.5 204 308.2 204 138.4 342.2 0.2 512 0.2s308 138.2 308 308c0 162.3-274.1 521-285.8 536.2-5.3 6.9-13.5 10.9-22.2 10.9z m0-799.1c-139 0-252 113-252 252 0 108.7 165.3 355.1 252 472.5C598.7 663.3 764 417 764 308.2c0-138.9-113-252-252-252z"  /><path d="M512 1023.8c-244.3 0-504-63.1-504-180 0-91.3 166.2-136 305.6-157.5 15.3-2.4 29.6 8.1 31.9 23.4 2.4 15.3-8.1 29.6-23.4 31.9C117.9 773.1 64 822.2 64 843.8c0 49.4 178.7 124 448 124s448-74.6 448-124c0-21.6-53.9-70.7-258.1-102.2-15.3-2.4-25.8-16.7-23.4-31.9 2.3-15.3 16.7-25.8 31.9-23.4 139.4 21.5 305.6 66.2 305.6 157.5 0 116.9-259.7 180-504 180zM512 427.8c-72.8 0-132-59.2-132-132s59.2-132 132-132 132 59.2 132 132-59.2 132-132 132z m0-208c-41.9 0-76 34.1-76 76s34.1 76 76 76 76-34.1 76-76-34.1-76-76-76z"  /></svg>
