<?xml version="1.0" standalone="no"?><!DOCTYPE svg PUBLIC "-//W3C//DTD SVG 1.1//EN" "http://www.w3.org/Graphics/SVG/1.1/DTD/svg11.dtd"><svg t="1569235993246" class="icon" viewBox="0 0 1024 1024" version="1.1" xmlns="http://www.w3.org/2000/svg" p-id="8873" xmlns:xlink="http://www.w3.org/1999/xlink" width="200" height="200"><defs><style type="text/css"></style></defs><path d="M490.496 797.370182c11.496727 0 20.805818 9.634909 20.805818 21.504 0 11.915636-9.309091 21.550545-20.805818 21.550545H138.379636c-57.344 0-103.842909-48.174545-103.842909-107.613091V173.474909c0-59.438545 46.498909-107.566545 103.842909-107.566545h706.280728c57.344 0 103.842909 48.128 103.842909 107.52v272.663272c0 41.984-41.518545 35.653818-41.518546 0V173.474909c0-35.653818-27.927273-64.558545-62.370909-64.558545H138.426182c-34.443636 0-62.324364 28.858182-62.324364 64.558545v559.336727c0 35.653818 27.927273 64.558545 62.370909 64.558546h352.069818z"  p-id="8874"></path><path d="M848.663273 224.535273v3.723636a18.618182 18.618182 0 0 1-18.618182 18.618182h-267.450182a18.618182 18.618182 0 0 1-18.618182-18.618182v-3.723636c0-10.286545 8.378182-18.618182 18.618182-18.618182h267.450182c10.24 0 18.618182 8.331636 18.618182 18.618182z m0 76.148363v3.723637a18.618182 18.618182 0 0 1-18.618182 18.618182h-267.450182a18.618182 18.618182 0 0 1-18.618182-18.618182v-3.723637c0-10.24 8.378182-18.618182 18.618182-18.618181h267.450182c10.24 0 18.618182 8.378182 18.618182 18.618181z m-158.114909 76.148364v3.723636a18.618182 18.618182 0 0 1-18.618182 18.618182h-115.060364a18.618182 18.618182 0 0 1-18.618182-18.618182v-3.723636c0-10.24 8.331636-18.618182 18.618182-18.618182h115.060364c10.286545 0 18.618182 8.378182 18.618182 18.618182zM286.72 434.408727h94.208c10.24 0 18.618182 8.331636 18.618182 18.618182v3.723636a18.618182 18.618182 0 0 1-18.618182 18.618182H286.72v132.282182a18.618182 18.618182 0 0 1-18.618182 18.618182h-3.723636a18.618182 18.618182 0 0 1-18.618182-18.618182v-132.282182H151.552a18.618182 18.618182 0 0 1-18.618182-18.618182v-3.723636c0-10.286545 8.378182-18.618182 18.618182-18.618182H245.76v-35.234909H151.552a18.618182 18.618182 0 0 1-18.618182-18.618182v-3.723636c0-10.24 8.378182-18.618182 18.618182-18.618182H245.76v-17.780363l-103.330909-103.33091c-7.959273-7.959273-8.424727-20.48-0.977455-27.927272 7.447273-7.447273 19.921455-6.981818 27.927273 1.024l101.376 101.376 94.254546-94.254546c7.447273-7.447273 19.921455-6.981818 27.927272 1.024s8.471273 20.48 1.024 27.927273L286.72 353.512727v4.701091h94.208c10.24 0 18.618182 8.378182 18.618182 18.618182v3.723636a18.618182 18.618182 0 0 1-18.618182 18.618182H286.72v35.234909zM893.905455 719.592727v3.723637a18.618182 18.618182 0 0 1-18.618182 18.618181h-153.134546a18.618182 18.618182 0 0 1-18.618182-18.618181v-3.723637c0-10.24 8.331636-18.618182 18.618182-18.618182h153.134546c10.286545 0 18.618182 8.378182 18.618182 18.618182z"  p-id="8875"></path><path d="M798.72 893.672727c104.448 0 188.043636-77.730909 188.043636-172.218182 0-94.487273-83.595636-172.218182-188.043636-172.218181-104.448 0-188.043636 77.730909-188.043636 172.218181 0 94.487273 83.595636 172.218182 188.043636 172.218182z m0 37.236364c-124.416 0-225.28-93.789091-225.28-209.454546s100.864-209.454545 225.28-209.454545S1024 605.789091 1024 721.454545 923.136 930.909091 798.72 930.909091z"  p-id="8876"></path></svg>
