<?xml version="1.0" standalone="no"?><!DOCTYPE svg PUBLIC "-//W3C//DTD SVG 1.1//EN" "http://www.w3.org/Graphics/SVG/1.1/DTD/svg11.dtd"><svg t="1567561535068" class="icon" viewBox="0 0 1024 1024" version="1.1" xmlns="http://www.w3.org/2000/svg" p-id="1647" xmlns:xlink="http://www.w3.org/1999/xlink" width="200" height="200"><defs><style type="text/css"></style></defs><path d="M953.6 66.4h-886.4c-26.4 0-47.2 21.6-47.2 47.2v632.8c0 26.4 21.6 47.2 47.2 47.2h300.8v79.2l-63.2 64v16h271.2c-92-51.2-154.4-149.6-154.4-262.4 0-7.2 0.8-14.4 0.8-22.4h-340v-538.4h855.2v351.2c27.2 27.2 48 60.8 63.2 97.6v-464c0-26.4-20.8-48-47.2-48z" fill="#bfbfbf" p-id="1648"></path><path d="M728 448c-135.2 0-244.8 109.6-244.8 244.8 0 135.2 109.6 244.8 244.8 244.8 135.2 0 244.8-109.6 244.8-244.8 0-135.2-109.6-244.8-244.8-244.8z m119.2 332c9.6 9.6 9.6 26.4 0 36-9.6 9.6-26.4 9.6-36 0l-81.6-81.6-85.6 85.6c-10.4 9.6-26.4 9.6-36 0-9.6-9.6-9.6-26.4 0-36l85.6-85.6-87.2-87.2c-9.6-9.6-9.6-26.4 0-36 9.6-9.6 26.4-9.6 36 0l87.2 87.2 83.2-83.2c9.6-9.6 26.4-9.6 36 0 9.6 9.6 9.6 26.4 0 36l-83.2 83.2 81.6 81.6z" fill="#bfbfbf" p-id="1649"></path></svg>