<svg id="图层_1" data-name="图层 1" xmlns="http://www.w3.org/2000/svg" viewBox="0 0 64 64"><defs><style>.cls-1{fill:#7d0123;}</style></defs><title>未标题-1</title><path class="cls-1" d="M5.64,51.32C3.58,32.16,10.07,23,19.35,17.44,31,10.49,42.67,9.81,51.86,1.94c5.58-4.75,6.86.59,7,1.46A35.93,35.93,0,0,1,45,39.07C31.33,49.44,12.72,42.68,6.78,63.3a.38.38,0,0,1-.32.32L5.09,64a.53.53,0,0,1-.46-.09.46.46,0,0,1-.14-.41A59.16,59.16,0,0,1,16.29,38,91.75,91.75,0,0,1,37.41,19.18a.65.65,0,0,0-.69-1.1A76.82,76.82,0,0,0,18.9,30.88,59.93,59.93,0,0,0,5.64,51.32Zm0,0"/></svg>