<svg id="图层_1" data-name="图层 1" xmlns="http://www.w3.org/2000/svg" xmlns:xlink="http://www.w3.org/1999/xlink" viewBox="0 0 178 178"><defs><style>.cls-1{fill:#fee037;}.cls-2{clip-path:url(#clip-path);}.cls-3{fill:#fec337;}.cls-4,.cls-8{fill:#fff;}.cls-4{opacity:0.4;}.cls-5{fill:#fe8737;}.cls-6{fill:#35333e;}.cls-7{fill:#f45847;}.cls-8{opacity:0.8;}.cls-9{fill:#ec3649;}</style><clipPath id="clip-path"><circle class="cls-1" cx="89" cy="89" r="88.97"/></clipPath></defs><title>表情包</title><circle class="cls-1" cx="89" cy="89" r="88.97"/><g class="cls-2"><path class="cls-3" d="M99.69,153.38A91.88,91.88,0,0,1,10.77,38.67,91.82,91.82,0,1,0,178,109.56,91.74,91.74,0,0,1,99.69,153.38Z"/><ellipse class="cls-4" cx="106.14" cy="13.46" rx="5.2" ry="21.46" transform="translate(68.57 113.64) rotate(-76.67)"/></g><ellipse class="cls-5" cx="42.75" cy="80.3" rx="19.83" ry="3.9"/><ellipse class="cls-5" cx="136.44" cy="79.58" rx="18.65" ry="3.67"/><ellipse class="cls-6" cx="61.08" cy="65.51" rx="6.88" ry="14.79"/><ellipse class="cls-6" cx="121.32" cy="65.13" rx="6.81" ry="14.64"/><path class="cls-7" d="M112.27,114a26.35,26.35,0,0,1-23.42,15.27h-.5a26.16,26.16,0,0,1-16.84-6.09A26.42,26.42,0,0,1,64.43,114Z"/><path class="cls-8" d="M114.49,106.4H62.21A26.2,26.2,0,0,0,64.43,114h47.84A26.2,26.2,0,0,0,114.49,106.4Z"/><path class="cls-9" d="M89.61,126a7.57,7.57,0,0,1-.76,3.3h-.5a26.16,26.16,0,0,1-16.84-6.09,9.31,9.31,0,0,1,8.78-5.56C85.44,117.67,89.61,121.4,89.61,126Z"/></svg>