<svg id="图层_1" data-name="图层 1" xmlns="http://www.w3.org/2000/svg" xmlns:xlink="http://www.w3.org/1999/xlink" viewBox="0 0 178 178"><defs><style>.cls-1{fill:#fee037;}.cls-2{clip-path:url(#clip-path);}.cls-3{fill:#fec337;}.cls-4{fill:#fff;opacity:0.4;}.cls-5{fill:#fe8737;}.cls-6{fill:#35333e;}.cls-7{fill:none;stroke:#35333e;stroke-linecap:round;stroke-miterlimit:10;stroke-width:4px;}</style><clipPath id="clip-path"><circle class="cls-1" cx="89" cy="89" r="88.97"/></clipPath></defs><title>表情包</title><circle class="cls-1" cx="89" cy="89" r="88.97"/><g class="cls-2"><path class="cls-3" d="M99.69,153.38A91.88,91.88,0,0,1,10.77,38.67,91.82,91.82,0,1,0,178,109.56,91.74,91.74,0,0,1,99.69,153.38Z"/><ellipse class="cls-4" cx="106.14" cy="13.46" rx="5.2" ry="21.46" transform="translate(68.57 113.64) rotate(-76.67)"/></g><ellipse class="cls-5" cx="49.05" cy="98.8" rx="19.83" ry="3.9"/><ellipse class="cls-5" cx="142.74" cy="97.17" rx="16.32" ry="3.21"/><ellipse class="cls-6" cx="66.19" cy="82.92" rx="6.88" ry="14.79"/><ellipse class="cls-6" cx="126.43" cy="82.53" rx="6.81" ry="14.64"/><path class="cls-7" d="M106.93,119.33a9.65,9.65,0,0,1-17.93,0"/><path class="cls-7" d="M50.72,49.3a78,78,0,0,1,21.68,2.95,77.1,77.1,0,0,1,9.26,3.28"/><path class="cls-7" d="M141.27,46.44a63.92,63.92,0,0,0-17.59,3.51,63.2,63.2,0,0,0-7.41,3.15"/></svg>