<svg id="图层_1" data-name="图层 1" xmlns="http://www.w3.org/2000/svg" xmlns:xlink="http://www.w3.org/1999/xlink" viewBox="0 0 178 178"><defs><style>.cls-1{fill:#fee037;}.cls-2{fill:#22c8fc;}.cls-3{clip-path:url(#clip-path);}.cls-4{fill:#fec337;}.cls-5,.cls-8{fill:#fff;}.cls-5{opacity:0.4;}.cls-6{clip-path:url(#clip-path-2);}.cls-7{fill:#016eff;opacity:0.6;}.cls-9{clip-path:url(#clip-path-3);}.cls-10{fill:#35333e;}</style><clipPath id="clip-path"><circle class="cls-1" cx="85.17" cy="89" r="88.97"/></clipPath><clipPath id="clip-path-2"><path class="cls-2" d="M29.75,75.63C14,74.37,1.89,82.15.06,91.44A12.57,12.57,0,0,0-.17,94,13.49,13.49,0,0,0,14.38,107.2a12.57,12.57,0,0,0,2.54-.48C26,104,32.53,91.16,29.75,75.63Z"/></clipPath><clipPath id="clip-path-3"><path class="cls-2" d="M151.88,73.25c15.73-1.25,27.86,6.52,29.69,15.81a12.57,12.57,0,0,1,.23,2.58,13.49,13.49,0,0,1-14.55,13.19,12.57,12.57,0,0,1-2.54-.48C155.64,101.62,149.09,88.79,151.88,73.25Z"/></clipPath></defs><title>表情包</title><circle class="cls-1" cx="85.17" cy="89" r="88.97"/><g class="cls-3"><path class="cls-4" d="M95.87,153.38A91.88,91.88,0,0,1,6.94,38.67a91.82,91.82,0,1,0,167.2,70.89A91.74,91.74,0,0,1,95.87,153.38Z"/><ellipse class="cls-5" cx="102.31" cy="13.46" rx="5.2" ry="21.46" transform="translate(65.63 109.91) rotate(-76.67)"/></g><ellipse class="cls-5" cx="39.92" cy="73.81" rx="21.02" ry="4.13"/><ellipse class="cls-5" cx="139.23" cy="72.09" rx="17.29" ry="3.4"/><path class="cls-2" d="M29.75,75.63C14,74.37,1.89,82.15.06,91.44A12.57,12.57,0,0,0-.17,94,13.49,13.49,0,0,0,14.38,107.2a12.57,12.57,0,0,0,2.54-.48C26,104,32.53,91.16,29.75,75.63Z"/><g class="cls-6"><path class="cls-7" d="M4.11,97.92a12.57,12.57,0,0,1,.23-2.58c1.68-8.52,12-15.75,25.88-15.92-.11-1.25-.25-2.51-.48-3.79C14,74.38,1.88,82.15.06,91.44A12.58,12.58,0,0,0-.17,94a13.44,13.44,0,0,0,6.77,11.43A13.14,13.14,0,0,1,4.11,97.92Z"/><ellipse class="cls-8" cx="18.39" cy="100.82" rx="3.16" ry="0.73" transform="translate(-42.25 18.2) rotate(-25.94)"/></g><path class="cls-2" d="M151.88,73.25c15.73-1.25,27.86,6.52,29.69,15.81a12.57,12.57,0,0,1,.23,2.58,13.49,13.49,0,0,1-14.55,13.19,12.57,12.57,0,0,1-2.54-.48C155.64,101.62,149.09,88.79,151.88,73.25Z"/><g class="cls-9"><path class="cls-7" d="M177.51,95.54a12.57,12.57,0,0,0-.23-2.58c-1.68-8.52-12-15.75-25.88-15.92.11-1.25.25-2.51.48-3.79,15.73-1.25,27.86,6.52,29.69,15.81a12.58,12.58,0,0,1,.23,2.58A13.44,13.44,0,0,1,175,103.07,13.14,13.14,0,0,0,177.51,95.54Z"/><ellipse class="cls-8" cx="163.23" cy="98.45" rx="0.73" ry="3.16" transform="translate(3.3 202.18) rotate(-64.06)"/></g><ellipse class="cls-10" cx="65.64" cy="59.08" rx="6.88" ry="14.79"/><ellipse class="cls-10" cx="120.78" cy="58.7" rx="6.81" ry="14.64"/><path class="cls-10" d="M111.83,104.22a22.33,22.33,0,0,0-14.92-5.76h-.44c-9.21.18-17.1,6-20.76,14.44h42.4A24.85,24.85,0,0,0,111.83,104.22Z"/><path class="cls-10" d="M76.18,120.14h41.46a2,2,0,0,0,2.06-2.25,26,26,0,0,0-1.59-5H75.71a26,26,0,0,0-1.59,5A2,2,0,0,0,76.18,120.14Z"/></svg>