<svg id="图层_1" data-name="图层 1" xmlns="http://www.w3.org/2000/svg" xmlns:xlink="http://www.w3.org/1999/xlink" viewBox="0 0 178 178"><defs><style>.cls-1{fill:#fee037;}.cls-2{clip-path:url(#clip-path);}.cls-3{fill:#fec337;}.cls-4{fill:#fff;opacity:0.4;}.cls-5{fill:#35333e;}.cls-6{fill:#22c8fc;}.cls-7{fill:#016eff;opacity:0.6;}.cls-8{fill:none;stroke:#35333e;stroke-linecap:round;stroke-miterlimit:10;stroke-width:4.53px;}</style><clipPath id="clip-path"><circle class="cls-1" cx="89" cy="86.28" r="86.28"/></clipPath></defs><title>表情包</title><circle class="cls-1" cx="89" cy="86.28" r="86.28"/><g class="cls-2"><path class="cls-3" d="M99.37,148.72A89.11,89.11,0,0,1,13.13,37.48a89,89,0,1,0,162.15,68.75A89,89,0,0,1,99.37,148.72Z"/><ellipse class="cls-4" cx="105.62" cy="13.02" rx="5.04" ry="20.81" transform="translate(68.6 112.8) rotate(-76.67)"/></g><ellipse class="cls-4" cx="44.14" cy="84.22" rx="19.24" ry="3.78"/><ellipse class="cls-4" cx="135" cy="83.53" rx="18.09" ry="3.55"/><path class="cls-5" d="M107.16,108.52a21.65,21.65,0,0,0-14.47-5.58h-.43c-8.93.17-16.59,5.86-20.13,14h41.12A24.1,24.1,0,0,0,107.16,108.52Z"/><path class="cls-5" d="M72.59,124H112.8a1.9,1.9,0,0,0,2-2.18,25.23,25.23,0,0,0-1.54-4.83H72.13a25.23,25.23,0,0,0-1.54,4.83A1.9,1.9,0,0,0,72.59,124Z"/><rect class="cls-6" x="52.79" y="65.03" width="22.02" height="112.97"/><rect class="cls-7" x="52.79" y="65.03" width="5.11" height="112.97"/><path class="cls-8" d="M52.26,65a38.35,38.35,0,0,1,23.13,0"/><rect class="cls-6" x="110.88" y="65.03" width="22.02" height="112.97"/><rect class="cls-7" x="110.88" y="65.03" width="5.11" height="112.97"/><path class="cls-8" d="M110.36,65a38.35,38.35,0,0,1,23.13,0"/></svg>