<svg id="图层_1" data-name="图层 1" xmlns="http://www.w3.org/2000/svg" xmlns:xlink="http://www.w3.org/1999/xlink" viewBox="0 0 178 178"><defs><style>.cls-1{fill:#fee037;}.cls-2{clip-path:url(#clip-path);}.cls-3{fill:#fec337;}.cls-4{fill:#fff;opacity:0.4;}.cls-5{fill:#35333e;}.cls-6{fill:none;stroke:#35333e;stroke-linecap:round;stroke-miterlimit:10;stroke-width:4px;}</style><clipPath id="clip-path"><circle class="cls-1" cx="89" cy="89" r="88.97"/></clipPath></defs><title>表情包</title><circle class="cls-1" cx="89" cy="89" r="88.97"/><g class="cls-2"><path class="cls-3" d="M99.69,153.38A91.88,91.88,0,0,1,10.77,38.67,91.82,91.82,0,1,0,178,109.56,91.74,91.74,0,0,1,99.69,153.38Z"/><ellipse class="cls-4" cx="106.14" cy="13.46" rx="5.2" ry="21.46" transform="translate(68.57 113.64) rotate(-76.67)"/></g><ellipse class="cls-4" cx="42.75" cy="79.7" rx="19.83" ry="3.9"/><ellipse class="cls-4" cx="136.44" cy="78.98" rx="18.65" ry="3.67"/><ellipse class="cls-5" cx="61.08" cy="64.91" rx="6.88" ry="14.79"/><ellipse class="cls-5" cx="121.32" cy="64.52" rx="6.81" ry="14.64"/><path class="cls-6" d="M80,115.14C78.7,106,85.43,98.8,91.64,98.7s13.31,7.07,12.08,16.34"/></svg>